<?xml version="1.0" encoding="UTF-8" standalone="no"?>
<svg
   xmlns:dc="http://purl.org/dc/elements/1.1/"
   xmlns:cc="http://creativecommons.org/ns#"
   xmlns:rdf="http://www.w3.org/1999/02/22-rdf-syntax-ns#"
   xmlns:svg="http://www.w3.org/2000/svg"
   xmlns="http://www.w3.org/2000/svg"
   xmlns:sodipodi="http://sodipodi.sourceforge.net/DTD/sodipodi-0.dtd"
   xmlns:inkscape="http://www.inkscape.org/namespaces/inkscape"
   version="1.1"
   id="Capa_1"
   x="0px"
   y="0px"
   viewBox="0 0 511.999 511.999"
   style="enable-background:new 0 0 511.999 511.999;"
   xml:space="preserve"
   sodipodi:docname="корзина.svg"
   inkscape:version="1.0.2-2 (e86c870879, 2021-01-15)"><metadata
   id="metadata49"><rdf:RDF><cc:Work
       rdf:about=""><dc:format>image/svg+xml</dc:format><dc:type
         rdf:resource="http://purl.org/dc/dcmitype/StillImage" /></cc:Work></rdf:RDF></metadata><defs
   id="defs47" /><sodipodi:namedview
   pagecolor="#ffffff"
   bordercolor="#666666"
   borderopacity="1"
   objecttolerance="10"
   gridtolerance="10"
   guidetolerance="10"
   inkscape:pageopacity="0"
   inkscape:pageshadow="2"
   inkscape:window-width="1920"
   inkscape:window-height="1001"
   id="namedview45"
   showgrid="false"
   inkscape:zoom="0.57314432"
   inkscape:cx="-329.15431"
   inkscape:cy="422.14561"
   inkscape:window-x="-9"
   inkscape:window-y="-9"
   inkscape:window-maximized="1"
   inkscape:current-layer="Capa_1" />
<g
   id="g6">
	<g
   id="g4">
		<path
   d="M510.354,111.029c-1.275-1.592-3.145-2.597-5.176-2.781L91.096,70.665c-0.232-5.7-2.493-11.333-6.835-15.675L40.172,10.9    c-4.444-4.444-10.354-6.893-16.64-6.893c-6.286,0-12.195,2.449-16.639,6.893C2.448,15.345,0,21.255,0,27.541    s2.448,12.195,6.893,16.64l44.089,44.088c4.444,4.445,10.354,6.893,16.64,6.893c2.365,0,4.677-0.347,6.878-1.016l62.687,207.577    c5.105,16.904,20.392,28.13,37.79,28.13c0.984,0,1.977-0.036,2.973-0.109L461.443,309c14.865-1.087,27.053-12.604,28.981-27.384    l21.512-164.928C512.201,114.665,511.629,112.622,510.354,111.029z M73.654,77.662c-1.612,1.611-3.754,2.499-6.033,2.499    c-2.279,0-4.421-0.887-6.033-2.499L17.499,33.573C15.887,31.962,15,29.819,15,27.541c0-2.278,0.887-4.422,2.499-6.034    c1.612-1.611,3.754-2.499,6.033-2.499s4.421,0.888,6.033,2.499l44.089,44.089C76.981,68.923,76.981,74.336,73.654,77.662z     M258.275,100.9l3.382,54.872l-70.111-2.554L180.483,93.84L258.275,100.9z M87.528,85.402l77.435,7.029l11.221,60.228    l-69.106-2.518L87.528,85.402z M133.115,236.355l-21.453-71.037L179,167.771l12.536,67.286L133.115,236.355z M176.854,314.783    c-11.56,0.843-21.959-6.309-25.308-17.397l-13.93-46.127l56.704-1.26l11.673,62.653L176.854,314.783z M194.362,168.331    l68.222,2.485l3.857,62.576l-59.71,1.327L194.362,168.331z M221.045,311.55l-11.531-61.889l57.849-1.286l3.668,59.517    L221.045,311.55z M339.04,302.916l-53.047,3.881l-3.621-58.756l58.163-1.292L339.04,302.916z M340.935,231.737l-59.486,1.322    l-3.802-61.694l64.832,2.361L340.935,231.737z M342.878,158.73l-66.159-2.41l-3.331-54.048l70.821,6.428L342.878,158.73z     M411.194,297.636l-57.119,4.18l1.475-55.4l59.873-1.331L411.194,297.636z M416.632,230.055l-60.683,1.348l1.521-57.131    l63.465,2.312L416.632,230.055z M422.139,161.618l-64.27-2.341l1.31-49.218l66.622,6.047L422.139,161.618z M475.55,279.676    c-1.01,7.752-7.404,13.793-15.201,14.364l-34.017,2.489l4.166-51.779l49.752-1.106L475.55,279.676z M482.213,228.597    l-50.505,1.123l4.232-52.589l52.736,1.921L482.213,228.597z M490.624,164.112l-53.481-1.948l3.597-44.703l55.314,5.021    L490.624,164.112z"
   id="path2" />
	</g>
</g>
<g
   id="g12">
	<g
   id="g10">
		<path
   d="M439.855,445.804v-17.973h16.548v0c4.142,0,7.5-3.358,7.5-7.5c0-4.142-3.358-7.5-7.5-7.5H144.04    c-2.919,0-5.516-1.398-7.123-3.835c-1.607-2.438-1.87-5.374-0.72-8.058l21.185-49.432c1.632-3.807-0.132-8.216-3.939-9.848    c-3.807-1.632-8.216,0.131-9.848,3.939l-21.185,49.431c-3.125,7.293-2.383,15.601,1.984,22.225    c4.367,6.623,11.711,10.578,19.646,10.578h8.267v17.973c-13.786,3.375-24.048,15.829-24.048,30.64    c0,17.396,14.152,31.549,31.548,31.549s31.548-14.153,31.548-31.549c0-14.811-10.262-27.265-24.048-30.64v-17.973h257.548v17.973    c-13.786,3.375-24.048,15.829-24.048,30.64c0,17.396,14.152,31.549,31.548,31.549s31.548-14.153,31.548-31.549    C463.903,461.633,453.641,449.179,439.855,445.804z M176.355,476.443c0,9.125-7.423,16.549-16.548,16.549    s-16.548-7.424-16.548-16.549s7.423-16.548,16.548-16.548S176.355,467.319,176.355,476.443z M432.355,492.992    c-9.125,0-16.548-7.424-16.548-16.549s7.423-16.548,16.548-16.548s16.548,7.424,16.548,16.548    C448.903,485.568,441.48,492.992,432.355,492.992z"
   id="path8" />
	</g>
</g>
<g
   id="g14">
</g>
<g
   id="g16">
</g>
<g
   id="g18">
</g>
<g
   id="g20">
</g>
<g
   id="g22">
</g>
<g
   id="g24">
</g>
<g
   id="g26">
</g>
<g
   id="g28">
</g>
<g
   id="g30">
</g>
<g
   id="g32">
</g>
<g
   id="g34">
</g>
<g
   id="g36">
</g>
<g
   id="g38">
</g>
<g
   id="g40">
</g>
<g
   id="g42">
</g>
<path
   style="fill:#2e4052;stroke-width:0.616866"
   d="M 165.32016,328.24775 C 154.11408,325.21651 144.84039,317.60479 140.05182,307.50783 138.4768,304.18681 127.47191,268.57991 106.40169,198.63093 89.181354,141.46285 74.921078,94.502782 74.712188,94.275214 74.503293,94.047645 72.843207,94.160119 71.023106,94.525155 68.681167,94.99485 66.687869,94.998057 64.204014,94.536136 56.731473,93.146472 56.288504,92.784488 29.734132,66.367962 0.46768789,37.253442 0.92529938,37.871416 0.92529938,27.463519 c 0,-5.410222 0.20554862,-6.620145 1.64714532,-9.695611 C 7.1991617,7.8973898 19.160976,2.2902542 29.345698,5.2178669 c 2.011156,0.5781094 4.905801,1.850203 6.432545,2.8268745 1.526744,0.9766715 13.65616,12.6822706 26.954261,26.0124436 25.814755,25.87702 26.783759,27.062434 27.703112,33.89014 l 0.38617,2.867934 3.167325,0.37281 c 1.74203,0.20504 95.153409,8.7102 207.580839,18.900356 147.29625,13.350575 204.89876,18.778465 206.1501,19.425565 2.52606,1.30627 3.66208,3.28124 3.66208,6.3665 0,4.37717 -21.55552,168.24111 -22.47362,170.84327 -2.56106,7.25881 -6.99837,13.04885 -12.94657,16.89335 -7.44082,4.80924 2.27002,3.84609 -154.57462,15.33121 -78.5425,5.75135 -144.88646,10.44059 -147.43104,10.42052 -2.54457,-0.02 -6.43083,-0.52456 -8.63612,-1.12109 z m 26.02947,-14.16811 c 7.70032,-0.58111 14.19665,-1.25265 14.4363,-1.49229 0.23965,-0.23965 -2.16855,-14.4579 -5.35155,-31.59612 l -5.78728,-31.1604 -5.87313,0.0104 c -10.49121,0.0186 -50.79958,1.22136 -51.1031,1.52488 -0.48562,0.48561 13.39856,45.96731 15.25525,49.97304 2.89402,6.24377 8.68344,11.06062 15.49332,12.8906 4.27004,1.14747 5.87522,1.13696 22.93019,-0.15012 z m 55.90974,-4.19589 24.26221,-1.69738 -0.36292,-4.04047 c -0.19961,-2.22225 -1.07006,-15.69119 -1.93432,-29.93095 -0.86427,-14.23977 -1.63535,-25.95444 -1.71351,-26.03259 -0.15557,-0.15558 -58.00077,1.13903 -58.21953,1.30298 -0.12493,0.0936 9.50329,52.23835 10.95768,59.34482 0.50679,2.47628 0.87976,3.12659 1.69877,2.96194 0.57717,-0.11604 11.9674,-0.9748 25.31162,-1.90835 z m 67.80507,-4.93946 24.212,-1.6988 0.0542,-2.49533 c 0.0298,-1.37242 0.3768,-14.08492 0.77109,-28.24998 l 0.71686,-25.75467 -10.17829,0.0407 c -14.09366,0.0563 -48.06225,0.93072 -48.35154,1.24461 -0.13071,0.14183 0.55219,12.74941 1.51755,28.01685 0.96536,15.26744 1.7659,28.55387 1.77897,29.5254 0.0231,1.71893 0.0943,1.75707 2.64546,1.41824 1.44193,-0.19151 13.51709,-1.11265 26.83369,-2.047 z m 70.42859,-5.1651 c 14.05337,-1.01136 25.65235,-1.93962 25.77552,-2.06279 0.35651,-0.35651 4.50635,-52.40221 4.2025,-52.70606 -0.28035,-0.28035 -59.68946,1.06391 -59.98278,1.35724 -0.26608,0.26607 -1.38386,38.25142 -1.3959,47.43622 l -0.0111,8.50316 2.93012,-0.34446 c 1.61156,-0.18946 14.42832,-1.17195 28.48168,-2.18331 z m 60.05549,-4.30747 c 11.35197,-0.8389 17.6804,-1.56954 19.53246,-2.25513 3.48484,-1.29001 7.92596,-5.34564 9.34634,-8.53507 0.68836,-1.54571 1.924,-8.81563 3.30267,-19.43129 1.21154,-9.32886 2.36356,-18.00252 2.56004,-19.27481 l 0.35723,-2.31325 h -7.66469 c -4.21558,0 -15.56862,0.18227 -25.22896,0.40504 l -17.56427,0.40505 -1.98597,25.04068 c -1.09229,13.77239 -1.97761,25.52648 -1.96738,26.12021 0.023,1.33586 -1.07297,1.34502 19.31253,-0.16143 z m -279.40078,-59.58137 25.81066,-0.40871 -0.26531,-1.3879 c -0.14593,-0.76335 -3.00036,-16.08456 -6.34318,-34.04712 l -6.07787,-32.65922 -33.49469,-1.14292 c -18.42209,-0.62862 -33.67372,-0.96391 -33.89252,-0.74512 -0.2188,0.2188 4.4248,16.39344 10.31911,35.94364 l 10.71694,35.54581 3.70809,-0.34487 c 2.03946,-0.18968 15.32291,-0.52879 29.51877,-0.75359 z m 83.22044,-1.86557 17.11804,-0.39388 -0.0123,-2.84941 c -0.017,-3.94204 -3.55486,-59.9894 -3.79941,-60.19028 -0.10888,-0.0894 -14.35504,-0.62429 -31.65814,-1.18859 -17.3031,-0.5643 -32.63994,-1.15321 -34.08186,-1.30869 -2.14915,-0.23175 -2.62168,-0.0973 -2.62168,0.74586 0,1.13859 11.61107,64.13911 12.0705,65.49338 0.23789,0.70123 2.5179,0.78271 13.07745,0.4674 7.03413,-0.21005 20.49244,-0.55916 29.90736,-0.77579 z m 68.55158,-1.45773 c 12.51209,-0.31821 22.87326,-0.70256 23.02482,-0.85412 0.23963,-0.23963 2.02246,-57.88813 1.79904,-58.173 -0.18763,-0.23925 -64.86522,-2.4827 -65.11928,-2.25877 -0.28978,0.25541 2.85074,54.79647 3.41297,59.2726 l 0.3293,2.62168 6.90194,-0.0149 c 3.79608,-0.008 17.13912,-0.27527 29.65121,-0.59348 z m 77.90326,-1.74272 c 11.25294,-0.23363 20.6134,-0.57851 20.80102,-0.7664 0.41051,-0.41112 4.71876,-53.1998 4.37024,-53.54831 -0.27977,-0.27977 -63.32566,-2.64515 -63.58519,-2.38562 -0.2456,0.2456 -1.47726,42.50305 -1.47726,50.68369 v 6.87212 l 9.71564,-0.21535 c 5.34361,-0.11844 18.9226,-0.4065 30.17555,-0.64013 z m 74.69172,-1.73993 c 6.53107,-0.19899 11.89304,-0.40088 11.91548,-0.44863 0.2351,-0.50015 6.53311,-49.49604 6.38411,-49.66581 -0.28721,-0.32726 -52.64511,-2.1813 -52.94262,-1.87474 -0.13549,0.1396 -1.10416,11.07983 -2.15261,24.31161 -1.04844,13.23178 -2.05249,25.11563 -2.23121,26.40855 l -0.32495,2.35076 13.73856,-0.35997 c 7.55621,-0.19798 19.08217,-0.52278 25.61324,-0.72177 z m 23.23638,-86.33275 c 1.47078,-11.16703 2.63124,-20.35769 2.57879,-20.42368 -0.20628,-0.25956 -55.434,-5.16554 -55.65555,-4.94399 -0.3743,0.3743 -3.88257,44.49108 -3.56342,44.81023 0.15769,0.15769 12.28358,0.71734 26.94643,1.24367 19.04893,0.68378 26.7111,0.76577 26.83967,0.28722 0.099,-0.36837 1.3833,-9.80642 2.85408,-20.97345 z m -71.18526,17.78779 c 0.007,-0.59373 0.81125,-10.79516 1.78755,-22.66983 0.97629,-11.87468 1.66835,-21.70229 1.53791,-21.83913 -0.37722,-0.39574 -66.3795,-6.3127 -66.71165,-5.98055 -0.37149,0.37149 -1.69669,49.01522 -1.34418,49.34059 0.33237,0.30679 45.22871,2.00996 56.23598,2.13336 7.69871,0.0863 8.48307,-0.004 8.49439,-0.98444 z m -79.36806,-5.24336 c 0.43558,-4.61489 1.28401,-46.70301 0.94311,-46.7845 -1.23033,-0.29408 -70.62171,-6.52618 -70.80539,-6.35909 -0.23664,0.21528 2.94889,54.04862 3.21395,54.31369 0.1047,0.10469 21.54811,0.97512 64.04306,2.59963 l 2.24138,0.0857 z m -81.44289,-3.08433 c -0.14914,-2.12048 -0.93128,-14.50082 -1.73808,-27.51188 -0.8068,-13.01105 -1.58355,-23.77311 -1.72612,-23.91567 -0.38553,-0.38554 -77.50813,-7.266924 -77.8305,-6.94455 -0.25192,0.251922 10.55393,59.13449 10.91907,59.49948 0.16258,0.16252 58.39998,2.48353 66.24557,2.64016 l 4.40124,0.0879 z m -85.33116,0.3342 c 0,-0.66543 -11.14505,-60.268896 -11.28757,-60.365633 -0.29297,-0.198865 -77.713265,-7.083278 -77.845373,-6.922214 -0.152236,0.185609 19.268573,64.688127 19.565743,64.983917 0.16031,0.15957 57.46684,2.47629 65.71179,2.65653 2.12047,0.0464 3.85541,-0.11231 3.85541,-0.3526 z M 72.291099,79.113097 c 2.066792,-1.205844 4.200317,-4.854626 4.200317,-7.183444 0,-0.839623 -0.290489,-2.30803 -0.645526,-3.263124 C 75.490853,67.711429 64.595452,56.306507 51.633891,43.322251 26.131572,17.775281 26.092641,17.7444 21.087493,19.092146 c -5.137963,1.38351 -7.870796,7.579355 -5.400723,12.24445 0.48509,0.916162 11.527661,12.283559 24.539048,25.260883 l 23.657067,23.595134 h 3.278972 c 2.006727,0 3.996886,-0.418852 5.129242,-1.079516 z"
   id="path874" /><path
   style="fill:#2e4052;stroke-width:0.616866"
   d="m 152.49292,506.7207 c -15.68125,-4.22082 -25.69909,-19.018 -23.50156,-34.71379 1.32408,-9.45724 8.37191,-19.15411 16.8678,-23.20786 2.39128,-1.14098 4.83356,-2.2301 5.42729,-2.42027 0.96436,-0.30887 1.07952,-1.32656 1.07952,-9.54049 v -9.19473 l -6.93975,-0.26771 c -5.83572,-0.22513 -7.50428,-0.52658 -10.48836,-1.89485 -10.442,-4.78791 -16.24357,-16.66936 -13.19921,-27.03164 0.54075,-1.84059 5.91817,-14.83688 11.94983,-28.88066 11.87473,-27.64844 12.07995,-27.99303 16.67156,-27.99303 4.0641,0 7.14648,2.95788 7.14648,6.85783 0,0.96799 -5.04288,13.54101 -11.20641,27.94003 -6.16352,14.39903 -11.2064,26.95999 -11.2064,27.91325 0,2.53704 1.72722,5.75708 3.93147,7.32938 l 1.92876,1.3758 159.29173,0.30843 159.29173,0.30844 1.56015,1.56018 c 3.36341,3.36349 2.97488,8.3367 -0.85233,10.90999 -1.94907,1.3105 -2.73845,1.40932 -11.25781,1.40932 h -9.16177 v 9.27235 c 0,8.28229 0.11527,9.31083 1.07952,9.63271 7.94548,2.65231 15.30856,8.71375 18.80877,15.48376 2.71764,5.25636 3.63054,9.02171 3.61758,14.92102 -0.0334,15.19923 -11.56919,28.25351 -26.92148,30.46523 -16.52636,2.38086 -32.34314,-9.72726 -34.92028,-26.7323 -1.90839,-12.5923 5.33539,-26.149 16.93074,-31.6858 2.44273,-1.16641 4.92711,-2.27634 5.52084,-2.46651 0.9649,-0.30905 1.07952,-1.33026 1.07952,-9.61811 v -9.27235 H 296.0958 167.17076 v 9.27235 c 0,8.28229 0.11526,9.31083 1.07951,9.63271 12.28111,4.09961 20.21112,13.20993 22.39012,25.72272 1.57711,9.05641 -1.9047,19.07625 -9.1273,26.26627 -7.90483,7.86918 -18.96092,11.04591 -29.02017,8.33833 z m 15.11452,-15.44368 c 10.32153,-4.98167 11.99541,-20.0856 3.07241,-27.72335 -8.62516,-7.38282 -23.00628,-3.58211 -26.62437,7.03641 -1.39923,4.10651 -1.20013,9.06119 0.51184,12.73756 4.21524,9.05197 13.86063,12.37986 23.04012,7.94938 z m 271.90977,0.40239 c 5.52281,-2.49673 9.54466,-8.76227 9.5554,-14.88612 0.0119,-6.78703 -2.91536,-11.899 -8.57875,-14.98141 -8.58781,-4.67407 -18.94222,-1.40987 -23.21216,7.31757 -1.44581,2.95513 -1.61894,3.95176 -1.42554,8.206 0.18592,4.08986 0.50998,5.31117 2.08532,7.85919 4.46261,7.218 13.76752,10.01468 21.57573,6.48477 z"
   id="path876" /></svg>
