<?xml version="1.0" encoding="UTF-8" standalone="no"?>
<svg
   xmlns:dc="http://purl.org/dc/elements/1.1/"
   xmlns:cc="http://creativecommons.org/ns#"
   xmlns:rdf="http://www.w3.org/1999/02/22-rdf-syntax-ns#"
   xmlns:svg="http://www.w3.org/2000/svg"
   xmlns="http://www.w3.org/2000/svg"
   xmlns:sodipodi="http://sodipodi.sourceforge.net/DTD/sodipodi-0.dtd"
   xmlns:inkscape="http://www.inkscape.org/namespaces/inkscape"
   width="76.189865mm"
   height="92.189705mm"
   viewBox="0 0 76.189865 92.189705"
   version="1.1"
   id="svg8"
   sodipodi:docname="logo.svg"
   inkscape:version="1.0.2-2 (e86c870879, 2021-01-15)">
  <defs
     id="defs2">
    <inkscape:path-effect
       effect="spiro"
       id="path-effect34"
       is_visible="true"
       lpeversion="1" />
    <inkscape:path-effect
       effect="spiro"
       id="path-effect30"
       is_visible="true"
       lpeversion="1" />
  </defs>
  <sodipodi:namedview
     id="base"
     pagecolor="#ffffff"
     bordercolor="#666666"
     borderopacity="1.0"
     inkscape:pageopacity="0.0"
     inkscape:pageshadow="2"
     inkscape:zoom="2.0021609"
     inkscape:cx="143.98085"
     inkscape:cy="174.21677"
     inkscape:document-units="mm"
     inkscape:current-layer="layer1"
     inkscape:document-rotation="0"
     showgrid="false"
     inkscape:window-width="1920"
     inkscape:window-height="1001"
     inkscape:window-x="-9"
     inkscape:window-y="-9"
     inkscape:window-maximized="1"
     inkscape:lockguides="false"
     showguides="true"
     inkscape:guide-bbox="true"
     inkscape:snap-grids="false"
     inkscape:snap-page="true" />
  <metadata
     id="metadata5">
    <rdf:RDF>
      <cc:Work
         rdf:about="">
        <dc:format>image/svg+xml</dc:format>
        <dc:type
           rdf:resource="http://purl.org/dc/dcmitype/StillImage" />
      </cc:Work>
    </rdf:RDF>
  </metadata>
  <g
     inkscape:label="Layer 1"
     inkscape:groupmode="layer"
     id="layer1"
     style="display:inline"
     transform="translate(-77.709269,-172.18018)">
    <path
       id="path40"
       style="fill:#000000;fill-opacity:1;fill-rule:nonzero;stroke:none;stroke-width:0.334242"
       d="m 120.65537,159.54 c -2.2e-4,0.0353 1.8e-4,0.0707 0,0.10604 0.01,-0.007 0.0182,-0.0132 0.0272,-0.0196 -0.01,-0.0286 -0.0184,-0.0576 -0.0272,-0.0864 z" />
    <path
       style="fill:#2e4052;fill-opacity:1;fill-rule:nonzero;stroke:none;stroke-width:0.264189"
       id="path98"
       d="m 79.649165,226.13144 c -0.286625,1.24223 -0.590285,2.47965 -0.989533,3.70428 -0.495812,1.44571 -0.783098,2.91533 -0.950117,4.40093 -0.146413,1.57575 -0.147265,3.15653 -0.153527,4.73533 -0.01851,1.07106 0.02286,1.97792 0.25373,3.03628 0.07093,0.32499 0.43232,1.5735 0.527477,1.90061 0.358542,1.35695 1.997568,5.42768 3.121532,7.85001 l 0.689891,1.04244 c 0.524873,0.96648 2.016823,3.37401 2.523835,4.40123 0.551525,1.06925 -0.499692,-1.08337 0,0 1.306829,1.74914 1.374608,2.07941 2.235682,3.04385 0.921396,0.97849 1.888803,1.95446 3.187555,2.66915 0.288249,0.15864 0.600935,0.29025 0.901417,0.43538 1.8605,0.79851 3.926609,1.18882 6.012091,1.47943 2.186464,0.26627 4.402412,0.30308 6.611802,0.32153 3.14073,0.007 6.28149,0.002 9.42222,8.8e-4 2.7249,-0.002 5.4498,6.6e-4 8.17471,-4.8e-4 1.90545,-0.025 3.81499,0.046 5.7188,-0.0425 1.57163,-0.073 2.01696,-0.14332 3.61079,-0.30869 2.82586,-0.38584 5.65133,-0.8826 8.31997,-1.69935 0.58159,-0.178 1.16534,-0.3579 1.71467,-0.58702 1.03803,-0.43289 2.02636,-0.93047 3.03953,-1.39572 1.05411,-0.70452 1.56492,-0.97239 2.41032,-1.82356 1.66114,-1.67248 2.59547,-3.71391 3.54954,-5.64916 0.93032,-2.21842 1.91653,-4.4281 2.66178,-6.68781 0.35314,-1.07077 0.38957,-1.29932 0.64724,-2.34367 0.46408,-1.77015 0.66941,-3.56201 0.76003,-5.36218 0.0808,-2.02345 0.0724,-4.04807 0.0656,-6.0722 -0.0289,-1.95735 -0.11834,-3.21924 -0.58937,-5.14084 -0.49163,-1.57548 -1.38768,-3.79873 -2.11846,-5.3194 -0.63463,-1.22963 -1.54658,-2.35473 -2.34209,-3.5242 -0.77507,-1.14424 -1.82094,-2.16245 -2.80289,-3.20648 -1.01653,-1.07173 -2.19139,-2.05121 -3.3832,-3.01214 -1.01467,-0.80006 -2.05642,-1.62698 -3.37593,-2.14483 -0.28226,-0.11083 -0.58295,-0.19244 -0.87442,-0.28865 -2.69572,-0.63101 -5.5676,-0.59363 -8.36247,-0.63348 -3.09593,-0.0223 -6.192,-0.0267 -9.28808,-0.0231 -2.68355,0.003 -5.36708,0.0117 -8.05064,0.0147 -1.83072,0.0279 -3.67069,-0.0566 -5.49865,0.0583 -0.58016,0.0366 -1.87494,0.18185 -2.43988,0.24238 -1.81907,0.22465 -3.65793,0.35145 -5.47195,0.60145 -1.059996,0.14607 -1.450093,0.23188 -2.473613,0.42459 -0.440567,0.1004 -1.312993,0.28657 -1.759903,0.43267 -0.792139,0.25899 -2.770929,1.24901 -2.936952,1.33511 -0.357612,0.18547 -0.860909,0.63754 -1.140462,0.87185 -0.980631,0.9595 -1.507017,1.91623 -1.818919,3.09227 -0.208209,1.17237 -0.186483,2.36179 -0.07031,3.53887 0.242223,0.79949 0.577929,1.62142 1.297582,2.25863 0.402096,0.35601 0.716502,0.49422 1.214378,0.76805 1.856056,0.79538 3.989367,0.92882 6.073047,1.04977 2.007314,0.16726 4.016622,0.30164 6.034652,0.36249 4.08099,0.0553 8.16356,0.0217 12.24508,0.0196 4.19507,0.009 8.39014,0.0111 12.58521,0.0187 1.17137,-0.0118 2.37402,0.0764 3.51932,-0.16981 0.31707,-0.068 0.62706,-0.16035 0.91885,-0.27617 2.21467,-0.87905 1.85364,-0.70544 3.13324,-1.47654 0.69829,-0.51149 1.33149,-1.08995 1.68055,-1.7846 0.18533,-0.36872 0.22003,-0.58276 0.32209,-0.96775 0.11819,-0.53887 0.15911,-1.08412 0.18535,-1.62906 l -1.7126,0.65332 v 0 c -0.0213,0.53562 -0.0572,1.07197 -0.18351,1.60048 -0.11324,0.38891 -0.14147,0.56772 -0.34225,0.9374 -0.36469,0.67173 -0.99592,1.23083 -1.69621,1.71723 -0.2355,0.1347 -0.89916,0.23498 -0.70649,0.40408 0.19638,0.17236 1.07376,-0.25407 0.7902,-0.33059 -0.30881,-0.0833 -0.587,0.22571 -0.89934,0.30113 -1.1431,0.27607 -2.36155,0.1951 -3.5391,0.21452 -4.22055,0.0111 -8.44118,0.0152 -12.66173,0.0236 -4.03997,-0.003 -8.0809,-0.003 -12.11983,-0.0814 -2.02022,-0.0609 -4.03337,-0.18404 -6.043081,-0.35189 -2.050506,-0.11271 -4.149789,-0.23767 -5.988961,-0.99868 -0.468211,-0.25286 -0.798867,-0.39894 -1.178617,-0.72876 -0.705674,-0.6129 -1.032284,-1.41206 -1.25479,-2.18877 -0.112003,-1.16839 -0.120259,-2.34845 0.109663,-3.5098 0.311379,-1.1244 0.869536,-2.11918 1.845103,-3.01612 0.191946,-0.15398 0.374811,-0.31469 0.575852,-0.46188 0.185864,-0.13607 0.841824,-0.37302 0.583571,-0.38698 -0.368468,-0.0199 -0.64293,0.28622 -0.997445,0.36462 -0.254593,0.0562 0.451038,-0.21294 0.691817,-0.29704 0.413764,-0.14453 1.370315,-0.36112 1.771971,-0.45744 1.004118,-0.19629 1.435756,-0.29363 2.474355,-0.44083 1.809549,-0.25648 3.645642,-0.37848 5.462242,-0.59897 0.31694,-0.0339 2.08664,-0.22726 2.4275,-0.25118 1.83218,-0.12851 3.67873,-0.0488 5.51473,-0.0759 2.67688,8.6e-4 5.3538,0.006 8.03068,-0.003 3.10613,-0.0111 6.21253,-0.0331 9.31852,0.003 2.76305,0.0436 5.59683,0.0148 8.26818,0.61732 0.28512,0.0913 0.57926,0.16809 0.85536,0.27412 1.31126,0.50347 2.34774,1.32038 3.3508,2.11145 1.18621,0.95599 2.35238,1.93243 3.36511,2.99801 0.97791,1.03823 2.02206,2.04879 2.78916,3.18921 0.79792,1.16137 1.69655,2.2846 2.34554,3.5019 0.72876,1.51305 1.38244,3.04948 1.86562,4.61867 0.47923,1.90931 0.8251,3.83875 0.84353,5.78592 -0.007,2.0244 5.9e-4,4.04935 -0.0846,6.07295 -0.10815,1.79118 -0.32106,3.57426 -0.75644,5.33928 -0.72711,3.07216 -1.9264,6.03025 -3.25119,8.98373 -0.97647,1.93316 -1.93995,3.96361 -3.63291,5.6232 -0.86696,0.84989 -1.3441,1.08643 -2.42086,1.78647 0.4196,0.44093 0.12893,0.0966 -1.66581,0.65901 -0.64439,0.20195 -1.2996,0.38515 -1.96204,0.5504 -2.06071,0.51404 -4.18676,0.87982 -6.32168,1.16465 -1.56534,0.16313 -2.03299,0.23574 -3.57731,0.30763 -1.89692,0.0882 -3.79944,0.0127 -5.69797,0.0367 -2.72991,-1.2e-4 -5.45985,0.004 -8.18975,0.01 -3.13424,0.004 -6.2686,0.0147 -9.40271,-0.0111 -2.19817,-0.0259 -4.40398,-0.0547 -6.581319,-0.30921 -2.067003,-0.27979 -4.120178,-0.65678 -5.971115,-1.43466 -0.295019,-0.14058 -0.60271,-0.26703 -0.885057,-0.42173 -1.284442,-0.70376 -2.247075,-1.66909 -3.150253,-2.63867 -0.84181,-0.95927 -1.881827,-1.81106 -2.525706,-2.85387 -0.505237,-1.08233 -1.423455,-2.49846 -1.978433,-3.5671 -0.497615,-1.03029 -1.016571,-1.77002 -1.620753,-2.93869 -0.403885,-1.01835 -0.734279,-2.01152 -1.179429,-3.26166 -0.664078,-1.54041 -0.917983,-2.4332 -1.28513,-3.78017 -0.114892,-0.39308 -0.359386,-1.20369 -0.444062,-1.5988 -0.225822,-1.05381 -0.290878,-2.12868 -0.280228,-3.19441 0.0096,-1.57604 0.0139,-3.15393 0.165074,-4.7267 0.17238,-1.4786 0.47692,-2.94128 0.962716,-4.38134 0.400197,-1.23626 0.709099,-2.48539 1.03271,-3.73407 l -1.72966,0.64037 z"
       sodipodi:nodetypes="ccccsccccccscccccscsscscsccccccccsccccscscsscccsccccccscscccscscssscccccscccscsscscsccccscccccccccscsscscccccsccccccscccccc" />
    <path
       style="fill:#2e4052;fill-opacity:1;stroke-width:0.0496421"
       d="m 113.45591,262.79022 c -2.77765,-0.0337 -4.03932,-0.0849 -5.6108,-0.22636 -4.49622,-0.40521 -7.44877,-1.26236 -9.116599,-2.64657 -1.10298,-0.91543 -2.14191,-2.52666 -2.355417,-3.65293 -0.103197,-0.54412 -0.0028,-1.59069 0.204591,-2.13803 0.135669,-0.35763 1.050157,-1.71903 1.436485,-2.13842 1.312552,-1.42491 2.32611,-2.1592 4.25753,-3.08441 2.23544,-1.07085 2.42284,-1.14498 4.05403,-1.60387 1.8844,-0.5301 3.85715,-1.01016 5.24166,-1.27551 l 0.76637,-0.14689 0.0301,-2.65086 c 0.0166,-1.45798 0.0259,-2.65688 0.0202,-2.66424 -0.0184,-0.0248 -1.85219,0.22161 -2.6506,0.35634 -1.61214,0.27206 -3.92214,0.81866 -5.25499,1.24343 -0.34623,0.11035 -1.4547,0.45942 -2.46328,0.77566 -2.587491,0.81138 -3.605548,1.15747 -5.66552,1.926 -0.993523,0.37068 -1.978846,0.73639 -2.189588,0.81271 -0.50382,0.18245 -1.248323,0.51508 -1.497825,0.66921 -0.109526,0.0676 -0.365371,0.25396 -0.568586,0.41403 -0.203229,0.16008 -0.3695,0.2706 -0.3695,0.24561 0,-0.0249 0.05132,-0.0836 0.114205,-0.13038 0.173233,-0.12893 0.505402,-0.51494 0.468926,-0.54493 -0.01775,-0.0146 -0.1076,-6e-4 -0.199886,0.0306 -0.402357,0.13707 -0.150639,-0.0149 0.726492,-0.43852 1.525179,-0.73666 2.167737,-1.0075 4.041267,-1.7034 3.411345,-1.26712 3.939105,-1.44605 7.944565,-2.69379 2.82836,-0.88106 4.80297,-1.37545 6.80807,-1.70452 l 0.88159,-0.14468 0.0682,-0.49544 c 0.0376,-0.27249 0.10224,-0.65614 0.14394,-0.85252 0.0417,-0.19638 0.0662,-0.365 0.0543,-0.37468 -0.011,-0.009 -0.25158,0.0444 -0.53291,0.12019 -0.63807,0.1719 -1.46983,0.32654 -3.63164,0.67515 -2.01191,0.32446 -2.51258,0.38844 -3.73223,0.47692 -1.68308,0.12211 -2.99382,0.0698 -3.90595,-0.15607 -0.89939,-0.22266 -1.612442,-0.96098 -1.892985,-1.96013 -0.134844,-0.48006 -0.133468,-1.72321 0.0028,-2.24232 0.19079,-0.72903 0.70742,-1.82176 1.216525,-2.57303 0.81975,-1.20972 1.3582,-1.76274 3.88088,-3.98592 1.24775,-1.09961 1.7518,-1.5766 3.44922,-3.26391 0.74726,-0.74281 1.53261,-1.5176 1.7452,-1.72174 l 0.38653,-0.37111 0.39684,-2.8e-4 c 0.36053,-2.4e-4 0.48453,0.0398 0.34399,0.11142 -0.0292,0.0148 -0.73724,0.70985 -1.57368,1.54458 -1.84951,1.8457 -2.06498,2.05058 -3.32448,3.16089 -2.74212,2.41734 -3.36079,3.06625 -4.12054,4.32186 -0.64268,1.06215 -0.96576,1.90375 -1.06282,2.76857 -0.17399,1.55024 0.2771,2.73055 1.24507,3.25786 0.88913,0.48435 3.04629,0.56901 5.87865,0.23072 0.75608,-0.0902 4.26402,-0.65548 4.95387,-0.79813 l 0.38311,-0.0792 0.20269,-0.96792 c 0.30099,-1.43723 0.51193,-2.19184 0.83685,-2.99379 0.29338,-0.72411 0.90571,-1.90919 1.26773,-2.45355 0.55065,-0.82796 1.30546,-1.60685 2.53229,-2.61311 1.40082,-1.14898 1.78558,-1.3922 3.43565,-2.17175 1.25286,-0.5919 1.72486,-0.70504 2.9465,-0.70627 1.07234,-0.001 1.60749,0.14291 2.1863,0.58818 0.92801,0.71398 1.46065,1.64898 1.7054,2.99379 0.11531,0.63371 0.079,1.0482 -0.13732,1.56601 -0.37221,0.89148 -0.64319,1.10765 -2.45861,1.96136 -0.43131,0.20283 -0.88701,0.40513 -1.01269,0.44957 -0.12563,0.0444 -0.74577,0.33397 -1.378,0.6434 -3.71864,1.81999 -5.81222,2.7227 -7.9646,3.43412 -0.43655,0.14429 -0.81531,0.27778 -0.84171,0.29663 -0.0612,0.0437 -0.17398,0.62233 -0.27208,1.39541 -0.0421,0.33208 -0.0736,0.60653 -0.0699,0.60986 0.004,0.003 0.16401,-0.0121 0.35619,-0.0339 1.72185,-0.19725 5.75809,-0.2955 9.25734,-0.22533 1.39996,0.0281 2.76708,0.0711 3.03803,0.0958 1.46523,0.13319 2.93611,0.4441 4.34393,0.91819 0.471,0.15861 1.21351,0.40911 1.65006,0.55666 0.43653,0.14755 1.22478,0.40679 1.75166,0.57608 1.1158,0.35853 3.86864,1.4738 4.90519,1.98728 1.0512,0.52071 1.5452,0.82897 2.14353,1.33758 0.8709,0.74026 1.05522,1.14372 0.94476,2.06793 -0.0992,0.83006 -0.3621,1.7808 -0.77992,2.82051 -0.3165,0.78753 -0.49003,1.13152 -0.93125,1.84579 -0.29824,0.48284 -0.63667,0.97918 -0.75204,1.10297 -0.4252,0.4562 -3.3926,2.86762 -4.57233,3.71566 -1.7028,1.22403 -2.19778,1.54227 -3.53071,2.27013 -3.9976,2.1829 -7.66685,3.66288 -10.18153,4.10664 -0.53109,0.0937 -0.86484,0.1173 -2.13483,0.151 -1.64008,0.0436 -2.04583,0.0432 -5.91187,-0.003 z m 8.12882,-1.0762 c 1.16936,-0.0435 1.66531,-0.1113 2.66769,-0.36492 0.63502,-0.16069 1.82649,-0.53676 2.47096,-0.77991 0.23709,-0.0894 0.45457,-0.16266 0.48333,-0.16266 0.0288,0 0.43824,-0.1771 0.91006,-0.39353 0.92852,-0.426 2.24582,-1.13639 3.07472,-1.65813 0.49099,-0.30904 2.40222,-1.66858 3.47004,-2.46837 0.84527,-0.63309 3.04832,-2.55073 3.30438,-2.87627 1.25289,-1.59287 2.25266,-4.15323 2.2687,-5.81003 0.006,-0.53033 -0.0625,-0.71007 -0.42882,-1.13873 -0.64495,-0.75482 -2.13299,-1.60392 -4.56769,-2.60642 -1.2935,-0.5326 -1.83875,-0.72977 -3.55394,-1.28521 -0.82795,-0.2681 -1.81815,-0.59933 -2.20045,-0.73604 -1.6577,-0.59283 -3.27607,-0.92597 -5.16201,-1.06264 -1.63567,-0.11852 -8.45678,-0.0971 -10.16787,0.0318 l -0.36948,0.0279 v 2.61949 2.61951 l 0.45159,-0.0636 c 0.42482,-0.0598 4.57665,-0.13397 5.23802,-0.0934 l 0.24303,0.0149 -0.88627,0.52898 -0.88626,0.52896 h -2.08443 -2.08441 l 0.0347,0.30388 c 0.14886,1.30615 0.35347,2.30881 0.58998,2.8911 l 0.1809,0.44541 -0.68493,0.3135 -0.68493,0.3135 -0.072,-0.14066 c -0.28844,-0.56416 -0.63042,-2.08223 -0.73152,-3.24729 -0.0411,-0.47349 -0.0861,-0.7443 -0.12411,-0.74418 -0.1818,6e-4 -1.74867,0.23822 -2.35855,0.35777 -2.01316,0.39462 -4.85583,1.1196 -6.56588,1.67455 -0.4297,0.13945 -0.6086,0.22632 -0.84846,0.41202 -0.16716,0.12943 -0.53336,0.39709 -0.81375,0.59482 -0.44429,0.31332 -0.92405,0.74788 -1.66737,1.51034 -0.465154,0.47711 -1.344706,1.83803 -1.482123,2.29326 -0.150557,0.49879 -0.223648,1.39812 -0.149168,1.83591 0.190047,1.11731 1.159725,2.66756 2.214701,3.5407 2.11624,1.75148 6.60102,2.68467 13.39013,2.7862 2.06165,0.0308 6.61795,0.0233 7.58142,-0.0125 z m -5.905,-25.07407 c 2.287,-0.75008 4.05395,-1.46891 6.24358,-2.53999 1.74229,-0.85226 2.96483,-1.43882 3.34192,-1.60341 0.6284,-0.27425 1.00842,-0.7202 1.27437,-1.49547 0.14364,-0.41884 0.14393,-0.84868 0.001,-1.53622 -0.19518,-0.93848 -0.53376,-1.59283 -1.16725,-2.25577 -0.6444,-0.67434 -1.22744,-0.88251 -2.46996,-0.88187 -0.7126,3e-4 -1.21272,0.0504 -1.64711,0.16479 -0.39388,0.10382 -1.1529,0.61695 -2.24655,1.51901 -1.41936,1.17072 -2.05255,1.86691 -2.70613,2.97536 -0.96233,1.63207 -1.36669,2.73373 -1.83256,4.99255 -0.18629,0.90334 -0.21828,1.10757 -0.17347,1.10757 0.011,0 0.6333,-0.20094 1.38218,-0.44655 z"
       id="path943" />
    <path
       style="fill:#2e4052;fill-opacity:1;stroke-width:0.0992842"
       d="m 109.76086,222.95097 c 1.01627,-1.13206 1.58286,-1.83787 3.39706,-4.23174 2.42688,-3.20234 2.75674,-3.66539 3.15893,-4.43447 0.69613,-1.33115 2.00161,-4.1754 2.00161,-4.36093 0,-0.13715 0.19304,-0.26371 0.76095,-0.49892 l 0.76096,-0.31519 0.19677,0.27397 c 0.28156,0.392 0.90967,0.6941 3.64792,1.75456 3.62749,1.40479 5.22464,2.22413 6.94242,3.56142 1.64856,1.28339 2.42823,2.38219 3.00781,4.23892 0.3918,1.25515 0.5569,2.3338 0.5573,3.64098 l 3.2e-4,1.00169 -0.34212,0.0562 c -0.85649,0.14087 -0.82735,0.17282 -0.91332,-1.0017 -0.16108,-2.20112 -0.74856,-4.15847 -1.6102,-5.36491 -1.28858,-1.80421 -3.86871,-3.50379 -7.48012,-4.92732 -3.96452,-1.5627 -4.58768,-1.7943 -4.65383,-1.72968 -0.0389,0.0383 -0.4541,0.87221 -0.9224,1.85357 -0.87473,1.83294 -0.88547,1.8493 -3.56526,5.41342 -1.51691,2.01747 -3.32914,4.23549 -4.1647,5.09721 -0.70888,0.73108 -0.81584,0.80572 -1.15451,0.80572 h -0.37326 z"
       id="path945" />
    <ellipse
       style="fill:#412234;fill-opacity:0.93;stroke-width:0.314445"
       id="path3559"
       cx="58.01561"
       cy="266.633"
       rx="24.155302"
       ry="9.0077486"
       inkscape:transform-center-x="14.507577"
       inkscape:transform-center-y="-2.8984356"
       transform="matrix(0.98870659,-0.14986419,0.21867189,0.97579845,0,0)" />
    <ellipse
       style="fill:#ffc857;fill-opacity:0.595142;stroke-width:0.355067"
       id="path3565"
       ry="11.196172"
       rx="7.7841587"
       cy="276.27258"
       cx="170.73096"
       inkscape:transform-center-x="2.7743112"
       inkscape:transform-center-y="4.6809009"
       transform="matrix(0.96576019,-0.25943643,-0.17268742,0.98497668,0,0)" />
    <path
       style="fill:#ffc857;fill-opacity:0.595142;stroke-width:0.334242"
       id="path3567"
       d="m 120.68986,203.4786 c -1.96243,-0.1005 -3.73373,-0.75547 -5.22906,-1.80006 -0.42307,-0.29557 -0.79484,-0.63748 -1.19227,-0.95623 -1.44602,-1.29622 -2.5482,-2.82427 -3.23084,-4.49243 -0.14348,-0.35058 -0.30615,-0.70203 -0.36163,-1.06912 -0.0539,-0.3578 0.0245,-0.72085 0.0369,-1.08128 0.11971,-0.35079 0.19929,-0.71256 0.35894,-1.05242 0.50132,-1.06722 1.51525,-2.22677 2.60466,-2.94697 0.24734,-0.16353 0.52201,-0.29691 0.78302,-0.44536 -0.24503,0.1277 -0.951,0.22378 -0.73509,0.38312 0.22527,0.16625 0.54715,-0.21298 0.82027,-0.32027 1.31853,-0.51783 2.69067,-1.03572 3.771,-1.86005 0.22828,-0.17416 0.42721,-0.37261 0.64082,-0.55892 1.22549,-1.16787 1.63865,-2.64198 1.93835,-4.12272 0.004,-0.21359 0.0344,-0.4278 0.0144,-0.6408 -0.13916,-1.48001 -0.83784,-2.89172 -1.60746,-4.21382 -2.28069,-0.73668 -2.9102,-4.07235 -2.9102,-4.07235 -1.1454,2.47278 -4.21912,-1.36928 -4.35807,-1.46869 l 2.53718,2.90359 v 0 c 0.13691,0.0938 0.27352,0.18755 0.41027,0.28132 1.0817,0.92235 2.02289,1.95394 2.69623,3.11464 0.89051,1.49531 1.66082,3.08124 1.51809,4.78014 -0.28332,1.46348 -0.72471,2.89967 -1.96686,4.03001 -0.21836,0.18027 -0.42246,0.37302 -0.65509,0.54079 -0.22134,0.1596 -0.9914,0.38837 -0.70354,0.43896 0.32933,0.0578 0.63752,-0.21586 0.88017,-0.40794 0.19746,-0.15631 -0.49155,0.19959 -0.73911,0.29627 -1.89172,0.7388 0.0676,-0.10139 -3.28984,1.46126 -0.2578,0.15534 -0.52976,0.2959 -0.77339,0.46602 -1.07143,0.74814 -2.05094,1.92668 -2.52541,3.00877 -0.15416,0.35158 -0.22661,0.72386 -0.33991,1.08582 -0.003,0.37329 -0.0728,0.75017 -0.01,1.11987 0.063,0.37012 0.23425,0.72294 0.38363,1.07589 0.71137,1.68055 1.82744,3.22288 3.28474,4.53779 0.39763,0.32698 0.76915,0.67689 1.19282,0.98091 0.63609,0.45645 1.67684,1.03923 2.45625,1.3344 0.84866,0.32142 1.81286,0.48341 2.72838,0.60903 l 1.57176,-0.93917 z"
       sodipodi:nodetypes="sscsscsscssscccccccsccccsssscssccscssccs" />
    <path
       style="fill:#ffc857;fill-opacity:0.595142;stroke-width:0.334242"
       id="path3569"
       d="m 116.58274,192.23767 c 0.96939,0.24199 1.60763,0.97709 1.57937,1.70647 -0.14674,0.69466 -1.27228,1.44335 -2.05107,1.82341 2.32026,-1.08259 1.74241,-0.62278 0.93206,-0.72456 l -1.59435,0.91071 v 0 c 1.04131,0.23411 1.15595,-0.0959 2.46861,-0.77057 0.67673,-0.44624 0.80387,-1.04697 0.9097,-1.72853 0.015,-0.76053 -0.0649,-1.36774 -0.5614,-2.02796 z"
       sodipodi:nodetypes="cccccscccc" />
    <path
       style="fill:#ffc857;fill-opacity:0.595142;stroke-width:0.334242"
       id="path3571"
       d="m 120.87036,197.82402 c -0.47367,-0.43872 -0.67734,-0.99008 -0.82431,-1.55151 -0.0366,-0.40204 -0.20755,-0.85403 -0.0874,-1.2575 0.0254,-0.0856 0.0813,-0.16295 0.12205,-0.24443 0.20161,-0.28539 0.42682,-0.55718 0.74151,-0.76723 0.11324,-0.0756 0.48712,-0.26349 0.35958,-0.2052 -1.86358,0.85169 -1.53674,0.71671 -0.85143,0.46541 0.12508,-0.0411 0.2501,-0.0824 0.37514,-0.12349 0,0 1.51562,-0.9794 1.51562,-0.9794 v 0 c -0.12659,0.0408 -0.25333,0.0816 -0.37998,0.12221 -1.38825,0.45316 -2.832,1.02872 -3.51252,2.16207 -0.0341,0.0949 -0.0813,0.18714 -0.10196,0.28453 -0.0908,0.42417 0.0548,0.87783 0.11586,1.29633 0.16537,0.58234 0.38818,1.15326 0.85697,1.62326 0,0 1.67088,-0.82505 1.67088,-0.82505 z" />
    <path
       style="fill:#ffc857;fill-opacity:0.595142;stroke-width:0.334242"
       id="path3573"
       d="m 115.77942,197.80401 c 0.65102,0.41402 1.1132,0.96746 1.46743,1.57048 0.30176,0.50809 0.53674,1.03071 0.65821,1.58743 0.0326,0.086 0.0651,0.17209 0.0976,0.25814 0,0 1.69906,-0.76472 1.69906,-0.76472 v 0 c -0.0292,-0.0808 -0.0582,-0.16175 -0.0874,-0.24263 -0.13319,-0.56837 -0.381,-1.10298 -0.69008,-1.62265 -0.37906,-0.62119 -0.86484,-1.18865 -1.50219,-1.65109 0,0 -1.64267,0.86504 -1.64267,0.86504 z" />
    <path
       style="fill:#ffc857;fill-opacity:0.595142;stroke-width:0.334242"
       id="path3575"
       d="m 106.66018,178.18871 c 0.17579,0.65904 1.75872,2.91761 2.02623,3.55423 0.62922,-0.78752 0.88319,0.16793 0.89629,0.31306 0.055,0.60858 -0.87472,1.79261 -1.1398,2.34517 -0.13498,0.12151 -0.25051,0.2598 -0.40485,0.36455 -0.17879,0.12129 -0.78358,0.40747 -0.58602,0.3078 1.25702,-0.63421 1.30976,-0.61782 0.39511,-0.31539 l -1.49603,0.96551 v 0 c 1.31201,-0.40464 0.83826,-0.23001 2.86531,-1.22043 0.20503,-0.10017 0.40368,-0.21368 0.57505,-0.35007 0.15221,-0.12113 0.25744,-0.27663 0.38618,-0.41494 0.26199,-0.59174 0.542,-1.24588 0.46948,-1.88848 -0.0164,-0.14429 -0.23605,-0.73228 -0.28461,-0.86772 -0.26553,-0.63665 -1.40214,-0.32171 -1.56407,-0.98249 z"
       sodipodi:nodetypes="ccscssccssscsccc" />
    <path
       style="fill:#ffc857;fill-opacity:0.595142;stroke-width:0.334242"
       id="path3577"
       d="m 112.04707,181.68289 c -0.48575,0.3815 -1.09776,0.81216 -1.27128,1.37388 -0.025,0.0813 -0.0224,0.16629 -0.0336,0.24942 0.015,0.0847 0.011,0.17294 0.0448,0.25405 0.16081,0.39409 0.68747,0.79129 1.05141,1.06929 0.49451,0.37936 0.9826,0.76274 1.52295,1.0984 l 1.63439,-0.85111 v 0 c -0.54222,-0.32509 -1.71883,-0.16696 -2.20557,-0.54497 -0.32217,-0.24007 -0.90417,-0.87558 -0.90417,-0.87558 -0.0244,-0.0697 -0.20773,-0.65386 -0.21483,-0.72613 0.1514,-0.64029 1.58951,-1.24052 2.18117,-1.6377 z"
       sodipodi:nodetypes="cscccccscscccc" />
    <path
       style="fill:#ffc857;fill-opacity:0.595142;stroke-width:0.334242"
       id="path3579"
       d="m 109.40755,186.64247 c 0.89749,-0.42437 -0.85108,0.4006 -1.08681,0.54531 -0.1054,0.0648 0.25271,-0.0628 0.38278,-0.0792 0.70405,-0.46616 0.32948,-0.54842 0.70405,-0.46616 0,0 2.00439,-0.3378 2.75256,1.22931 0,0 0.82801,1.15317 0.0297,1.90366 -0.085,0.0799 -0.0733,0.20349 -0.10994,0.30524 l 1.73699,-0.68546 v 0 c 0.0288,-0.11916 0.0786,-0.23616 0.0859,-0.35747 0.03,-0.49507 -0.37346,-0.96314 -0.66225,-1.36471 -0.47431,-0.56281 -1.08739,-1.04653 -1.82848,-1.36837 -1.57098,-0.40939 -2.34404,0.10979 -3.82089,0.92234 l 1.81648,-0.58454 z"
       sodipodi:nodetypes="sscccsccssccccs" />
    <path
       style="fill:#2e4052;fill-opacity:1;stroke-width:0.024821"
       d="m 118.99029,204.39273 c -1.78687,-0.26746 -2.58302,-0.50974 -3.77702,-1.14935 -0.78711,-0.42163 -1.21334,-0.71383 -1.99854,-1.37005 -1.26779,-1.05953 -2.11902,-2.0317 -2.91439,-3.32844 -0.36742,-0.59903 -0.57945,-1.01002 -0.87761,-1.7011 -0.33793,-0.78329 -0.38137,-0.98366 -0.35322,-1.62959 0.0182,-0.41533 0.0231,-0.44365 0.16469,-0.9266 0.16074,-0.54846 0.30192,-0.87071 0.57561,-1.31386 0.37454,-0.60644 0.82878,-1.15706 1.37768,-1.67005 0.6113,-0.57128 1.1456,-0.91177 2.21938,-1.41436 0.35376,-0.16556 0.85255,-0.40145 1.10847,-0.52417 0.2559,-0.12274 0.64876,-0.2926 0.87303,-0.37749 0.22424,-0.0848 0.43016,-0.17415 0.45757,-0.19834 0.0274,-0.0242 0.19429,-0.10813 0.37085,-0.18639 0.29721,-0.13183 0.34817,-0.16491 0.68777,-0.44627 0.20175,-0.16713 0.44657,-0.38491 0.54406,-0.48397 0.79175,-0.80441 1.30435,-1.82669 1.63891,-3.26853 0.12356,-0.53224 0.15353,-0.86098 0.1204,-1.31739 -0.0856,-1.17756 -0.50681,-2.31136 -1.45091,-3.90641 -0.44519,-0.75217 -0.73693,-1.16433 -1.21279,-1.71347 -0.50586,-0.5837 -1.27894,-1.32587 -1.67279,-1.60591 -0.22211,-0.15792 -0.42425,-0.32957 -0.42438,-0.36039 -4e-5,-0.009 0.52112,-0.0168 1.15815,-0.0168 h 1.15822 l 0.0491,0.12944 c 0.21263,0.5619 0.65816,1.29411 1.06179,1.74497 0.33368,0.37277 0.93199,0.79302 1.28833,0.90495 l 0.12494,0.0392 0.21896,0.38734 c 0.79024,1.39798 1.20715,2.49875 1.36039,3.59204 0.0788,0.56217 -0.001,1.15547 -0.29028,2.13841 -0.42465,1.44658 -1.00806,2.3555 -2.08396,3.24673 -0.55477,0.45955 -1.05442,0.7662 -1.90006,1.16611 -0.37306,0.17642 -1.65831,0.71222 -1.99519,0.83176 -0.0604,0.0215 -0.20342,0.10017 -0.31789,0.17496 -0.26331,0.1721 -0.36536,0.21585 -0.46517,0.19944 -0.10017,-0.0165 -0.28781,0.10692 -0.76303,0.50151 -0.83385,0.6924 -1.54815,1.57434 -1.95326,2.4117 -0.0692,0.14293 -0.18662,0.45695 -0.26103,0.69779 -0.11861,0.38391 -0.13932,0.48636 -0.16825,0.83076 -0.053,0.6312 -0.0124,0.84599 0.2962,1.59925 0.59319,1.4444 1.30496,2.57072 2.34079,3.70415 0.8282,0.90623 1.99385,1.85982 2.93411,2.40032 1.23298,0.70876 2.65083,1.15043 4.1039,1.27842 0.14966,0.0133 0.27593,0.0271 0.28058,0.0308 0.0144,0.0117 -1.49302,0.90324 -1.53089,0.9063 -0.019,0.001 -0.0654,-0.002 -0.10292,-0.007 z"
       id="path3583" />
    <path
       style="fill:#2e4052;fill-opacity:1;stroke-width:0.024821"
       d="m 117.90856,193.09257 c -0.0973,-0.15074 -0.35683,-0.39971 -0.54443,-0.52247 -0.18235,-0.11934 -0.61089,-0.31666 -0.6877,-0.31666 -0.0221,0 -0.0395,-0.007 -0.0391,-0.0169 7.3e-4,-0.0127 1.52163,-0.75572 1.61349,-0.78821 0.0235,-0.008 0.22478,0.31088 0.31427,0.49824 0.10953,0.22967 0.2046,0.60241 0.22145,0.8696 0.008,0.13 0.0202,0.26421 0.0266,0.29826 l 0.011,0.0619 h -0.431 -0.43104 z"
       id="path3585" />
    <path
       style="fill:#2e4052;fill-opacity:1;stroke-width:0.024821"
       d="m 115.65653,195.98545 c -0.0798,-0.0119 -0.14148,-0.0308 -0.13691,-0.0418 0.004,-0.0111 0.34705,-0.21425 0.761,-0.45158 0.72619,-0.4163 0.75707,-0.43135 0.87713,-0.42728 0.12026,0.003 0.13058,-9.2e-4 0.30336,-0.14862 0.24755,-0.21148 0.48485,-0.48189 0.59856,-0.68204 0.0893,-0.15741 0.0959,-0.18358 0.0959,-0.39371 0,-0.2087 -0.0373,-0.36343 -0.14032,-0.58452 -0.0144,-0.0299 0.031,-0.0344 0.33579,-0.0342 0.19354,1.6e-4 0.37961,0.006 0.41347,0.0139 0.079,0.0174 0.0795,0.0727 0.006,0.474 -0.11228,0.60555 -0.29841,0.98438 -0.62407,1.27057 -0.2479,0.21787 -1.45118,0.89161 -1.7443,0.97665 -0.20524,0.0596 -0.47037,0.0698 -0.74467,0.0286 z"
       id="path3587" />
    <path
       style="fill:#2e4052;fill-opacity:1;stroke-width:0.024821"
       d="m 119.0495,198.46029 c -0.15556,-0.1896 -0.32161,-0.45633 -0.42379,-0.68073 -0.31196,-0.68518 -0.48706,-1.72617 -0.35881,-2.13322 0.16833,-0.53433 0.86644,-1.17633 1.79191,-1.64798 0.44648,-0.22755 1.88398,-0.77458 1.97122,-0.75013 0.0237,0.007 -1.23244,0.82351 -1.42242,0.92496 -0.1098,0.0586 -0.43137,0.41961 -0.54616,0.61318 -0.12026,0.2027 -0.1494,0.31384 -0.14768,0.56215 0.001,0.23109 0.11283,0.92781 0.1871,1.16978 0.13903,0.45443 0.37674,0.90604 0.61014,1.15939 l 0.13429,0.14572 -0.81115,0.40007 c -0.44614,0.22003 -0.82004,0.4001 -0.83084,0.40013 -0.011,4e-5 -0.0799,-0.0734 -0.15375,-0.16332 z"
       id="path3589" />
    <path
       style="fill:#2e4052;fill-opacity:1;stroke-width:0.024821"
       d="m 115.64433,195.97503 c -0.0414,-0.006 -0.0753,-0.0192 -0.0753,-0.0302 0,-0.0316 1.19476,-0.72638 1.41403,-0.82227 0.0698,-0.0304 0.17058,-0.0554 0.22403,-0.0554 0.0826,0 0.12081,-0.0199 0.25329,-0.13197 0.20808,-0.17598 0.47206,-0.47158 0.5951,-0.66638 l 0.10003,-0.15831 -0.003,-0.28137 c -0.001,-0.22226 -0.0146,-0.3119 -0.0605,-0.42671 -0.0319,-0.08 -0.0526,-0.14991 -0.046,-0.15547 0.018,-0.0148 0.69603,-0.006 0.72626,0.009 0.0619,0.0315 -0.0171,0.55781 -0.14018,0.93326 -0.0733,0.22342 -0.29567,0.59226 -0.43855,0.72741 -0.21027,0.19889 -1.21678,0.78405 -1.69818,0.98729 -0.16316,0.0689 -0.19394,0.074 -0.47551,0.0777 -0.16559,0.002 -0.33494,-9e-4 -0.37634,-0.007 z"
       id="path3591" />
    <path
       style="fill:#2e4052;fill-opacity:1;stroke-width:0.024821"
       d="m 115.63066,195.97527 c -0.0339,-0.006 -0.0615,-0.0198 -0.0615,-0.0305 0,-0.0111 0.18783,-0.12981 0.41739,-0.26438 0.94511,-0.55402 1.0629,-0.61317 1.22129,-0.61317 0.0838,0 0.11998,-0.019 0.2513,-0.13264 0.21508,-0.18587 0.44372,-0.44123 0.58026,-0.64801 l 0.11627,-0.176 -0.003,-0.28137 c -0.003,-0.21964 -0.0155,-0.31327 -0.0605,-0.42672 -0.0316,-0.0799 -0.052,-0.14989 -0.0451,-0.15546 0.0179,-0.0148 0.69601,-0.006 0.72623,0.009 0.0619,0.0315 -0.0171,0.5578 -0.14018,0.93324 -0.0732,0.22287 -0.29553,0.59217 -0.43757,0.7265 -0.20784,0.19656 -1.2204,0.78837 -1.67699,0.98013 -0.19007,0.0799 -0.20704,0.0827 -0.51135,0.0864 -0.17312,0.002 -0.34246,-0.001 -0.37633,-0.007 z"
       id="path3593" />
    <path
       style="fill:#2e4052;fill-opacity:1;stroke-width:0.024821"
       d="m 112.12737,189.941 c 0.0151,-0.0585 0.0691,-0.15103 0.11957,-0.20547 0.14076,-0.15154 0.23183,-0.32999 0.27683,-0.54205 0.09,-0.42382 -0.0921,-0.97948 -0.53505,-1.63331 -0.42269,-0.62395 -1.18245,-0.95666 -2.18449,-0.95666 -0.17934,0 -0.254,-0.007 -0.24134,-0.0243 0.01,-0.0134 -0.0209,-0.008 -0.0688,0.0127 -0.0583,0.0248 -0.11517,0.0319 -0.17213,0.0217 -0.0724,-0.0132 -0.0955,-0.006 -0.15538,0.0523 -0.0559,0.0536 -0.20313,0.11024 -0.71138,0.27271 -0.35255,0.11284 -0.64537,0.20145 -0.65072,0.19703 -0.0124,-0.009 0.84844,-0.47541 1.07278,-0.58034 0.27811,-0.13008 0.66145,-0.26673 0.88325,-0.31484 0.57869,-0.12554 1.40369,-0.0522 1.83516,0.16318 0.36607,0.18272 0.62693,0.3518 0.95084,0.61635 0.37026,0.30241 0.59729,0.53824 0.83464,0.86697 0.45478,0.6299 0.56657,0.93748 0.47641,1.31084 l -0.0455,0.18858 -0.83971,0.33058 c -0.46184,0.18182 -0.84708,0.33058 -0.85609,0.33058 -0.008,0 -0.004,-0.048 0.011,-0.10648 z"
       id="path3595" />
    <path
       style="fill:#2e4052;fill-opacity:1;stroke-width:0.024821"
       d="m 113.13316,185.5661 c -0.57069,-0.37754 -1.73061,-1.27484 -1.98428,-1.53503 -0.40907,-0.41957 -0.48329,-0.71723 -0.28664,-1.14943 0.10857,-0.23847 0.36559,-0.51991 0.79235,-0.86736 l 0.39748,-0.32364 0.81998,-0.26627 c 0.45099,-0.14645 0.82407,-0.26292 0.82908,-0.2588 0.005,0.004 -0.17919,0.11259 -0.40935,0.24101 -0.98118,0.54757 -1.35653,0.82286 -1.54141,1.13052 l -0.10526,0.17514 0.11241,0.37176 c 0.11022,0.36505 0.11517,0.37481 0.27035,0.54136 0.27801,0.2985 0.6769,0.6667 0.81553,0.75272 0.19051,0.11826 0.46822,0.18523 1.10207,0.26576 0.53415,0.0679 0.74975,0.11201 0.93781,0.192 0.0834,0.0355 0.086,0.0399 0.0387,0.0666 -0.21589,0.12074 -1.5414,0.80068 -1.55998,0.80019 -0.0124,-3.2e-4 -0.11585,-0.0617 -0.22883,-0.1364 z"
       id="path3597" />
    <path
       style="fill:#2e4052;fill-opacity:1;stroke-width:0.024821"
       d="m 106.55548,185.60612 c 0.38915,-0.26144 0.83408,-0.53388 0.85473,-0.52338 0.0267,0.0136 0.36875,-0.14401 0.34863,-0.16057 -0.007,-0.004 -0.0751,0.0226 -0.15276,0.0619 -0.0776,0.0393 -0.14703,0.0667 -0.15416,0.0608 -0.0278,-0.0228 0.43054,-0.2901 0.57604,-0.3359 0.26036,-0.0819 0.33827,-0.1755 0.84574,-1.01583 0.48447,-0.80225 0.61726,-1.06653 0.69099,-1.37516 0.0378,-0.15869 0.0413,-0.22093 0.0176,-0.32458 -0.0733,-0.32034 -0.26275,-0.56727 -0.43498,-0.5671 -0.1043,1.1e-4 -0.22362,0.0625 -0.35314,0.18504 l -0.1065,0.1005 -0.11379,-0.21598 c -0.0626,-0.1188 -0.45185,-0.76804 -0.86509,-1.44276 -0.66692,-1.08898 -1.04152,-1.75792 -1.0024,-1.79009 0.007,-0.006 0.47391,0.37993 1.03713,0.85746 0.72166,0.61186 1.03634,0.89399 1.06567,0.95546 0.10444,0.21892 0.24113,0.30182 0.69924,0.42421 0.49732,0.13287 0.65103,0.20824 0.78667,0.38581 0.0237,0.031 0.10802,0.23859 0.18737,0.46144 l 0.14438,0.40518 -9e-4,0.34891 c -0.001,0.41364 -0.0603,0.66033 -0.30212,1.25701 -0.1358,0.33523 -0.16517,0.38595 -0.33047,0.57115 -0.11531,0.12929 -0.25424,0.25089 -0.38153,0.33407 -0.18345,0.11991 -1.60482,0.83585 -2.08958,1.05254 -0.19343,0.0864 -0.95168,0.34176 -1.01503,0.34176 -0.0161,0 0.005,-0.0234 0.0482,-0.0521 z"
       id="path3599" />
    <path
       style="fill:#2e4052;fill-opacity:1;stroke-width:0.024821"
       d="m 117.96812,201.08437 c -0.0234,-0.0596 -0.068,-0.19959 -0.0992,-0.31102 -0.1376,-0.49173 -0.35016,-0.97111 -0.64374,-1.45182 -0.34276,-0.56123 -0.62183,-0.8863 -1.08462,-1.2635 l -0.32119,-0.26177 0.7712,-0.4044 c 0.42415,-0.22241 0.78668,-0.41166 0.8056,-0.42059 0.0798,-0.0375 0.68335,0.5152 1.03015,0.94335 0.52005,0.64201 0.88318,1.32785 1.13015,2.13454 0.0676,0.22073 0.11861,0.40403 0.11366,0.40737 -0.0246,0.0162 -1.5763,0.71002 -1.615,0.72224 -0.0345,0.0111 -0.0539,-0.0111 -0.087,-0.0944 z"
       id="path3601" />
    <path
       style="fill:#2e4052;fill-opacity:1;stroke-width:0.024821"
       d="m 117.85362,193.00518 c -0.23337,-0.2936 -0.71704,-0.62336 -1.07921,-0.7358 -0.0455,-0.0143 -0.0831,-0.0313 -0.0831,-0.0379 0,-0.0302 1.5375,-0.76601 1.56811,-0.75044 0.0144,0.007 0.0919,0.12586 0.17226,0.26346 0.21212,0.3632 0.30999,0.70066 0.355,1.22371 l 0.0179,0.20823 h -0.40744 -0.40743 z"
       id="path3603" />
    <path
       style="fill:#2e4052;fill-opacity:1;stroke-width:0.024821"
       d="m 115.63066,195.97527 c -0.0339,-0.006 -0.0615,-0.019 -0.0615,-0.0291 0,-0.0234 0.17119,-0.12845 0.78005,-0.47853 0.55497,-0.31907 0.72571,-0.40051 0.83979,-0.40051 0.11283,0 0.18783,-0.0479 0.4005,-0.25546 0.21187,-0.20691 0.37074,-0.39524 0.48705,-0.57739 0.0757,-0.11849 0.079,-0.13589 0.0757,-0.40517 -0.003,-0.21804 -0.0164,-0.3141 -0.0606,-0.42671 -0.0315,-0.08 -0.0516,-0.14991 -0.0448,-0.15547 0.018,-0.0148 0.69604,-0.006 0.72626,0.009 0.0616,0.0313 -0.0198,0.57725 -0.13917,0.93327 -0.075,0.2233 -0.29748,0.59304 -0.43574,0.72372 -0.21002,0.19854 -1.19167,0.77444 -1.6714,0.98053 -0.19411,0.0835 -0.20539,0.0855 -0.51649,0.0889 -0.17494,0.002 -0.34575,-0.001 -0.37963,-0.007 z"
       id="path3605" />
    <path
       style="fill:#2e4052;fill-opacity:1;stroke-width:0.00620526"
       d="m 115.83598,196.00277 c -0.1419,-0.0117 -0.28283,-0.0358 -0.30457,-0.053 -0.01,-0.008 0.0482,-0.0449 0.36078,-0.22823 0.55341,-0.3247 1.00683,-0.57856 1.11052,-0.62174 l 0.0665,-0.0276 0.0908,-0.003 c 0.0574,-0.002 0.0999,-0.007 0.11531,-0.0125 0.0383,-0.0136 0.11173,-0.0688 0.22016,-0.1657 0.26259,-0.23475 0.4671,-0.47404 0.58197,-0.68091 0.0733,-0.13219 0.0835,-0.18414 0.0766,-0.39017 -0.007,-0.21457 -0.0268,-0.30851 -0.10155,-0.4852 -0.0314,-0.0742 -0.0358,-0.0894 -0.0279,-0.095 0.0173,-0.0118 0.1861,-0.0175 0.40979,-0.014 0.23555,0.003 0.329,0.01 0.35158,0.0209 0.0358,0.0184 0.0424,0.0731 0.0246,0.19891 -0.0738,0.51937 -0.19837,0.91575 -0.37389,1.19018 -0.11255,0.17601 -0.25451,0.32293 -0.42659,0.44163 -0.24445,0.1686 -0.71677,0.444 -1.11492,0.6501 -0.44825,0.23202 -0.57591,0.27225 -0.88302,0.27832 -0.064,0.001 -0.14335,1.3e-4 -0.17633,-0.002 z"
       id="path3607" />
    <path
       style="fill:#2e4052;fill-opacity:1;stroke-width:0.00620526"
       d=""
       id="path3609" />
    <path
       style="fill:#2e4052;fill-opacity:1;stroke-width:0.00620526"
       d="m 115.83121,196.00244 c -0.0872,-0.007 -0.21567,-0.0252 -0.2572,-0.0366 -0.0612,-0.0168 -0.0608,-0.0174 0.0361,-0.0767 0.1237,-0.0759 0.32349,-0.19302 0.59728,-0.35072 0.53918,-0.31057 0.70749,-0.40313 0.80595,-0.44325 0.0563,-0.0229 0.0594,-0.0236 0.14905,-0.0273 0.11943,-0.004 0.13222,-0.0111 0.235,-0.0945 0.20391,-0.16739 0.39134,-0.35929 0.54329,-0.55624 0.057,-0.0739 0.16192,-0.24708 0.18611,-0.30715 0.0272,-0.0679 0.0336,-0.15013 0.0251,-0.32854 -0.01,-0.20134 -0.0304,-0.29109 -0.10939,-0.47255 -0.0231,-0.0532 -0.0259,-0.0639 -0.0178,-0.0696 0.0179,-0.0123 0.17385,-0.0176 0.40322,-0.0141 0.24189,0.003 0.33556,0.01 0.35862,0.021 0.008,0.004 0.0195,0.0182 0.0257,0.0316 0.019,0.041 0.005,0.15665 -0.0491,0.44576 -0.11421,0.59728 -0.30314,0.97873 -0.61934,1.25111 -0.0378,0.0327 -0.11117,0.0877 -0.16268,0.12253 -0.32454,0.21866 -0.97595,0.58642 -1.34253,0.7579 -0.244,0.11423 -0.3728,0.14519 -0.62266,0.15012 -0.0658,0.001 -0.14889,5e-5 -0.18453,-0.002 z"
       id="path3611" />
    <path
       style="fill:#2e4052;fill-opacity:1;stroke-width:0.00620526"
       d=""
       id="path3613" />
    <path
       style="fill:#2e4052;fill-opacity:1;stroke-width:0.00620526"
       d="m 115.87199,196.00426 c -0.13746,-0.007 -0.30609,-0.0329 -0.33837,-0.0523 -0.0124,-0.007 -0.004,-0.013 0.10608,-0.0807 0.30464,-0.18589 1.09777,-0.64025 1.2709,-0.72806 0.12893,-0.0653 0.15421,-0.0729 0.26508,-0.0781 0.0867,-0.003 0.0927,-0.004 0.12535,-0.0223 0.0189,-0.0111 0.0815,-0.0579 0.13917,-0.1067 0.31711,-0.26759 0.59107,-0.59781 0.68382,-0.82422 0.029,-0.0708 0.0352,-0.14871 0.0267,-0.32904 -0.01,-0.19964 -0.0259,-0.27401 -0.0987,-0.44799 l -0.037,-0.0883 0.0176,-0.009 c 0.0154,-0.008 0.0453,-0.01 0.24038,-0.0117 0.27651,-0.002 0.47842,0.006 0.50925,0.0203 0.0493,0.0236 0.0498,0.0917 0.004,0.35294 -0.11765,0.66631 -0.2795,1.02984 -0.59184,1.33028 -0.0926,0.089 -0.20081,0.16596 -0.44428,0.31578 -0.42643,0.26242 -1.00989,0.57531 -1.259,0.67518 -0.12701,0.051 -0.24409,0.0745 -0.4186,0.0842 -0.0557,0.003 -0.10457,0.006 -0.10829,0.004 -0.004,-3.1e-4 -0.0453,-0.002 -0.0925,-0.004 z"
       id="path3615" />
    <path
       style="fill:#2e4052;fill-opacity:1;stroke-width:0.00620526"
       d="m 115.86863,196.00426 c -0.13931,-0.007 -0.30267,-0.0329 -0.33433,-0.0519 -0.011,-0.007 -0.01,-0.009 0.0172,-0.0271 0.0799,-0.053 0.52216,-0.31203 0.92266,-0.54035 0.37289,-0.21259 0.50271,-0.28115 0.57547,-0.30387 0.0255,-0.008 0.0633,-0.0128 0.12246,-0.0158 0.0597,-0.003 0.094,-0.007 0.11283,-0.0147 0.0332,-0.0126 0.21181,-0.15816 0.31059,-0.25309 0.19891,-0.19116 0.36178,-0.38702 0.45843,-0.55127 0.0923,-0.15691 0.0981,-0.17899 0.0976,-0.36961 -7.5e-4,-0.24224 -0.0179,-0.33955 -0.0932,-0.52433 l -0.0431,-0.10592 0.0176,-0.009 c 0.0153,-0.008 0.0457,-0.01 0.24027,-0.0117 0.27651,-0.002 0.47841,0.006 0.50924,0.0203 0.04,0.0191 0.0466,0.0684 0.0278,0.2038 -0.0124,0.0877 -0.0519,0.30637 -0.072,0.39673 -0.1358,0.61277 -0.36299,0.98766 -0.7592,1.25285 -0.42898,0.28712 -1.26694,0.7448 -1.53812,0.8401 -0.14976,0.0525 -0.35933,0.0764 -0.57276,0.0649 z"
       id="path3617" />
    <path
       style="fill:#2e4052;fill-opacity:1;stroke-width:0.00620526"
       d="m 115.87203,196.0045 c -0.17878,-0.009 -0.36018,-0.0425 -0.34543,-0.0619 0.022,-0.0294 1.20889,-0.71358 1.41084,-0.81334 0.10237,-0.0505 0.13167,-0.0585 0.23506,-0.0641 0.0681,-0.003 0.093,-0.007 0.11668,-0.0171 0.0354,-0.0148 0.20431,-0.15263 0.3031,-0.2474 0.19716,-0.1891 0.34633,-0.36696 0.44975,-0.53622 0.10677,-0.17482 0.11145,-0.19342 0.10663,-0.43384 -0.004,-0.23718 -0.0176,-0.30333 -0.097,-0.49465 l -0.037,-0.0888 0.018,-0.009 c 0.0158,-0.008 0.0447,-0.01 0.25024,-0.0117 0.27888,-0.002 0.46842,0.006 0.49982,0.0205 0.0323,0.0155 0.0404,0.0423 0.0358,0.11929 -0.01,0.16124 -0.0844,0.53341 -0.15223,0.75688 -0.13989,0.46011 -0.35704,0.76109 -0.72119,0.9995 -0.44823,0.29347 -1.22855,0.71894 -1.4945,0.81484 -0.15062,0.0543 -0.3661,0.0797 -0.57875,0.0679 z"
       id="path3619" />
    <path
       style="fill:#2e4052;fill-opacity:1;stroke-width:0.00620526"
       d="m 115.86178,196.0044 c -0.13333,-0.007 -0.27406,-0.029 -0.32106,-0.049 l -0.0206,-0.008 0.0237,-0.0165 c 0.12769,-0.089 1.18842,-0.69873 1.39409,-0.80147 0.0988,-0.0493 0.13113,-0.0581 0.23469,-0.0638 0.0594,-0.003 0.0938,-0.008 0.10966,-0.0146 0.0751,-0.0317 0.30131,-0.2316 0.47433,-0.41896 0.13292,-0.14388 0.2265,-0.26704 0.30511,-0.40134 0.0874,-0.1492 0.0918,-0.17019 0.0867,-0.40338 -0.004,-0.18242 -0.011,-0.24469 -0.0427,-0.34497 -0.0144,-0.0436 -0.0673,-0.18258 -0.09,-0.23224 -10e-4,-0.003 0.006,-0.01 0.0162,-0.0138 0.0257,-0.0111 0.43563,-0.0145 0.6063,-0.006 0.14163,0.007 0.15949,0.012 0.17471,0.0487 0.0283,0.0679 -0.0527,0.53339 -0.14665,0.84382 -0.13691,0.45215 -0.35423,0.75654 -0.70766,0.99099 -0.44837,0.29747 -1.28588,0.75134 -1.53954,0.83432 -0.14206,0.0465 -0.35545,0.0683 -0.55765,0.057 z"
       id="path3621" />
    <path
       style="fill:#2e4052;fill-opacity:1;stroke-width:0.00620526"
       d="m 118.03475,193.33105 c -0.008,-0.0199 -0.0308,-0.0624 -0.0493,-0.0946 -0.0183,-0.0322 -0.0334,-0.0587 -0.0334,-0.0592 0,-3.1e-4 0.1946,9e-5 0.43245,9e-4 0.3341,0.001 0.43366,0.003 0.43782,0.008 0.003,0.003 0.005,0.0297 0.005,0.0576 l -2.1e-4,0.0506 -0.01,-0.0225 c -0.006,-0.0125 -0.01,-0.0228 -0.01,-0.0232 -5e-5,-2.9e-4 -0.011,-0.004 -0.0238,-0.0111 -0.0318,-0.0125 -0.20773,-0.0199 -0.46552,-0.0199 -0.20735,5e-5 -0.28615,0.004 -0.30214,0.0178 -0.008,0.007 -0.006,0.016 0.0149,0.0631 0.0144,0.0304 0.0233,0.0579 0.0219,0.0611 -10e-4,0.003 -0.01,-0.0111 -0.018,-0.0303 z"
       id="path3623" />
    <path
       style="fill:#2e4052;fill-opacity:1;stroke-width:0.00620526"
       d="m 117.9251,193.11164 c -0.055,-0.0824 -0.10967,-0.14858 -0.19163,-0.23209 -0.18389,-0.18768 -0.34629,-0.31022 -0.55517,-0.41889 -0.22576,-0.11741 -0.41596,-0.19592 -0.51475,-0.21242 -0.011,-0.002 -0.018,-0.006 -0.0168,-0.009 0.001,-0.003 0.0316,-0.0214 0.0671,-0.0399 0.2298,-0.1192 1.22914,-0.60672 1.46029,-0.71239 l 0.0751,-0.0343 0.0149,0.0127 c 0.0355,0.0302 0.17721,0.25425 0.25897,0.40939 0.14161,0.26875 0.23896,0.63586 0.2634,0.99324 0.01,0.13369 0.0193,0.23291 0.0279,0.27256 0.004,0.0169 0.007,0.0314 0.007,0.0323 0,9.1e-4 -0.19222,0.002 -0.42717,0.002 h -0.42716 z"
       id="path3625" />
    <path
       style="fill:#2e4052;stroke-width:0.0702044"
       d="m 118.45159,204.27579 c -0.76905,-0.13573 -1.76997,-0.40419 -2.24982,-0.60341 -1.69246,-0.70264 -3.60482,-2.182 -4.92279,-3.80814 -0.64238,-0.7926 -1.4086,-2.07762 -1.8091,-3.03405 -0.32229,-0.76962 -0.34635,-0.87231 -0.34324,-1.46435 0.007,-1.35627 0.80024,-2.85509 2.16522,-4.09187 0.73638,-0.66721 1.63012,-1.15865 4.14062,-2.27683 1.19159,-0.53073 1.3434,-0.62466 1.90932,-1.18131 0.61604,-0.60598 1.06111,-1.29323 1.37768,-2.12736 0.43773,-1.15341 0.5319,-1.66396 0.48145,-2.61034 -0.0639,-1.1975 -0.42036,-2.20895 -1.32406,-3.75635 -0.79885,-1.36795 -1.54516,-2.26823 -2.7049,-3.26294 l -0.61239,-0.52525 h 1.08395 1.08393 l 0.13691,0.30241 c 0.35503,0.78424 0.84145,1.44821 1.38885,1.89577 0.30094,0.24604 0.65643,0.48456 0.78999,0.53006 0.20846,0.071 0.29266,0.17897 0.59444,0.76234 0.56512,1.09238 0.67111,1.33715 0.91419,2.11114 0.33788,1.07582 0.36622,1.74281 0.11654,2.73866 -0.45094,1.7976 -1.0583,2.81625 -2.26349,3.79615 -0.69155,0.56227 -1.54035,1.02616 -2.89484,1.58208 -0.5748,0.23591 -1.15599,0.49752 -1.29153,0.58136 -0.13553,0.0838 -0.30438,0.15244 -0.37523,0.15244 -0.0709,0 -0.37437,0.19338 -0.67453,0.42975 -1.57034,1.23667 -2.53749,2.90344 -2.53462,4.36817 9.9e-4,0.50899 0.0402,0.67771 0.31257,1.34594 0.81351,1.99567 2.13194,3.71386 3.96257,5.16395 1.53617,1.21689 3.1817,1.92366 4.97529,2.13694 l 0.65095,0.0775 -0.7129,0.4311 c -0.39206,0.23712 -0.7477,0.42982 -0.79028,0.42825 -0.0427,-0.001 -0.30385,-0.0429 -0.5806,-0.0917 z"
       id="path868" />
    <path
       style="fill:#2e4052;stroke-width:0.0702044"
       d="m 113.89151,174.8373 c -0.30205,-0.34796 -0.5492,-0.65107 -0.5492,-0.6736 0,-0.0224 0.19944,0.10515 0.44321,0.28391 0.50435,0.36971 1.10972,0.64031 1.43241,0.64031 0.35842,0 0.73535,-0.16616 0.92607,-0.40824 0.0982,-0.12476 0.19659,-0.22721 0.21844,-0.22766 0.0217,-4e-4 0.11131,0.22842 0.19881,0.50856 l 0.1591,0.50933 h -1.13983 -1.13983 z"
       id="path870" />
    <path
       style="fill:#2e4052;stroke-width:0.00877557"
       d="m 113.45776,174.38342 c -0.53929,-0.6172 -0.97873,-1.12364 -0.97654,-1.12543 0.003,-0.002 0.0695,0.0638 0.14957,0.14594 0.31158,0.31925 0.5673,0.55507 0.87168,0.80377 0.11929,0.0974 0.21425,0.17708 0.21124,0.17708 -0.003,0 -0.0607,-0.0379 -0.12811,-0.0844 -0.13195,-0.0909 -0.23861,-0.15193 -0.24369,-0.13941 -0.011,0.0262 0.22468,0.31099 0.88351,1.06942 l 0.21258,0.2447 h 1.14501 c 1.08593,0 1.14476,-7.3e-4 1.14004,-0.014 -0.003,-0.008 -0.0447,-0.14106 -0.0931,-0.29644 -0.1604,-0.51376 -0.23679,-0.71625 -0.27013,-0.71625 -0.0164,0 -0.0938,0.0781 -0.18841,0.18941 -0.0923,0.1088 -0.20033,0.20637 -0.2845,0.25702 -0.0645,0.0389 -0.0576,0.0223 0.008,-0.0214 0.15847,-0.10404 0.34546,-0.3308 0.45389,-0.5504 0.0177,-0.036 0.0348,-0.0656 0.0378,-0.0656 0.003,2e-5 0.0202,0.0636 0.0381,0.14126 0.0403,0.17306 0.1098,0.42103 0.17048,0.60678 0.0392,0.12028 0.15053,0.43294 0.16558,0.4652 0.004,0.01 -0.17316,0.0117 -1.14565,0.0136 -0.85806,0.002 -1.1542,0.004 -1.16434,0.0121 -0.011,0.008 -0.18821,-0.19055 -0.9941,-1.11289 z"
       id="path872" />
    <path
       style="fill:#2e4052;stroke-width:0.00877557"
       d="m 118.71539,181.04395 c -0.25778,-0.607 -0.47282,-1.03393 -0.84823,-1.68404 -0.52621,-0.91132 -0.89051,-1.4232 -1.46691,-2.06131 -0.55607,-0.61558 -1.12613,-1.14642 -1.64226,-1.52929 -0.12673,-0.094 -0.30517,-0.24755 -0.30517,-0.2626 0,-0.0117 0.36436,-0.0157 1.31515,-0.0157 l 0.99272,7e-5 0.0614,0.15711 c 0.19559,0.50021 0.5522,1.10614 0.91445,1.55381 0.2043,0.25249 0.40405,0.44139 0.68367,0.64653 0.29766,0.21839 0.54525,0.35567 0.77179,0.42785 l 0.0921,0.0293 0.17812,0.31715 c 0.41994,0.74778 0.67289,1.26216 0.89802,1.82615 0.0589,0.14749 0.21795,0.58667 0.21795,0.60168 0,0.001 -0.41817,0.003 -0.92926,0.003 -0.73472,0 -0.93016,-0.002 -0.93349,-0.009 z"
       id="path874" />
    <path
       style="fill:#2e4052;stroke-width:0.0021939"
       d="m 115.15155,175.08356 c -0.34057,-0.0357 -0.88088,-0.28639 -1.35098,-0.62686 -0.0253,-0.0182 -0.0692,-0.05 -0.0973,-0.0701 -0.0534,-0.0384 -0.0669,-0.0503 -0.0256,-0.0228 0.0539,0.0358 0.0497,0.0292 -0.0187,-0.0282 -0.0307,-0.0258 -0.0552,-0.047 -0.0541,-0.047 9.1e-4,0 0.0187,0.0134 0.0396,0.0295 0.0477,0.0374 0.1142,0.087 0.17068,0.12762 0.50484,0.36308 0.94684,0.56362 1.33321,0.60487 0.0905,0.009 0.18613,0.009 0.27153,-1.4e-4 0.14924,-0.017 0.29139,-0.065 0.41608,-0.14052 0.01,-0.006 0.0182,-0.0111 0.019,-0.0111 7.2e-4,0 -10e-4,0.003 -0.006,0.007 -0.0124,0.0118 -0.008,0.0144 0.01,0.006 0.006,-0.002 0.011,-0.004 0.011,-0.003 7.3e-4,5.1e-4 -0.0144,0.009 -0.0336,0.0197 -0.15608,0.0839 -0.32455,0.13524 -0.50521,0.15376 -0.0418,0.004 -0.14602,0.006 -0.17922,0.002 z"
       id="path876" />
    <path
       style="fill:#2e4052;stroke-width:0.0021939"
       d="m 114.43672,175.47226 c -7.5e-4,-0.001 -10e-4,-0.002 -7.5e-4,-0.002 3.9e-4,-1.9e-4 0.48964,8e-5 1.08705,6.3e-4 0.72342,6.7e-4 1.02527,0.001 0.90377,0.002 -0.2947,0.002 -1.98819,0.002 -1.99006,-6.3e-4 z"
       id="path878" />
    <path
       style="fill:#2e4052;stroke-width:0.0021939"
       d="m 114.74947,175.78512 -0.18084,-0.12471 -0.27844,-0.31895 c -0.15316,-0.17543 -0.27794,-0.31939 -0.27728,-0.31993 6.4e-4,-5.4e-4 0.0238,0.0248 0.0516,0.0563 0.22151,0.25185 0.35648,0.39997 0.37796,0.41485 0.005,0.003 0.007,0.006 0.004,0.007 -0.006,0.004 0.0151,0.0313 0.0597,0.0741 0.0307,0.0295 0.1746,0.14797 0.23702,0.19516 0.0266,0.0201 0.079,0.0586 0.11627,0.0856 0.0669,0.0483 0.0764,0.0556 0.0722,0.0554 -10e-4,-7e-5 -0.0834,-0.0562 -0.18296,-0.12486 z"
       id="path880" />
    <path
       style="fill:#2e4052;stroke-width:0.0021939"
       d=""
       id="path882" />
    <path
       style="fill:#2e4052;stroke-width:0.0021939"
       d=""
       id="path884" />
    <path
       style="fill:#2e4052;stroke-width:0.0021939"
       d="m 115.93065,176.80883 c -0.0314,-0.0324 -0.19664,-0.19496 -0.26241,-0.25803 -0.2314,-0.22193 -0.4099,-0.38223 -0.59382,-0.53328 -0.0965,-0.0792 -0.13498,-0.10902 -0.22394,-0.17326 -0.16612,-0.11996 -0.3119,-0.23882 -0.37434,-0.30516 -0.0157,-0.0167 -0.03,-0.0364 -0.0277,-0.038 0.005,-0.004 0.17667,-0.01 0.49167,-0.0136 0.0255,-3.3e-4 -0.0369,-2.9e-4 -0.13787,10e-5 -0.18475,7e-4 -0.32585,0.003 -0.34282,0.007 -0.008,0.001 -0.01,0.001 -0.0235,-0.0111 -0.0413,-0.0363 -0.19233,-0.20473 -0.57432,-0.64039 -0.25612,-0.29212 -0.53861,-0.61563 -0.53861,-0.61685 0,-5.2e-4 0.0124,-9.4e-4 0.0263,-9.4e-4 h 0.0263 l 0.0261,0.0343 c 0.10457,0.13729 0.32247,0.39466 0.83332,0.98395 l 0.202,0.23301 h 0.90959 c 0.84243,0 1.29877,-0.002 1.34021,-0.006 0.01,-8.5e-4 -0.49209,-0.001 -1.11423,-0.002 l -1.13119,-3e-4 -0.30687,-0.35366 c -0.3869,-0.4459 -0.39159,-0.45135 -0.51555,-0.59935 -0.0985,-0.11756 -0.22748,-0.27733 -0.23229,-0.28766 -0.001,-0.002 0.004,-0.002 0.0373,-0.002 h 0.0385 l 0.0451,0.0296 c 0.0764,0.0503 0.15653,0.10625 0.26534,0.18522 0.14104,0.10238 0.2542,0.17698 0.38826,0.25594 0.23234,0.1368 0.47894,0.25189 0.68463,0.31953 0.11654,0.0383 0.21955,0.0617 0.30864,0.0703 0.0576,0.006 0.1518,0.002 0.2272,-0.008 0.25824,-0.0347 0.51089,-0.14874 0.67982,-0.30702 0.0341,-0.0319 0.059,-0.0595 0.10416,-0.11506 0.0933,-0.11506 0.17763,-0.20194 0.19603,-0.20194 0.01,0 0.0297,0.0376 0.0629,0.11938 0.0549,0.13498 0.0839,0.22136 0.21409,0.63865 0.0436,0.13953 0.0795,0.25408 0.0801,0.25453 3.8e-4,4.9e-4 0.003,-1.7e-4 0.004,-10e-4 0.003,-0.001 7.4e-4,-0.009 -0.006,-0.0297 -0.004,-0.0152 -0.0305,-0.0972 -0.0574,-0.18262 -0.0943,-0.30063 -0.12961,-0.41029 -0.16962,-0.52525 -0.0677,-0.19504 -0.10664,-0.27954 -0.12907,-0.27954 -0.0167,0 -0.0839,0.0667 -0.1826,0.18107 -0.11379,0.13171 -0.21798,0.22454 -0.30916,0.27532 -0.011,0.006 -0.0213,0.0117 -0.0229,0.0117 -0.004,0 0.0168,-0.017 0.0527,-0.0417 0.089,-0.0613 0.16856,-0.13756 0.25523,-0.24476 0.0521,-0.0643 0.0914,-0.12028 0.13429,-0.19111 0.0274,-0.0452 0.038,-0.0644 0.0678,-0.12236 0.0208,-0.0406 0.0299,-0.0556 0.0326,-0.0534 0.003,0.002 0.0184,0.0609 0.0376,0.14001 0.0484,0.20087 0.10815,0.41397 0.16561,0.59091 0.0319,0.0983 0.11971,0.34751 0.15712,0.44662 0.007,0.0174 0.011,0.032 0.011,0.0322 -3.3e-4,2.5e-4 -0.01,0.001 -0.0223,0.002 -0.0407,0.003 -0.26249,0.006 -0.67569,0.008 l -0.4128,0.001 0.557,3.5e-4 c 0.30636,1.8e-4 0.55701,7.3e-4 0.55701,0.001 0,0.002 0.0666,0.17576 0.085,0.22095 0.13305,0.32589 0.34148,0.71003 0.57724,1.06443 0.0153,0.0229 0.03,0.0448 0.0326,0.0483 l 0.004,0.007 -0.75802,-1.1e-4 -0.758,-1.2e-4 -0.0157,-0.0164 z m -0.69629,-1.32401 c -0.0363,-3.1e-4 -0.0951,-3.1e-4 -0.13058,0 -0.0355,3.1e-4 -0.005,5.7e-4 0.0661,5.7e-4 0.072,0 0.10085,-2.4e-4 0.0645,-5.7e-4 z"
       id="path886" />
    <path
       style="fill:#2e4052;stroke-width:0.0021939"
       d="m 114.40819,175.43923 c -8.8e-4,-7.3e-4 -0.001,-0.002 -0.001,-0.003 0,-0.001 0.001,-0.001 0.003,2.9e-4 0.001,0.001 0.003,0.002 0.001,0.003 -7.5e-4,5.7e-4 -0.001,4.1e-4 -0.003,-3e-4 z"
       id="path888" />
    <path
       style="fill:#2e4052;stroke-width:0.0021939"
       d=""
       id="path890" />
    <path
       style="fill:#2e4052;stroke-width:0.0021939"
       d="m 115.92461,176.80293 c -0.0325,-0.0332 -0.17321,-0.17198 -0.22918,-0.22592 -0.23588,-0.2272 -0.42986,-0.40209 -0.61512,-0.55458 -0.10031,-0.0826 -0.12645,-0.10283 -0.21897,-0.17002 -0.18825,-0.13667 -0.33403,-0.25576 -0.39098,-0.31941 -0.0124,-0.0138 -0.0238,-0.0304 -0.0221,-0.0319 0.004,-0.003 0.12411,-0.008 0.3429,-0.0118 l 0.14879,-0.002 -0.16087,9.4e-4 c -0.16773,9.7e-4 -0.29929,0.003 -0.31781,0.007 l -0.011,0.001 -0.0124,-0.0117 c -0.0444,-0.0376 -0.23922,-0.25634 -0.84079,-0.94427 -0.20524,-0.2347 -0.27373,-0.31335 -0.27373,-0.31446 0,-5.7e-4 0.0124,-7.5e-4 0.027,-4.5e-4 l 0.027,5.7e-4 0.0193,0.0259 c 0.0245,0.0331 0.13181,0.16572 0.19551,0.24174 0.11819,0.14118 0.31656,0.37239 0.58267,0.67934 0.0874,0.10073 0.18215,0.21019 0.21072,0.24325 l 0.052,0.06 0.90719,2e-5 c 0.92128,2e-5 1.32531,-0.001 1.33016,-0.006 0.001,-0.001 -0.32626,-0.002 -1.11536,-0.002 h -1.11788 l -0.26201,-0.30195 c -0.38388,-0.44228 -0.43651,-0.50344 -0.55367,-0.64314 -0.0944,-0.1127 -0.23384,-0.28512 -0.23856,-0.29527 -0.001,-0.002 0.003,-0.003 0.0374,-0.003 h 0.0387 l 0.0527,0.0349 c 0.0713,0.0472 0.12411,0.0839 0.22698,0.15814 0.11062,0.0798 0.15742,0.11247 0.22454,0.15666 0.39395,0.2597 0.82548,0.45318 1.11953,0.50197 0.0603,0.0111 0.0955,0.0126 0.15723,0.0117 0.0557,-0.001 0.0949,-0.004 0.14638,-0.0117 0.22724,-0.0318 0.45053,-0.12524 0.61531,-0.25749 0.0611,-0.049 0.0933,-0.0819 0.16041,-0.16387 0.0786,-0.0959 0.12728,-0.14901 0.16789,-0.18289 0.0144,-0.0118 0.0238,-0.0185 0.0271,-0.0185 0.004,0 0.007,0.002 0.011,0.008 0.0221,0.0312 0.0658,0.13744 0.11861,0.28889 0.0366,0.1047 0.055,0.16283 0.20487,0.64363 0.0124,0.0389 0.0224,0.071 0.023,0.0714 3.7e-4,4.9e-4 0.003,-1.5e-4 0.004,-0.001 0.003,-0.001 -0.001,-0.0168 -0.0156,-0.0605 -0.01,-0.0321 -0.0392,-0.12452 -0.0647,-0.2055 -0.14394,-0.4584 -0.2083,-0.64214 -0.25155,-0.71864 -0.0182,-0.0322 -0.0271,-0.0374 -0.0447,-0.0256 -0.0266,0.018 -0.0907,0.0846 -0.17269,0.17968 -0.10788,0.12498 -0.21511,0.22003 -0.30465,0.26989 -0.011,0.006 -0.0213,0.0117 -0.0229,0.0117 -0.004,0 0.0164,-0.0168 0.0491,-0.0392 0.0923,-0.0637 0.16779,-0.13562 0.25529,-0.2433 0.0779,-0.0959 0.13945,-0.18982 0.19573,-0.29843 0.0307,-0.0594 0.0396,-0.0748 0.0422,-0.0724 0.003,0.002 0.0124,0.0399 0.0413,0.15493 0.0495,0.20231 0.10567,0.40238 0.16082,0.57201 0.033,0.10161 0.12178,0.35461 0.15941,0.45358 0.005,0.0158 0.011,0.0291 0.01,0.0293 -0.007,0.006 -0.20832,0.008 -0.6644,0.0111 l -0.3786,0.001 0.52314,3.2e-4 c 0.28774,1.9e-4 0.52315,7.3e-4 0.52315,0.001 0,0.002 0.0663,0.17499 0.0839,0.21799 0.12164,0.29842 0.30747,0.64787 0.51806,0.9749 0.0339,0.0529 0.0848,0.12961 0.093,0.14076 l 0.004,0.007 -0.75799,-3e-5 -0.75802,-4e-5 -0.0217,-0.0222 z m -0.71911,-1.31811 c -0.0204,-3.3e-4 -0.0534,-3.3e-4 -0.0738,0 -0.0202,3.4e-4 -0.004,6.1e-4 0.037,6.1e-4 0.0406,0 0.0572,-2.7e-4 0.037,-6.1e-4 z"
       id="path892" />
    <rect
       style="fill:#2e4052;fill-opacity:0;stroke-width:0.310359"
       id="rect880"
       width="76.347061"
       height="92.896706"
       x="77.552086"
       y="172.49455" />
  </g>
</svg>
