<?xml version="1.0" encoding="UTF-8" standalone="no"?>
<svg
   xmlns:dc="http://purl.org/dc/elements/1.1/"
   xmlns:cc="http://creativecommons.org/ns#"
   xmlns:rdf="http://www.w3.org/1999/02/22-rdf-syntax-ns#"
   xmlns:svg="http://www.w3.org/2000/svg"
   xmlns="http://www.w3.org/2000/svg"
   xmlns:sodipodi="http://sodipodi.sourceforge.net/DTD/sodipodi-0.dtd"
   xmlns:inkscape="http://www.inkscape.org/namespaces/inkscape"
   id="light"
   enable-background="new 0 0 24 24"
   height="512"
   viewBox="0 0 24 24"
   width="512"
   version="1.1"
   sodipodi:docname="square.svg"
   inkscape:version="1.0.2-2 (e86c870879, 2021-01-15)">
  <metadata
     id="metadata23">
    <rdf:RDF>
      <cc:Work
         rdf:about="">
        <dc:format>image/svg+xml</dc:format>
        <dc:type
           rdf:resource="http://purl.org/dc/dcmitype/StillImage" />
      </cc:Work>
    </rdf:RDF>
  </metadata>
  <defs
     id="defs21" />
  <sodipodi:namedview
     pagecolor="#ffffff"
     bordercolor="#666666"
     borderopacity="1"
     objecttolerance="10"
     gridtolerance="10"
     guidetolerance="10"
     inkscape:pageopacity="0"
     inkscape:pageshadow="2"
     inkscape:window-width="1920"
     inkscape:window-height="1001"
     id="namedview19"
     showgrid="false"
     inkscape:zoom="0.70710678"
     inkscape:cx="405.05206"
     inkscape:cy="387.1127"
     inkscape:window-x="-9"
     inkscape:window-y="-9"
     inkscape:window-maximized="1"
     inkscape:current-layer="light"
     inkscape:document-rotation="0" />
  <g
     id="g8">
    <path
       d="m16.5 8h-9c-.276 0-.5-.224-.5-.5s.224-.5.5-.5h9c.276 0 .5.224.5.5s-.224.5-.5.5z"
       id="path6" />
  </g>
  <g
     id="g12">
    <path
       d="m16.5 12.5h-9c-.276 0-.5-.224-.5-.5s.224-.5.5-.5h9c.276 0 .5.224.5.5s-.224.5-.5.5z"
       id="path10" />
  </g>
  <g
     id="g16">
    <path
       d="m16.5 17h-9c-.276 0-.5-.224-.5-.5s.224-.5.5-.5h9c.276 0 .5.224.5.5s-.224.5-.5.5z"
       id="path14" />
  </g>
  <path
     style="fill:#2e4052;stroke-width:0.616867"
     d="m 155.76041,169.2867 c -4.1592,-2.17562 -5.86161,-4.9046 -5.86161,-9.39617 0,-3.51515 1.64319,-6.40336 4.88662,-8.5891 l 2.08137,-1.40263 H 256 355.13321 l 2.08137,1.40263 c 3.24343,2.18574 4.88662,5.07395 4.88662,8.5891 0,3.72348 -1.16242,6.07598 -4.11512,8.32818 l -2.26581,1.72828 -99.05532,0.15351 c -88.95653,0.13786 -99.24384,0.0549 -100.90454,-0.8138 z"
     id="path850"
     transform="scale(0.046875)" />
  <path
     style="fill:#2e4052;stroke-width:0.616867"
     d="m 155.5988,265.18508 c -3.99623,-1.97809 -5.39157,-4.3552 -5.39157,-9.18508 0,-4.84951 1.42242,-7.25401 5.44244,-9.20007 l 2.65792,-1.28668 H 256 353.69241 l 2.65792,1.28668 c 4.02002,1.94606 5.44244,4.35056 5.44244,9.20007 0,4.84951 -1.42242,7.25401 -5.44244,9.20007 l -2.65792,1.28668 -97.73295,-4.9e-4 -97.73295,-4.9e-4 z"
     id="path852"
     transform="scale(0.046875)" />
  <path
     style="fill:#2e4052;stroke-width:0.616867"
     d="m 154.78542,360.69857 c -3.24343,-2.18574 -4.88662,-5.07395 -4.88662,-8.5891 0,-3.72351 1.16243,-6.07601 4.11518,-8.32818 l 2.26589,-1.72828 H 256 355.72013 l 2.26588,1.72828 c 2.95276,2.25217 4.11519,4.60467 4.11519,8.32818 0,3.51515 -1.64319,6.40336 -4.88662,8.5891 l -2.08137,1.40263 H 256 156.86679 Z"
     id="path854"
     transform="scale(0.046875)" />
</svg>
