<?xml version="1.0" encoding="UTF-8" standalone="no"?>
<svg
   xmlns:dc="http://purl.org/dc/elements/1.1/"
   xmlns:cc="http://creativecommons.org/ns#"
   xmlns:rdf="http://www.w3.org/1999/02/22-rdf-syntax-ns#"
   xmlns:svg="http://www.w3.org/2000/svg"
   xmlns="http://www.w3.org/2000/svg"
   xmlns:sodipodi="http://sodipodi.sourceforge.net/DTD/sodipodi-0.dtd"
   xmlns:inkscape="http://www.inkscape.org/namespaces/inkscape"
   viewBox="0 0 512 512"
   version="1.1"
   id="svg4"
   sodipodi:docname="facebook.svg"
   inkscape:version="1.0.2-2 (e86c870879, 2021-01-15)">
  <metadata
     id="metadata10">
    <rdf:RDF>
      <cc:Work
         rdf:about="">
        <dc:format>image/svg+xml</dc:format>
        <dc:type
           rdf:resource="http://purl.org/dc/dcmitype/StillImage" />
      </cc:Work>
    </rdf:RDF>
  </metadata>
  <defs
     id="defs8" />
  <sodipodi:namedview
     pagecolor="#ffffff"
     bordercolor="#666666"
     borderopacity="1"
     objecttolerance="10"
     gridtolerance="10"
     guidetolerance="10"
     inkscape:pageopacity="0"
     inkscape:pageshadow="2"
     inkscape:window-width="1920"
     inkscape:window-height="1001"
     id="namedview6"
     showgrid="false"
     inkscape:zoom="1.6210938"
     inkscape:cx="256"
     inkscape:cy="254.76627"
     inkscape:window-x="-9"
     inkscape:window-y="-9"
     inkscape:window-maximized="1"
     inkscape:current-layer="svg4" />
  <path
     d="m75 512h167v-182h-60v-60h60v-75c0-41.355469 33.644531-75 75-75h75v60h-60c-16.542969 0-30 13.457031-30 30v60h87.292969l-10 60h-77.292969v182h135c41.355469 0 75-33.644531 75-75v-362c0-41.355469-33.644531-75-75-75h-362c-41.355469 0-75 33.644531-75 75v362c0 41.355469 33.644531 75 75 75zm-45-437c0-24.8125 20.1875-45 45-45h362c24.8125 0 45 20.1875 45 45v362c0 24.8125-20.1875 45-45 45h-105v-122h72.707031l20-120h-92.707031v-30h90v-120h-105c-57.898438 0-105 47.101562-105 105v45h-60v120h60v122h-137c-24.8125 0-45-20.1875-45-45zm0 0"
     id="path2" />
  <path
     style="fill:#2e4052;fill-opacity:1;stroke-width:0.616867"
     d="M 69.089157,511.36334 C 51.086953,509.95884 34.310499,501.98411 21.551126,488.76601 11.488539,478.34166 5.0548643,466.34577 1.7551042,451.85542 L 0.35036666,445.68675 0.15126547,262.47711 C 0.02314986,144.58723 0.17161808,76.298388 0.56769092,70.939759 1.9658513,52.023477 8.6687756,36.656471 21.237102,23.553434 31.952559,12.382094 44.565413,5.3169041 60.144578,1.759102 L 66.313253,0.35036666 249.52289,0.15126547 c 117.88988,-0.12811561 186.17872,0.0203526 191.53735,0.41642545 18.74143,1.38523658 34.15677,8.05461178 47.13555,20.39297908 11.30227,10.744577 18.59755,23.810557 22.07306,39.53329 l 1.42272,6.43616 V 256 445.06988 l -1.42272,6.43616 c -3.23402,14.63028 -9.49238,26.4929 -19.51353,36.98765 -10.44378,10.93736 -23.58549,18.27177 -38.93509,21.72977 -6.12576,1.38002 -6.22376,1.38205 -77.84433,1.61419 l -71.71084,0.23243 v -91.01836 -91.01835 l 38.68504,-0.15886 38.68503,-0.15885 5.00929,-30.07229 5.00929,-30.07229 h -43.69432 -43.69433 v -31.33063 c 0,-25.75732 0.1634,-31.95798 0.91857,-34.85728 2.20156,-8.45238 7.66919,-15.54933 14.97086,-19.43211 6.81804,-3.6256 8.82768,-3.80318 43.17563,-3.81505 l 30.99759,-0.0107 V 149.86435 119.6034 l -43.02651,0.23479 c -38.43965,0.20977 -43.51971,0.35092 -47.65301,1.3241 -15.19719,3.57816 -27.27432,10.19285 -37.68508,20.64025 -8.8164,8.84742 -14.6168,18.14741 -18.44477,29.5731 -3.53575,10.55354 -3.70109,13.12638 -3.70381,57.63642 l -0.002,40.55903 H 211.89398 181.9759 v 30.22651 30.22651 h 29.91808 29.91807 V 421.01205 512 l -83.43133,-0.0897 c -45.88723,-0.0494 -86.068431,-0.29547 -89.291563,-0.54693 z M 212.20241,421.01205 v -61.37832 h -29.91807 -29.91807 v -59.52771 -59.52771 h 29.86529 29.86529 l 0.25942,-28.53012 c 0.21734,-23.90109 0.43675,-29.48094 1.35233,-34.39036 6.25686,-33.55026 26.85036,-61.17187 56.78779,-76.16822 12.69584,-6.35964 24.35827,-9.592359 38.97452,-10.80338 4.00979,-0.332227 30.95511,-0.608448 59.87849,-0.613814 l 52.58795,-0.0098 V 149.8988 209.73494 H 376.90602 331.8747 v 15.42169 15.42168 h 46.30663 c 43.80715,0 46.29007,0.0583 45.9999,1.07952 -0.1687,0.59374 -4.67456,27.38121 -10.01302,59.52771 l -9.70629,58.44819 H 368.16831 331.8747 v 61.39975 61.39974 l 56.59759,-0.2022 c 51.16228,-0.18279 56.93003,-0.30303 60.05931,-1.25213 16.60276,-5.03558 28.61164,-17.42993 32.70033,-33.74997 0.71279,-2.84513 0.85,-33.71217 0.85,-191.22892 0,-157.516751 -0.13721,-188.383787 -0.85,-191.228916 -4.51679,-18.028812 -19.10004,-31.583126 -37.12768,-34.508105 -5.53839,-0.898604 -370.670107,-0.898604 -376.208504,0 -19.239374,3.121583 -34.528438,18.395737 -37.629141,37.592443 -0.901928,5.583915 -0.905447,370.690608 -0.0036,376.248828 1.567527,9.6612 5.682638,17.58208 12.866665,24.7661 6.97878,6.97879 15.192682,11.32525 24.255448,12.835 1.78543,0.29743 35.099732,0.57324 74.031782,0.6129 l 70.78555,0.0721 z"
     id="path835" />
</svg>
