<?xml version="1.0" encoding="UTF-8" standalone="no"?>
<svg
   xmlns:dc="http://purl.org/dc/elements/1.1/"
   xmlns:cc="http://creativecommons.org/ns#"
   xmlns:rdf="http://www.w3.org/1999/02/22-rdf-syntax-ns#"
   xmlns:svg="http://www.w3.org/2000/svg"
   xmlns="http://www.w3.org/2000/svg"
   xmlns:sodipodi="http://sodipodi.sourceforge.net/DTD/sodipodi-0.dtd"
   xmlns:inkscape="http://www.inkscape.org/namespaces/inkscape"
   version="1.1"
   id="Capa_1"
   x="0px"
   y="0px"
   viewBox="0 0 512 512"
   style="enable-background:new 0 0 512 512;"
   xml:space="preserve"
   sodipodi:docname="inst.svg"
   inkscape:version="1.0.2-2 (e86c870879, 2021-01-15)"><metadata
   id="metadata79"><rdf:RDF><cc:Work
       rdf:about=""><dc:format>image/svg+xml</dc:format><dc:type
         rdf:resource="http://purl.org/dc/dcmitype/StillImage" /></cc:Work></rdf:RDF></metadata><defs
   id="defs77" /><sodipodi:namedview
   pagecolor="#ffffff"
   bordercolor="#666666"
   borderopacity="1"
   objecttolerance="10"
   gridtolerance="10"
   guidetolerance="10"
   inkscape:pageopacity="0"
   inkscape:pageshadow="2"
   inkscape:window-width="1920"
   inkscape:window-height="1001"
   id="namedview75"
   showgrid="false"
   inkscape:zoom="1.6210938"
   inkscape:cx="256"
   inkscape:cy="254.76627"
   inkscape:window-x="-9"
   inkscape:window-y="-9"
   inkscape:window-maximized="1"
   inkscape:current-layer="Capa_1" />
<g
   id="g6">
	<g
   id="g4">
		<path
   d="M362,0H150C67.29,0,0,67.29,0,150v212c0,82.71,67.29,150,150,150h212c82.71,0,150-67.29,150-150V150    C512,67.29,444.71,0,362,0z M492,362c0,71.682-58.318,130-130,130H150c-71.682,0-130-58.318-130-130V150    C20,78.318,78.318,20,150,20h212c71.682,0,130,58.318,130,130V362z"
   id="path2" />
	</g>
</g>
<g
   id="g12">
	<g
   id="g10">
		<path
   d="M362,44H150C91.551,44,44,91.551,44,150v212c0,58.449,47.551,106,106,106h61c5.523,0,10-4.477,10-10s-4.477-10-10-10h-61    c-47.42,0-86-38.58-86-86V150c0-47.42,38.58-86,86-86h212c47.42,0,86,38.58,86,86v212c0,47.42-38.58,86-86,86h-60.333    c-5.523,0-10,4.477-10,10s4.477,10,10,10H362c58.449,0,106-47.551,106-106V150C468,91.551,420.449,44,362,44z"
   id="path8" />
	</g>
</g>
<g
   id="g18">
	<g
   id="g16">
		<path
   d="M263.07,450.93c-1.86-1.86-4.44-2.93-7.07-2.93s-5.21,1.07-7.07,2.93S246,455.37,246,458s1.07,5.21,2.93,7.07    S253.37,468,256,468s5.21-1.07,7.07-2.93c1.86-1.86,2.93-4.44,2.93-7.07S264.93,452.79,263.07,450.93z"
   id="path14" />
	</g>
</g>
<g
   id="g24">
	<g
   id="g22">
		<path
   d="M175.83,155.71c-3.777-4.03-10.104-4.236-14.135-0.461l-0.443,0.417c-4.017,3.79-4.201,10.119-0.41,14.136    c1.967,2.085,4.618,3.137,7.275,3.137c2.462,0,4.929-0.904,6.861-2.727l0.391-0.367C179.399,166.069,179.606,159.74,175.83,155.71    z"
   id="path20" />
	</g>
</g>
<g
   id="g30">
	<g
   id="g28">
		<path
   d="M256,118c-21.964,0-43.824,5.291-63.217,15.301c-4.907,2.533-6.832,8.565-4.299,13.473    c2.534,4.907,8.566,6.831,13.473,4.299C218.762,142.398,236.945,138,256,138c65.065,0,118,52.935,118,118s-52.935,118-118,118    s-118-52.935-118-118c0-20.419,5.295-40.537,15.313-58.178c2.727-4.802,1.045-10.906-3.758-13.634    c-4.803-2.726-10.906-1.045-13.634,3.758C124.197,208.592,118,232.125,118,256c0,76.093,61.907,138,138,138s138-61.907,138-138    S332.093,118,256,118z"
   id="path26" />
	</g>
</g>
<g
   id="g36">
	<g
   id="g34">
		<path
   d="M256,166c-49.626,0-90,40.374-90,90c0,49.626,40.374,90,90,90c49.626,0,90-40.374,90-90C346,206.374,305.626,166,256,166z     M256,326c-38.598,0-70-31.402-70-70c0-38.598,31.402-70,70-70c38.598,0,70,31.402,70,70C326,294.598,294.598,326,256,326z"
   id="path32" />
	</g>
</g>
<g
   id="g42">
	<g
   id="g40">
		<path
   d="M387.25,86.75c-20.953,0-38,17.047-38,38s17.047,38,38,38s38-17.047,38-38S408.203,86.75,387.25,86.75z M387.25,142.75    c-9.925,0-18-8.075-18-18s8.075-18,18-18s18,8.075,18,18S397.175,142.75,387.25,142.75z"
   id="path38" />
	</g>
</g>
<g
   id="g44">
</g>
<g
   id="g46">
</g>
<g
   id="g48">
</g>
<g
   id="g50">
</g>
<g
   id="g52">
</g>
<g
   id="g54">
</g>
<g
   id="g56">
</g>
<g
   id="g58">
</g>
<g
   id="g60">
</g>
<g
   id="g62">
</g>
<g
   id="g64">
</g>
<g
   id="g66">
</g>
<g
   id="g68">
</g>
<g
   id="g70">
</g>
<g
   id="g72">
</g>
<path
   style="fill:#2e4052;stroke-width:0.616867;fill-opacity:1"
   d="m 135.71084,466.65363 c -16.34408,-2.2445 -33.05297,-8.90005 -46.881924,-18.67417 -7.51369,-5.31058 -19.497799,-17.29468 -24.808376,-24.80838 -9.953341,-14.08252 -16.472271,-30.62041 -18.717775,-47.4852 -1.281953,-9.62806 -1.281953,-229.7437 0,-239.37176 6.283665,-47.193241 43.167691,-84.240468 90.579885,-90.980686 9.42284,-1.339569 230.81186,-1.339569 240.2347,0 47.34661,6.730894 84.30491,43.852726 90.57988,90.980686 1.28196,9.62806 1.28196,229.7437 0,239.37176 -2.2455,16.86479 -8.76443,33.40268 -18.71777,47.4852 -5.31058,7.5137 -17.29468,19.4978 -24.80838,24.80838 -10.56447,7.46683 -23.30648,13.33741 -35.96209,16.56867 -10.5774,2.70065 -16.03202,3.01269 -52.86682,3.02441 -38.83239,0.0123 -37.62045,0.13853 -40.53172,-4.21979 -2.20339,-3.29859 -2.39706,-5.7869 -0.71194,-9.14723 2.91062,-5.80412 -0.10176,-5.38701 41.75045,-5.78095 40.35604,-0.37986 41.46724,-0.47018 53.62878,-4.35914 30.16292,-9.64535 52.5521,-35.37004 58.59982,-67.32993 1.00011,-5.28519 1.07666,-13.86912 1.07666,-120.7355 0,-106.86638 -0.0765,-115.45031 -1.07666,-120.7355 C 443.63619,117.07819 435.7385,102.02198 422.8678,89.110874 410.11579,76.318823 394.95645,68.370362 376.7355,64.922439 371.45031,63.92233 362.86638,63.845783 256,63.845783 c -106.86638,0 -115.45031,0.07655 -120.7355,1.076656 -12.50872,2.367008 -25.262,7.667925 -35.02354,14.557581 -6.338542,4.473723 -16.992628,15.133776 -21.057581,21.06938 -6.75556,9.86439 -11.952258,22.51461 -14.26094,34.7151 -1.000109,5.28519 -1.076656,13.86912 -1.076656,120.7355 0,106.86638 0.07655,115.45031 1.076656,120.7355 6.064755,32.0499 28.397673,57.7125 58.599821,67.33665 12.20317,3.88863 13.25341,3.97339 53.93721,4.35277 36.17552,0.33734 37.16649,0.37844 38.86265,1.61196 2.55897,1.86101 4.7472,6.56374 4.26074,9.1568 -0.55478,2.95722 -2.80173,6.05199 -5.30841,7.31139 -1.97452,0.99203 -5.01696,1.07353 -37.92505,1.01595 -25.7034,-0.045 -37.42852,-0.28923 -41.63856,-0.86739 z"
   id="path906" /><path
   style="fill:#2e4052;fill-opacity:1;stroke-width:0.616867"
   d="m 313.98554,466.96867 c -8.99084,-0.16963 -16.71231,-0.54434 -17.15881,-0.83267 -1.86419,-1.2038 -4.43155,-5.59001 -4.43155,-7.57109 0,-2.84298 2.33273,-7.37189 4.25994,-8.2705 1.96398,-0.91577 6.91099,-1.11376 46.32319,-1.85395 17.1335,-0.32178 32.81735,-0.87742 34.85302,-1.23474 2.03566,-0.35733 6.98228,-1.74439 10.99247,-3.08236 29.92678,-9.98481 51.27655,-34.01275 58.208,-65.50974 1.06354,-4.83281 1.12242,-11.26495 1.12242,-122.61362 0,-112.1938 -0.0518,-117.74914 -1.14498,-122.72419 C 443.29282,116.36187 436.0127,102.5464 424.49036,90.541761 416.81524,82.545377 409.79498,77.316263 400.65542,72.788046 392.6805,68.836852 386.9405,66.796089 378.72419,64.990759 373.7494,63.897671 368.20177,63.845783 256.30843,63.845783 c -129.13749,0 -119.74593,-0.283544 -132.95773,4.014183 -14.21112,4.622803 -23.515811,10.415679 -34.553985,21.512486 -4.359676,4.382834 -9.059655,9.805753 -10.756187,12.410678 -5.749259,8.82766 -10.843279,21.38776 -13.384835,33.00241 -1.22512,5.59868 -1.189674,236.17519 0.03727,242.42892 5.288448,26.95523 22.508663,50.01142 46.278817,61.96282 5.91997,2.9765 17.7532,7.07245 23.19689,8.02937 2.03567,0.35784 17.99711,0.91563 35.46988,1.23954 46.52886,0.86257 45.37061,0.80791 46.92575,2.21436 3.75998,3.40048 4.53705,8.77262 1.82073,12.58734 -2.82209,3.96325 -1.02595,3.81902 -44.31524,3.55857 -43.91784,-0.26424 -42.54812,-0.14363 -57.1734,-5.0343 C 99.092626,455.81862 84.319731,445.89305 70.809659,430.80753 59.178197,417.81971 50.918662,401.35478 46.810864,382.96727 c -1.227708,-5.49552 -1.313353,-8.4634 -1.914973,-66.36004 -0.427974,-41.18595 -0.428454,-80.02851 -0.0015,-121.21446 0.594014,-57.30124 0.696618,-60.91964 1.880988,-66.3345 1.965785,-8.98744 4.818202,-17.03966 9.115645,-25.73297 14.274316,-28.875548 40.636455,-49.245364 73.141706,-56.516017 5.49671,-1.229483 8.45088,-1.315151 66.36004,-1.924366 41.71862,-0.438888 79.49584,-0.438888 121.21446,0 66.82509,0.703013 63.34531,0.486284 76.91421,4.790388 32.05228,10.1671 57.54159,35.230083 68.18854,67.048045 4.91557,14.68995 4.66001,10.94925 5.37451,78.66942 0.43676,41.39597 0.44119,79.81849 0.014,121.21446 -0.59745,57.89387 -0.68296,60.86478 -1.90999,66.36004 -2.93072,13.12528 -8.44745,26.32785 -15.32067,36.66528 -7.15947,10.76797 -19.06859,22.78975 -29.47872,29.7576 -10.64233,7.12328 -26.32405,13.64156 -38.57388,16.03365 -7.32409,1.43022 -37.49121,2.1173 -67.82969,1.54487 z"
   id="path908" /><path
   style="fill:#2e4052;fill-opacity:1;stroke-width:0.616867"
   d="M 140.95422,511.35889 C 78.790927,507.6028 24.569184,464.63954 6.7822931,405.04614 4.0392679,395.85588 2.2889882,387.54443 1.1161684,378.13976 c -1.18195553,-9.47794 -1.18195553,-234.80158 0,-244.27952 C 6.6554559,89.441484 29.475663,51.490004 65.58778,26.639778 85.656854,12.829426 108.5433,4.2733438 133.86024,1.1161684 c 9.47794,-1.18195553 234.80158,-1.18195553 244.27952,0 29.06561,3.6246574 54.85758,14.3499336 77.41687,32.1928576 6.52782,5.163078 18.73628,17.498939 23.88121,24.130415 14.93467,19.2498 24.74655,40.532055 29.40255,63.775019 2.89285,14.4412 2.85118,12.46657 2.85118,135.09397 0,130.22872 0.24493,122.67556 -4.60082,141.87952 -4.27457,16.94035 -10.84323,31.81365 -20.31112,45.99016 -12.19336,18.25743 -25.16768,31.14723 -43.56035,43.27657 -13.53245,8.9242 -28.59431,15.49093 -45.03133,19.63294 -18.99622,4.78692 -10.62837,4.50297 -136.63614,4.63651 -61.91808,0.0656 -116.18699,-0.0987 -120.59759,-0.36524 z m 233.9713,-19.73614 c 39.40409,-4.19351 73.61467,-24.74387 95.37935,-57.29456 11.94397,-17.86308 18.98517,-37.48353 21.31788,-59.40267 0.41464,-3.89611 0.63749,-45.51676 0.63749,-119.0592 0,-123.15812 0.0557,-120.98823 -3.48694,-135.8856 C 477.37231,72.037567 439.96243,34.627689 392.01928,23.226704 377.12065,19.68378 379.30431,19.739759 256,19.739759 c -123.30431,0 -121.12065,-0.05598 -136.01928,3.486945 -53.283122,12.670841 -92.99748,57.282551 -99.308838,111.555056 -1.397726,12.01931 -1.397726,230.41717 0,242.43648 7.023942,60.40014 54.687665,107.53127 115.655828,114.36348 6.95491,0.77938 231.29743,0.81796 238.59781,0.041 z"
   id="path910" /><path
   style="fill:#2e4052;fill-opacity:1;stroke-width:0.616867"
   d="m 240.88675,392.84302 c -53.44036,-6.03242 -98.86609,-43.05503 -115.67796,-94.27916 -9.17165,-27.94511 -9.03091,-58.36433 0.39956,-86.36145 3.36386,-9.9866 9.10176,-22.25826 11.89472,-25.43927 4.61697,-5.25844 12.56661,-4.23214 15.81065,2.04115 1.63091,3.15382 1.1073,5.58211 -3.04168,14.10616 -13.82826,28.41009 -16.26225,58.81982 -7.08828,88.55943 11.19933,36.30529 41.04107,66.14703 77.34636,77.34636 52.84577,16.30168 108.87306,-5.17359 137.27309,-52.61681 14.63847,-24.45408 19.88482,-55.39407 14.15112,-83.45543 -8.50123,-41.60598 -38.32135,-75.46504 -78.22195,-88.81662 -28.85958,-9.65701 -59.98728,-7.92686 -87.90261,4.88584 -5.77929,2.65261 -7.10122,3.03806 -9.49423,2.76833 -3.58149,-0.40369 -5.67661,-1.96363 -7.48763,-5.57503 -1.68204,-3.35417 -1.49216,-5.8366 0.69964,-9.14722 2.7017,-4.0808 21.89835,-12.02114 36.86718,-15.24942 14.68469,-3.16701 31.36152,-3.99888 45.62382,-2.27579 53.45203,6.45775 97.9892,43.02623 114.8189,94.27521 8.36082,25.45999 8.86148,54.27267 1.3943,80.24249 -15.28819,53.17022 -61.14447,92.16105 -116.2132,98.81412 -7.85547,0.94906 -23.52409,1.03813 -31.1518,0.17711 z"
   id="path912" /><path
   style="fill:#2e4052;fill-opacity:1;stroke-width:0.616867"
   d="m 241.81205,344.56276 c -9.18336,-1.64401 -18.88047,-4.80449 -26.34117,-8.58512 -6.47923,-3.28327 -16.426,-10.52874 -22.00243,-16.02711 -14.57247,-14.36848 -23.43669,-31.91502 -26.33445,-52.12852 -0.95191,-6.64009 -0.40734,-23.47873 0.96087,-29.71117 7.84011,-35.71302 34.79124,-62.47157 70.63284,-70.12809 7.44707,-1.59086 27.09751,-1.59086 34.54458,0 35.85797,7.66002 62.77014,34.37905 70.63502,70.12809 1.54306,7.01384 1.9229,23.56961 0.71536,31.17987 -2.65503,16.73269 -9.06813,30.80054 -20.19491,44.29975 -12.46119,15.11817 -30.34175,25.84705 -50.5386,30.3247 -6.28694,1.39382 -25.71751,1.7861 -32.07711,0.6476 z m 24.8619,-19.15867 c 6.50602,-0.98066 15.08672,-3.61174 20.31568,-6.22936 13.44294,-6.72953 25.45557,-18.74216 32.1851,-32.1851 4.17398,-8.33795 7.14089,-21.21359 7.14089,-30.98963 0,-9.77604 -2.96691,-22.65168 -7.14089,-30.98963 -6.72953,-13.44294 -18.74216,-25.45557 -32.1851,-32.1851 -8.33795,-4.17398 -21.21359,-7.14089 -30.98963,-7.14089 -9.77604,0 -22.65168,2.96691 -30.98963,7.14089 -13.44294,6.72953 -25.45557,18.74216 -32.1851,32.1851 -4.17398,8.33795 -7.14089,21.21359 -7.14089,30.98963 0,9.77604 2.96691,22.65168 7.14089,30.98963 6.72953,13.44294 18.74216,25.45557 32.1851,32.1851 12.05986,6.03716 27.56173,8.35493 41.66358,6.22936 z"
   id="path914" /><path
   style="fill:#2e4052;fill-opacity:1;stroke-width:0.616867"
   d="m 251.69422,466.50507 c -2.50668,-1.25941 -4.75362,-4.35417 -5.3084,-7.31139 -0.52101,-2.7772 1.8013,-7.477 4.61625,-9.34219 2.83767,-1.88025 7.15819,-1.88025 9.99586,0 2.81495,1.86519 5.13726,6.56499 4.61625,9.34219 -0.88284,4.70595 -5.10439,8.38994 -9.61418,8.38994 -1.18747,0 -3.12507,-0.48535 -4.30578,-1.07855 z"
   id="path916" /><path
   style="fill:#2e4052;fill-opacity:1;stroke-width:0.616867"
   d="m 164.39518,171.75281 c -5.91835,-3.07808 -7.62066,-9.6762 -3.79163,-14.69632 4.0123,-5.2604 11.15755,-5.43476 15.41409,-0.37615 3.12153,3.70973 2.87246,8.50635 -0.64382,12.39845 -3.11267,3.44535 -7.45976,4.50416 -10.97864,2.67402 z"
   id="path918" /><path
   style="fill:#2e4052;fill-opacity:1;stroke-width:0.616867"
   d="m 378.13976,161.26786 c -13.09032,-3.42265 -24.11889,-14.55014 -27.44527,-27.69144 -1.20614,-4.76501 -1.1885,-13.03935 0.0379,-17.77214 3.65386,-14.10072 14.99888,-24.926434 29.31601,-27.974115 12.11198,-2.578273 25.88857,1.97244 34.66311,11.449988 4.15399,4.486797 6.10498,7.797897 8.23907,13.982787 2.27162,6.58347 2.43255,15.68359 0.39152,22.13947 -3.95684,12.51569 -14.53855,22.61364 -27.09378,25.85517 -4.67045,1.20582 -13.51688,1.21084 -18.10855,0.0103 z m 16.99103,-20.01836 c 6.32152,-3.0602 10.13475,-9.10031 10.14511,-16.06973 0.009,-5.79107 -1.44952,-9.51096 -5.19712,-13.25855 -3.74759,-3.7476 -7.46748,-5.20573 -13.25855,-5.19712 -14.23541,0.0212 -22.59778,15.74377 -14.86166,27.94236 4.77858,7.53504 15.13054,10.47594 23.17222,6.58304 z"
   id="path920" /></svg>
