<?xml version="1.0" encoding="UTF-8" standalone="no"?>
<svg
   xmlns:dc="http://purl.org/dc/elements/1.1/"
   xmlns:cc="http://creativecommons.org/ns#"
   xmlns:rdf="http://www.w3.org/1999/02/22-rdf-syntax-ns#"
   xmlns:svg="http://www.w3.org/2000/svg"
   xmlns="http://www.w3.org/2000/svg"
   xmlns:sodipodi="http://sodipodi.sourceforge.net/DTD/sodipodi-0.dtd"
   xmlns:inkscape="http://www.inkscape.org/namespaces/inkscape"
   viewBox="0 0 512 512.00011"
   version="1.1"
   id="svg8"
   sodipodi:docname="phone.svg"
   inkscape:version="1.0.2-2 (e86c870879, 2021-01-15)">
  <metadata
     id="metadata14">
    <rdf:RDF>
      <cc:Work
         rdf:about="">
        <dc:format>image/svg+xml</dc:format>
        <dc:type
           rdf:resource="http://purl.org/dc/dcmitype/StillImage" />
      </cc:Work>
    </rdf:RDF>
  </metadata>
  <defs
     id="defs12" />
  <sodipodi:namedview
     pagecolor="#ffffff"
     bordercolor="#666666"
     borderopacity="1"
     objecttolerance="10"
     gridtolerance="10"
     guidetolerance="10"
     inkscape:pageopacity="0"
     inkscape:pageshadow="2"
     inkscape:window-width="1920"
     inkscape:window-height="1001"
     id="namedview10"
     showgrid="false"
     inkscape:zoom="1.6210934"
     inkscape:cx="256"
     inkscape:cy="254.76633"
     inkscape:window-x="-9"
     inkscape:window-y="-9"
     inkscape:window-maximized="1"
     inkscape:current-layer="svg8" />
  <path
     d="m232.484375 390.324219c-3.902344 3.898437-3.902344 10.230469 0 14.136719 3.910156 3.902343 10.238281 3.902343 14.136719 0 3.910156-3.90625 3.910156-10.238282 0-14.136719-3.898438-3.910157-10.226563-3.910157-14.136719 0zm0 0"
     id="path2" />
  <path
     d="m488.917969 372.957031-75.921875-64.558593c-.351563-.296876-.722656-.570313-1.109375-.816407-19.917969-12.679687-45.492188-9.871093-62.191407 6.824219l-41.394531 41.390625c-2.867187 2.871094-7.144531 3.71875-10.894531 2.171875-46.742188-19.335938-85.140625-48.445312-114.128906-86.511719-22.105469-29.027343-30.074219-52.09375-31.125-55.34375-.125-.695312-.324219-1.386719-.605469-2.0625-1.550781-3.75-.703125-8.019531 2.171875-10.886719l41.390625-41.402343c16.699219-16.699219 19.503906-42.273438 6.824219-62.191407-.101563-.160156-.207032-.316406-.316406-.472656l-54.828126-76.191406c-17.25-26.761719-54.824218-30.804688-77.375-8.257812l-8.289062 8.289062c-.003906.007812-.011719.015625-.019531.019531l-29.59375 29.59375c-35.289063 35.292969-41.0625 88.324219-16.691407 153.371094 20.875 55.71875 62.664063 116.699219 117.667969 171.703125 56.304688 56.304688 118.933594 98.867188 176.347657 119.847656 56.828124 20.761719 117.277343 23.320313 160.0625-19.46875l27.910156-27.90625c22.449218-22.453125 18.53125-59.78125-7.890625-77.140625zm-88.3125-48.847656 75.855469 64.503906c.347656.296875.71875.570313 1.105468.816407 16.203125 10.316406 18.65625 32.972656 5.097656 46.527343l-2.070312 2.074219-129.378906-96.867188 12.621094-12.617187c9.863281-9.867187 24.894531-11.652344 36.769531-4.4375zm-270.523438-290.214844c.101563.160157.207031.320313.316407.472657l54.804687 76.164062c7.445313 11.917969 5.722656 27.132812-4.234375 37.089844l-12.230469 12.234375-87.53125-128.71875 2.347657-2.347657c13.613281-13.613281 36.25-11.039062 46.527343 5.105469zm185.613281 444.792969c-54.734374-20-114.777343-60.914062-169.066406-115.203125-53.03125-53.027344-93.191406-111.476563-113.085937-164.578125-14.933594-39.859375-24.953125-95.152344 12.109375-132.210938l21.160156-21.164062 87.53125 128.71875-14.761719 14.769531c-8.398437 8.382813-11.039062 20.789063-6.847656 31.835938 3.15625 12.953125 17.679687 39.839843 32.332031 59.652343 21.5625 29.15625 60.699219 69.464844 124.695313 95.941407 11.246093 4.652343 24.070312 2.097656 32.679687-6.507813l14.488282-14.492187 129.378906 96.867187-11.550782 11.546875c-39.730468 39.734375-97.550781 29.992188-139.0625 14.824219zm0 0"
     id="path4" />
  <path
     d="m213.71875 366.449219c-10.5625-9.261719-28.832031-25.191407-38.453125-35.089844-23.59375-24.246094-48.347656-53.636719-63.066406-74.871094-3.144531-4.539062-9.375-5.671875-13.914063-2.523437-4.539062 3.144531-5.667968 9.375-2.523437 13.914062 18.5625 26.78125 45.835937 57.554688 65.167969 77.421875 10.15625 10.453125 28.582031 26.523438 39.601562 36.183594 4.144531 3.632813 10.460938 3.234375 14.113281-.925781 3.640625-4.148438 3.226563-10.46875-.925781-14.109375zm0 0"
     id="path6" />
  <path
     style="fill:#2e4052;stroke-width:0.616868"
     d="M 374.13015,511.29724 C 304.05228,508.03802 213.93019,458.05396 133.50421,377.83985 74.988421,319.47822 32.299086,256.02599 12.441366,197.89544 4.1117814,173.51181 0.60432507,154.45629 0.59795141,133.55184 0.59608945,127.44485 0.87628275,120.2275 1.2206032,117.51328 3.634468,98.48521 9.1039365,83.351091 18.936121,68.494118 23.184486,62.074611 26.034607,58.973282 48.06358,36.799422 61.493646,23.281024 74.176999,11.001699 76.248811,9.5120333 92.311612,-2.0373937 114.76647,-2.552041 131.60357,8.2433463 c 7.23401,4.6382107 9.70164,7.7133577 40.35531,50.2906637 16.51489,22.938836 30.77982,43.09493 31.69984,44.79132 2.43993,4.49887 4.65528,11.60337 5.45347,17.48897 1.30602,9.63004 -1.02464,20.77384 -6.34087,30.31827 -2.22729,3.99874 -5.81229,7.8909 -26.4206,28.68434 -13.11401,13.23181 -24.29172,24.94622 -24.83937,26.03202 -1.3732,2.72262 -1.24908,5.42205 0.49412,10.74708 4.52936,13.83604 16.25842,35.18241 28.26055,51.43297 27.47902,37.20588 63.71588,66.20644 107.64194,86.14646 10.75744,4.88329 14.09107,5.6302 17.49351,3.91947 1.15884,-0.58266 12.65541,-11.52956 25.54795,-24.32645 23.92146,-23.74398 27.15568,-26.50208 34.88557,-29.74983 9.70661,-4.07829 21.39827,-4.99527 31.11926,-2.44069 10.70497,2.81315 11.55991,3.43579 51.81688,37.73759 20.35663,17.3453 39.11741,33.15405 41.69062,35.13057 10.0324,7.706 16.08156,16.64878 19.18927,28.36845 1.64504,6.20374 1.74872,16.48625 0.23013,22.82411 -1.59086,6.63943 -5.71458,14.99579 -10.04566,20.35663 -5.9773,7.39845 -36.11514,36.7707 -43.15609,42.05981 -23.2453,17.46165 -49.27269,24.78979 -82.54925,23.24214 z m 28.68434,-20.81936 c 16.88614,-2.95165 29.78666,-8.40124 42.403,-17.91234 6.23892,-4.70334 21.24458,-19.10256 21.00889,-20.15984 -0.17124,-0.76817 -128.39768,-97.08995 -129.24905,-97.08995 -0.21574,0 -4.47082,4.02223 -9.45573,8.9383 -7.89467,7.78564 -9.68995,9.23742 -13.92144,11.25783 -4.78087,2.28272 -4.97547,2.31954 -12.26039,2.31954 -8.67748,0 -8.90772,-0.0764 -27.75904,-9.20653 -14.07265,-6.81574 -23.59655,-12.18048 -35.16146,-19.80622 -42.4643,-28.00036 -75.07111,-64.23077 -96.88184,-107.64834 -7.13302,-14.19937 -10.21323,-23.57737 -10.21323,-31.0952 0,-10.00369 2.44303,-14.53835 14.31614,-26.57308 l 9.1446,-9.26909 L 110.85751,109.60405 66.930075,44.975138 52.710486,59.345409 C 38.044508,74.166802 34.192615,78.995863 29.439053,88.520503 12.468518,122.52409 17.981433,170.51748 45.311352,226.69885 c 22.272362,45.78469 56.583798,92.31406 100.561068,136.3698 74.51747,74.65043 156.99325,122.18166 223.05868,128.54989 8.93357,0.86114 25.65094,0.29836 33.88339,-1.14066 z m 84.02033,-59.18387 c 3.25923,-4.69971 4.41765,-8.89124 4.46124,-16.1421 0.0641,-10.66313 -3.42254,-18.18226 -11.2972,-24.36305 -2.16354,-1.69816 -20.84266,-17.45292 -41.50915,-35.01058 -20.66648,-17.55766 -38.66616,-32.47947 -39.99928,-33.15957 -8.27692,-4.22257 -19.58731,-4.02636 -28.01531,0.48601 -3.13596,1.67899 -19.66461,17.16394 -19.33918,18.118 0.0936,0.2743 29.3171,22.31471 64.94121,48.97869 l 64.7711,48.47996 2.06664,-2.3575 c 1.13666,-1.29662 2.90063,-3.56007 3.91993,-5.02986 z M 186.43911,140.90807 c 4.48006,-8.42413 4.69155,-19.74975 0.52144,-27.92384 C 184.67926,108.51254 128.21527,30.512688 125.17104,27.627646 113.92365,16.96844 94.519461,17.27503 83.676754,28.283264 l -2.879908,2.923871 43.950214,64.631373 43.95021,64.631372 8.0385,-8.21564 c 4.66017,-4.76288 8.73817,-9.53131 9.70334,-11.34617 z"
     id="path839" />
  <path
     style="fill:#2e4052;stroke-width:0.616868"
     d="m 203.11173,382.61214 c -3.83621,-2.09425 -25.33051,-21.60266 -40.59981,-36.84872 -20.59988,-20.56855 -41.31754,-44.34991 -58.0469,-66.63082 -9.914826,-13.20502 -9.775902,-12.96447 -9.775902,-16.92679 0,-4.47409 2.026956,-7.4327 6.178362,-9.01814 2.40928,-0.92011 3.17091,-0.96285 5.37742,-0.30176 3.18072,0.95296 4.84876,2.67904 11.97368,12.39029 7.44573,10.14851 16.05236,20.89427 26.41418,32.97929 19.5175,22.76332 35.35566,38.86973 57.45871,58.43189 7.99689,7.0776 13.32317,12.25272 13.8031,13.41138 1.02708,2.47958 0.52092,7.42188 -0.97091,9.48048 -1.4493,1.99988 -5.56647,4.11242 -8.01481,4.11242 -1.00082,0 -2.70952,-0.48579 -3.79712,-1.07952 z"
     id="path841" />
  <path
     style="fill:#2e4052;stroke-width:0.616868"
     d="m 236.26055,406.47258 c -7.34483,-3.08586 -8.34239,-13.18395 -1.70234,-17.23245 1.27901,-0.77982 3.10612,-1.22663 5.02199,-1.22809 9.25507,-0.007 13.05804,11.33362 5.68613,16.95645 -2.4738,1.88686 -6.49586,2.5586 -9.00578,1.50409 z"
     id="path845" />
</svg>
