<?xml version="1.0" encoding="UTF-8" standalone="no"?>
<svg
   xmlns:dc="http://purl.org/dc/elements/1.1/"
   xmlns:cc="http://creativecommons.org/ns#"
   xmlns:rdf="http://www.w3.org/1999/02/22-rdf-syntax-ns#"
   xmlns:svg="http://www.w3.org/2000/svg"
   xmlns="http://www.w3.org/2000/svg"
   xmlns:sodipodi="http://sodipodi.sourceforge.net/DTD/sodipodi-0.dtd"
   xmlns:inkscape="http://www.inkscape.org/namespaces/inkscape"
   version="1.1"
   id="Layer_1"
   x="0px"
   y="0px"
   viewBox="0 0 512 512"
   style="enable-background:new 0 0 512 512;"
   xml:space="preserve"
   sodipodi:docname="shipped.svg"
   inkscape:version="1.0.2-2 (e86c870879, 2021-01-15)"><metadata
   id="metadata73"><rdf:RDF><cc:Work
       rdf:about=""><dc:format>image/svg+xml</dc:format><dc:type
         rdf:resource="http://purl.org/dc/dcmitype/StillImage" /></cc:Work></rdf:RDF></metadata><defs
   id="defs71" /><sodipodi:namedview
   pagecolor="#ffffff"
   bordercolor="#666666"
   borderopacity="1"
   objecttolerance="10"
   gridtolerance="10"
   guidetolerance="10"
   inkscape:pageopacity="0"
   inkscape:pageshadow="2"
   inkscape:window-width="1920"
   inkscape:window-height="1001"
   id="namedview69"
   showgrid="false"
   inkscape:zoom="1.6210937"
   inkscape:cx="96.39631"
   inkscape:cy="298.00159"
   inkscape:window-x="-9"
   inkscape:window-y="-9"
   inkscape:window-maximized="1"
   inkscape:current-layer="Layer_1" />
<g
   id="g6">
	<g
   id="g4">
		<path
   d="M476.158,231.363l-13.259-53.035c3.625-0.77,6.345-3.986,6.345-7.839v-8.551c0-18.566-15.105-33.67-33.67-33.67h-60.392    V110.63c0-9.136-7.432-16.568-16.568-16.568H50.772c-9.136,0-16.568,7.432-16.568,16.568V256c0,4.427,3.589,8.017,8.017,8.017    c4.427,0,8.017-3.589,8.017-8.017V110.63c0-0.295,0.239-0.534,0.534-0.534h307.841c0.295,0,0.534,0.239,0.534,0.534v145.372    c0,4.427,3.589,8.017,8.017,8.017c4.427,0,8.017-3.589,8.017-8.017v-9.088h94.569c0.008,0,0.014,0.002,0.021,0.002    c0.008,0,0.015-0.001,0.022-0.001c11.637,0.008,21.518,7.646,24.912,18.171h-24.928c-4.427,0-8.017,3.589-8.017,8.017v17.102    c0,13.851,11.268,25.119,25.119,25.119h9.086v35.273h-20.962c-6.886-19.883-25.787-34.205-47.982-34.205    s-41.097,14.322-47.982,34.205h-3.86v-60.393c0-4.427-3.589-8.017-8.017-8.017c-4.427,0-8.017,3.589-8.017,8.017v60.391H192.817    c-6.886-19.883-25.787-34.205-47.982-34.205s-41.097,14.322-47.982,34.205H50.772c-0.295,0-0.534-0.239-0.534-0.534v-17.637    h34.739c4.427,0,8.017-3.589,8.017-8.017s-3.589-8.017-8.017-8.017H8.017c-4.427,0-8.017,3.589-8.017,8.017    s3.589,8.017,8.017,8.017h26.188v17.637c0,9.136,7.432,16.568,16.568,16.568h43.304c-0.002,0.178-0.014,0.355-0.014,0.534    c0,27.996,22.777,50.772,50.772,50.772s50.772-22.776,50.772-50.772c0-0.18-0.012-0.356-0.014-0.534h180.67    c-0.002,0.178-0.014,0.355-0.014,0.534c0,27.996,22.777,50.772,50.772,50.772c27.995,0,50.772-22.776,50.772-50.772    c0-0.18-0.012-0.356-0.014-0.534h26.203c4.427,0,8.017-3.589,8.017-8.017v-85.511C512,251.989,496.423,234.448,476.158,231.363z     M375.182,144.301h60.392c9.725,0,17.637,7.912,17.637,17.637v0.534h-78.029V144.301z M375.182,230.881v-52.376h71.235    l13.094,52.376H375.182z M144.835,401.904c-19.155,0-34.739-15.583-34.739-34.739s15.584-34.739,34.739-34.739    c19.155,0,34.739,15.583,34.739,34.739S163.99,401.904,144.835,401.904z M427.023,401.904c-19.155,0-34.739-15.583-34.739-34.739    s15.584-34.739,34.739-34.739c19.155,0,34.739,15.583,34.739,34.739S446.178,401.904,427.023,401.904z M495.967,299.29h-9.086    c-5.01,0-9.086-4.076-9.086-9.086v-9.086h18.171V299.29z"
   id="path2" />
	</g>
</g>
<g
   id="g12">
	<g
   id="g10">
		<path
   d="M144.835,350.597c-9.136,0-16.568,7.432-16.568,16.568c0,9.136,7.432,16.568,16.568,16.568    c9.136,0,16.568-7.432,16.568-16.568C161.403,358.029,153.971,350.597,144.835,350.597z"
   id="path8" />
	</g>
</g>
<g
   id="g18">
	<g
   id="g16">
		<path
   d="M427.023,350.597c-9.136,0-16.568,7.432-16.568,16.568c0,9.136,7.432,16.568,16.568,16.568    c9.136,0,16.568-7.432,16.568-16.568C443.591,358.029,436.159,350.597,427.023,350.597z"
   id="path14" />
	</g>
</g>
<g
   id="g24">
	<g
   id="g22">
		<path
   d="M332.96,316.393H213.244c-4.427,0-8.017,3.589-8.017,8.017s3.589,8.017,8.017,8.017H332.96    c4.427,0,8.017-3.589,8.017-8.017S337.388,316.393,332.96,316.393z"
   id="path20" />
	</g>
</g>
<g
   id="g30">
	<g
   id="g28">
		<path
   d="M127.733,282.188H25.119c-4.427,0-8.017,3.589-8.017,8.017s3.589,8.017,8.017,8.017h102.614    c4.427,0,8.017-3.589,8.017-8.017S132.16,282.188,127.733,282.188z"
   id="path26" />
	</g>
</g>
<g
   id="g36">
	<g
   id="g34">
		<path
   d="M278.771,173.37c-3.13-3.13-8.207-3.13-11.337,0.001l-71.292,71.291l-37.087-37.087c-3.131-3.131-8.207-3.131-11.337,0    c-3.131,3.131-3.131,8.206,0,11.337l42.756,42.756c1.565,1.566,3.617,2.348,5.668,2.348s4.104-0.782,5.668-2.348l76.96-76.96    C281.901,181.576,281.901,176.501,278.771,173.37z"
   id="path32" />
	</g>
</g>
<g
   id="g38">
</g>
<g
   id="g40">
</g>
<g
   id="g42">
</g>
<g
   id="g44">
</g>
<g
   id="g46">
</g>
<g
   id="g48">
</g>
<g
   id="g50">
</g>
<g
   id="g52">
</g>
<g
   id="g54">
</g>
<g
   id="g56">
</g>
<g
   id="g58">
</g>
<g
   id="g60">
</g>
<g
   id="g62">
</g>
<g
   id="g64">
</g>
<g
   id="g66">
</g>
<path
   style="fill:#412233;stroke-width:0.616867;fill-opacity:0.01"
   d="m 134.38833,416.42897 c -10.24387,-2.15813 -20.76656,-8.48832 -27.88782,-16.77662 -6.529885,-7.60002 -11.098276,-18.4447 -11.768058,-27.93562 l -0.365346,-5.177 -23.814317,-0.18714 c -23.180641,-0.18216 -23.881878,-0.22329 -26.353627,-1.54561 -3.99402,-2.13669 -6.182233,-4.27566 -7.899468,-7.7217 -1.529899,-3.07011 -1.590131,-3.60699 -1.590131,-14.17348 V 331.9293 H 20.304402 c -13.9762172,0 -14.4675756,-0.0419 -16.5012049,-1.40806 -1.3552158,-0.91039 -2.419668,-2.33716 -3.01168267,-4.0368 -0.85087639,-2.44281 -0.82906106,-2.7869 0.30843377,-4.86485 0.67324,-1.22986 2.0076312,-2.81378 2.9653138,-3.51982 1.7136035,-1.26334 2.3549273,-1.28664 40.404819,-1.46809 21.264967,-0.1014 39.83823,-0.0158 41.273909,0.19031 6.880725,0.98764 9.104772,9.063 3.739438,13.57764 l -1.817921,1.52967 H 68.898375 50.13125 v 9.56145 9.56145 h 23.364059 23.364059 l 2.528583,-5.26971 c 7.652459,-15.94816 22.268229,-26.44822 39.947679,-28.69868 13.80844,-1.75771 28.93417,3.2893 39.52362,13.18785 5.24072,4.8988 8.30787,9.07999 11.42286,15.5718 l 2.49934,5.20874 h 83.1787 83.17871 l 0.17571,-31.30603 c 0.19252,-34.30019 0.11751,-33.60909 3.90144,-35.94768 2.36138,-1.45941 4.64672,-1.54797 7.31177,-0.28331 4.18283,1.98488 4.07576,1.0387 4.07576,36.01774 v 31.51928 l 2.31325,-0.0233 c 2.31057,-0.0233 2.31661,-0.0303 5.20326,-6.01446 5.15674,-10.6902 12.16924,-17.67976 23.01843,-22.94316 8.26393,-4.00917 13.08736,-5.14167 21.89879,-5.14167 8.79932,0 13.62047,1.12944 21.8988,5.1302 10.7625,5.20131 18.71553,13.26061 23.58248,23.89757 l 2.32595,5.08347 10.64097,0.006 10.64096,0.006 v -17.88916 -17.88916 l -4.47229,-0.004 c -13.36956,-0.0107 -22.78748,-5.24059 -27.48398,-15.26227 -1.61284,-3.44156 -1.66834,-3.93011 -1.83975,-16.1944 -0.26179,-18.73086 -0.49978,-18.50602 19.58825,-18.50602 8.5164,3.9e-4 12.97404,-0.2186 12.97404,-0.63698 0,-0.35056 -0.72206,-2.06228 -1.60457,-3.80384 -2.3031,-4.54495 -7.44566,-9.42348 -12.41447,-11.77709 l -4.17855,-1.97929 -51.04579,-0.16803 -51.04578,-0.16802 v 5.59624 c 0,6.35612 -0.84417,8.68407 -3.68102,10.15105 -3.62308,1.87358 -8.69254,0.49586 -10.62178,-2.88667 -0.65439,-1.14733 -0.84248,-15.70482 -0.97676,-75.59927 l -0.1663,-74.17831 H 204.64447 50.13125 l -0.0035,72.94457 c -0.0023,48.42457 -0.218297,73.71822 -0.642617,75.24608 -1.266714,4.56109 -6.693737,6.74939 -11.094616,4.4736 -3.906311,-2.02004 -3.682331,2.86558 -3.667451,-79.99748 0.01338,-74.53493 0.02865,-75.47608 1.268636,-78.21858 1.536382,-3.39805 4.383204,-6.454844 7.662394,-8.227551 l 2.46747,-1.333896 H 204.65655 363.19149 l 2.54656,1.362162 c 3.30651,1.768664 7.22157,6.248285 8.14004,9.313865 0.42943,1.4333 0.72545,6.59269 0.72545,12.64394 v 10.2226 l 33.46506,0.19257 33.46506,0.19257 4.38102,1.60283 c 15.02309,5.49632 23.06958,17.72318 23.06958,35.05487 0,7.4896 -0.94825,10.13452 -4.20916,11.74047 -1.06232,0.52317 -1.9378,1.30345 -1.9455,1.73394 -0.02,1.11729 12.21957,50.13505 12.9356,51.80524 0.32726,0.76338 1.13603,1.38795 1.79727,1.38795 2.52913,0 11.08387,3.55483 15.30012,6.35778 7.79946,5.18507 13.36352,12.49381 16.71688,21.95868 l 1.66021,4.68595 0.16228,47.80723 c 0.16004,47.14565 0.14491,47.83549 -1.09302,49.84917 -2.12991,3.46461 -3.89314,3.8183 -19.03503,3.8183 h -13.52829 l -0.4426,4.47229 c -2.17275,21.95435 -16.42801,39.02093 -37.49975,44.89517 -29.61922,8.25705 -60.11891,-13.34941 -63.05373,-44.66827 l -0.44035,-4.69919 h -90.60704 -90.60704 v 3.11035 c 0,4.10859 -1.60878,11.74072 -3.4084,16.16961 -6.30011,15.50467 -20.46214,27.3469 -36.71399,30.70008 -7.21652,1.48895 -13.43417,1.48142 -20.58439,-0.0249 z m 21.27175,-15.97898 c 8.08362,-2.52017 15.9828,-9.12495 19.93882,-16.67155 7.28118,-13.88976 4.88834,-30.17543 -6.04206,-41.12227 -7.03384,-7.04442 -14.87164,-10.31171 -24.73643,-10.31171 -9.86479,0 -17.7026,3.26729 -24.73643,10.31171 -6.86446,6.87478 -10.12758,14.82288 -10.10747,24.61916 0.0337,16.42975 11.19414,30.43598 27.13305,34.05178 5.1605,1.17067 13.20161,0.79047 18.55052,-0.87712 z m 277.89523,1.14287 c 9.98904,-1.79934 20.0948,-9.40297 24.53934,-18.46356 3.86441,-7.87794 4.85857,-15.11878 3.17605,-23.13253 -2.64477,-12.59702 -12.26605,-22.96299 -24.67198,-26.58161 -4.94604,-1.44268 -14.17685,-1.44268 -19.12289,0 -12.40593,3.61862 -22.02721,13.98459 -24.67199,26.58161 -1.68251,8.01375 -0.68835,15.25459 3.17606,23.13253 6.63552,13.52708 22.28652,21.21757 37.57541,18.46356 z m 62.57112,-111.30211 v -9.56145 h -9.25301 -9.25301 v 5.89088 c 0,6.30291 0.56333,8.12946 3.29385,10.68 1.96048,1.83125 4.38184,2.40897 10.43145,2.48887 l 4.78072,0.0632 z m -36.39518,-59.53992 c 0,-0.52063 -10.36715,-42.44499 -12.39088,-50.10827 l -0.61089,-2.31326 h -36.06297 -36.06297 v 26.52531 26.5253 h 42.56385 c 28.51549,0 42.56386,-0.20763 42.56386,-0.62908 z m -6.35642,-70.87946 c -0.72928,-6.1576 -4.82007,-11.69505 -10.60744,-14.35866 -3.07787,-1.41658 -3.15248,-1.41993 -35.62409,-1.59938 l -32.53976,-0.17983 v 9.58706 9.58706 h 39.56544 39.56544 z"
   id="path898" /><path
   style="fill:#412233;fill-opacity:0.91093117;stroke-width:0.616867"
   d="m 208.32731,329.92449 c -3.77392,-3.48447 -3.51267,-8.82103 0.57456,-11.73649 l 1.92336,-1.37195 60.14457,-0.18347 c 33.07952,-0.1009 61.31923,-0.0153 62.75491,0.19031 6.88037,0.98522 9.10495,9.06196 3.73944,13.57674 l -1.81792,1.52967 h -62.57378 -62.57378 z"
   id="path900" /><path
   style="fill:#412233;fill-opacity:0.910931;stroke-width:0.616867"
   d="m 208.42954,329.46006 c -1.88629,-2.08789 -2.23082,-2.91026 -2.23082,-5.32475 0,-2.47518 0.29341,-3.13223 2.20296,-4.93317 l 2.20296,-2.07765 h 61.98189 c 68.28779,0 64.52169,-0.21555 66.60444,3.81204 1.47572,2.85372 0.8224,6.33499 -1.67179,8.90835 l -2.02031,2.08442 h -62.41926 -62.41926 z"
   id="path902" /><path
   style="fill:#412233;fill-opacity:0.910931;stroke-width:0.616867"
   d="m 134.38833,416.42897 c -10.24387,-2.15813 -20.76656,-8.48832 -27.88782,-16.77662 -6.529885,-7.60002 -11.098276,-18.4447 -11.768058,-27.93562 l -0.365346,-5.177 -23.814317,-0.18714 c -23.180641,-0.18216 -23.881878,-0.22329 -26.353627,-1.54561 -3.99402,-2.13669 -6.182233,-4.27566 -7.899468,-7.7217 -1.529899,-3.07011 -1.590131,-3.60699 -1.590131,-14.17348 V 331.9293 H 20.304402 c -13.9762172,0 -14.4675756,-0.0419 -16.5012049,-1.40806 -1.3552158,-0.91039 -2.419668,-2.33716 -3.01168267,-4.0368 -0.85087639,-2.44281 -0.82906106,-2.7869 0.30843377,-4.86485 0.67324,-1.22986 2.0076312,-2.81378 2.9653138,-3.51982 1.7136035,-1.26334 2.3549273,-1.28664 40.404819,-1.46809 21.264967,-0.1014 39.83823,-0.0158 41.273909,0.19031 6.880725,0.98764 9.104772,9.063 3.739438,13.57764 l -1.817921,1.52967 H 68.898375 50.13125 v 9.56145 9.56145 h 23.364059 23.364059 l 2.528583,-5.26971 c 7.652459,-15.94816 22.268229,-26.44822 39.947679,-28.69868 13.80844,-1.75771 28.93417,3.2893 39.52362,13.18785 5.24072,4.8988 8.30787,9.07999 11.42286,15.5718 l 2.49934,5.20874 h 83.1787 83.17871 l 0.17571,-31.30603 c 0.19252,-34.30019 0.11751,-33.60909 3.90144,-35.94768 2.36138,-1.45941 4.64672,-1.54797 7.31177,-0.28331 4.18283,1.98488 4.07576,1.0387 4.07576,36.01774 v 31.51928 l 2.31325,-0.0233 c 2.31057,-0.0233 2.31661,-0.0303 5.20326,-6.01446 5.15674,-10.6902 12.16924,-17.67976 23.01843,-22.94316 8.26393,-4.00917 13.08736,-5.14167 21.89879,-5.14167 8.79932,0 13.62047,1.12944 21.8988,5.1302 10.7625,5.20131 18.71553,13.26061 23.58248,23.89757 l 2.32595,5.08347 10.64097,0.006 10.64096,0.006 v -17.88916 -17.88916 l -4.47229,-0.004 c -13.36956,-0.0107 -22.78748,-5.24059 -27.48398,-15.26227 -1.61284,-3.44156 -1.66834,-3.93011 -1.83975,-16.1944 -0.26179,-18.73086 -0.49978,-18.50602 19.58825,-18.50602 8.5164,3.9e-4 12.97404,-0.2186 12.97404,-0.63698 0,-0.35056 -0.72206,-2.06228 -1.60457,-3.80384 -2.3031,-4.54495 -7.44566,-9.42348 -12.41447,-11.77709 l -4.17855,-1.97929 -51.04579,-0.16803 -51.04578,-0.16802 v 5.59624 c 0,6.35612 -0.84417,8.68407 -3.68102,10.15105 -3.62308,1.87358 -8.69254,0.49586 -10.62178,-2.88667 -0.65439,-1.14733 -0.84248,-15.70482 -0.97676,-75.59927 l -0.1663,-74.17831 H 204.64447 50.13125 l -0.0035,72.94457 c -0.0023,48.42457 -0.218297,73.71822 -0.642617,75.24608 -1.266714,4.56109 -6.693737,6.74939 -11.094616,4.4736 -3.906311,-2.02004 -3.682331,2.86558 -3.667451,-79.99748 0.01338,-74.53493 0.02865,-75.47608 1.268636,-78.21858 1.536382,-3.39805 4.383204,-6.454844 7.662394,-8.227551 l 2.46747,-1.333896 H 204.65655 363.19149 l 2.54656,1.362162 c 3.30651,1.768664 7.22157,6.248285 8.14004,9.313865 0.42943,1.4333 0.72545,6.59269 0.72545,12.64394 v 10.2226 l 33.46506,0.19257 33.46506,0.19257 4.38102,1.60283 c 15.02309,5.49632 23.06958,17.72318 23.06958,35.05487 0,7.4896 -0.94825,10.13452 -4.20916,11.74047 -1.06232,0.52317 -1.9378,1.30345 -1.9455,1.73394 -0.02,1.11729 12.21957,50.13505 12.9356,51.80524 0.32726,0.76338 1.13603,1.38795 1.79727,1.38795 2.52913,0 11.08387,3.55483 15.30012,6.35778 7.79946,5.18507 13.36352,12.49381 16.71688,21.95868 l 1.66021,4.68595 0.16228,47.80723 c 0.16004,47.14565 0.14491,47.83549 -1.09302,49.84917 -2.12991,3.46461 -3.89314,3.8183 -19.03503,3.8183 h -13.52829 l -0.4426,4.47229 c -2.17275,21.95435 -16.42801,39.02093 -37.49975,44.89517 -29.61922,8.25705 -60.11891,-13.34941 -63.05373,-44.66827 l -0.44035,-4.69919 h -90.60704 -90.60704 v 3.11035 c 0,4.10859 -1.60878,11.74072 -3.4084,16.16961 -6.30011,15.50467 -20.46214,27.3469 -36.71399,30.70008 -7.21652,1.48895 -13.43417,1.48142 -20.58439,-0.0249 z m 21.27175,-15.97898 c 8.08362,-2.52017 15.9828,-9.12495 19.93882,-16.67155 7.28118,-13.88976 4.88834,-30.17543 -6.04206,-41.12227 -7.03384,-7.04442 -14.87164,-10.31171 -24.73643,-10.31171 -9.86479,0 -17.7026,3.26729 -24.73643,10.31171 -6.86446,6.87478 -10.12758,14.82288 -10.10747,24.61916 0.0337,16.42975 11.19414,30.43598 27.13305,34.05178 5.1605,1.17067 13.20161,0.79047 18.55052,-0.87712 z m 277.89523,1.14287 c 9.98904,-1.79934 20.0948,-9.40297 24.53934,-18.46356 3.86441,-7.87794 4.85857,-15.11878 3.17605,-23.13253 -2.64477,-12.59702 -12.26605,-22.96299 -24.67198,-26.58161 -4.94604,-1.44268 -14.17685,-1.44268 -19.12289,0 -12.40593,3.61862 -22.02721,13.98459 -24.67199,26.58161 -1.68251,8.01375 -0.68835,15.25459 3.17606,23.13253 6.63552,13.52708 22.28652,21.21757 37.57541,18.46356 z m 62.57112,-111.30211 v -9.56145 h -9.25301 -9.25301 v 5.89088 c 0,6.30291 0.56333,8.12946 3.29385,10.68 1.96048,1.83125 4.38184,2.40897 10.43145,2.48887 l 4.78072,0.0632 z m -36.39518,-59.53992 c 0,-0.52063 -10.36715,-42.44499 -12.39088,-50.10827 l -0.61089,-2.31326 h -36.06297 -36.06297 v 26.52531 26.5253 h 42.56385 c 28.51549,0 42.56386,-0.20763 42.56386,-0.62908 z m -6.35642,-70.87946 c -0.72928,-6.1576 -4.82007,-11.69505 -10.60744,-14.35866 -3.07787,-1.41658 -3.15248,-1.41993 -35.62409,-1.59938 l -32.53976,-0.17983 v 9.58706 9.58706 h 39.56544 39.56544 z"
   id="path904" /><path
   style="fill:#412233;fill-opacity:0.910931;stroke-width:0.616867"
   d="m 419.76942,381.53865 c -5.35784,-2.66992 -8.7707,-8.07632 -8.7707,-13.89387 0,-4.59011 1.106,-7.63763 3.9405,-10.85779 11.80874,-13.41543 32.94398,-0.94053 27.161,16.03157 -1.17423,3.44617 -4.96339,7.51859 -8.48217,9.11625 -3.91097,1.77574 -9.82999,1.60642 -13.84863,-0.39616 z"
   id="path906" /><path
   style="fill:#412233;fill-opacity:0.910931;stroke-width:0.616867"
   d="m 138.00056,381.66505 c -6.04257,-2.81375 -10.15113,-10.01155 -9.2921,-16.27887 0.53452,-3.89974 3.32657,-8.70662 6.42222,-11.0567 8.81221,-6.68985 21.98448,-2.44789 25.12913,8.09251 1.14,3.82111 1.13931,5.51514 -0.004,9.36447 -1.9675,6.62531 -8.37764,11.33079 -15.43558,11.33079 -2.59241,0 -4.63548,-0.43505 -6.81985,-1.4522 z"
   id="path908" /><path
   style="fill:#412233;fill-opacity:0.910931;stroke-width:0.616867"
   d="m 21.921712,297.08703 c -2.374823,-1.0324 -4.479826,-4.22587 -4.479826,-6.79628 0,-1.01783 0.541867,-2.73929 1.204149,-3.82547 2.518168,-4.12994 -0.731304,-3.92271 58.663634,-3.74116 l 53.726301,0.16422 2.1115,2.3042 c 2.51385,2.74327 2.80696,5.80055 0.86195,8.99075 -2.41919,3.96793 -0.17733,3.82076 -57.795706,3.79416 -43.507774,-0.0201 -52.634301,-0.16977 -54.292002,-0.89042 z"
   id="path910" /><path
   style="fill:#412233;fill-opacity:0.910931;stroke-width:0.616867"
   d=""
   id="path912" /><path
   style="fill:#412233;fill-opacity:0.910931;stroke-width:0.616867"
   d="m 170.24206,240.78714 c -12.503,-12.46844 -23.12954,-23.41947 -23.61454,-24.33564 -2.82423,-5.33499 2.20444,-11.7905 8.3167,-10.67648 1.87598,0.34192 5.2007,3.38177 21.80205,19.93398 l 19.58851,19.53054 36.8669,-36.84789 36.8669,-36.84789 h 2.87075 c 4.93349,0 8.49935,4.25429 7.61781,9.08852 -0.37455,2.05397 -4.87349,6.78618 -38.77902,40.78969 -21.09541,21.15638 -39.43792,39.26915 -40.76111,40.2506 -1.82892,1.35656 -3.08158,1.78445 -5.22402,1.78445 h -2.81822 z"
   id="path914" /></svg>
