<?xml version="1.0" encoding="UTF-8" standalone="no"?>
<svg
   xmlns:dc="http://purl.org/dc/elements/1.1/"
   xmlns:cc="http://creativecommons.org/ns#"
   xmlns:rdf="http://www.w3.org/1999/02/22-rdf-syntax-ns#"
   xmlns:svg="http://www.w3.org/2000/svg"
   xmlns="http://www.w3.org/2000/svg"
   xmlns:sodipodi="http://sodipodi.sourceforge.net/DTD/sodipodi-0.dtd"
   xmlns:inkscape="http://www.inkscape.org/namespaces/inkscape"
   version="1.1"
   width="512"
   height="512"
   x="0"
   y="0"
   viewBox="0 0 512.002 512.002"
   style="enable-background:new 0 0 512 512"
   xml:space="preserve"
   class=""
   id="svg40"
   sodipodi:docname="slide.svg"
   inkscape:version="1.0.2-2 (e86c870879, 2021-01-15)"><metadata
     id="metadata46"><rdf:RDF><cc:Work
         rdf:about=""><dc:format>image/svg+xml</dc:format><dc:type
           rdf:resource="http://purl.org/dc/dcmitype/StillImage" /><dc:title></dc:title></cc:Work></rdf:RDF></metadata><defs
     id="defs44" /><sodipodi:namedview
     pagecolor="#ffffff"
     bordercolor="#666666"
     borderopacity="1"
     objecttolerance="10"
     gridtolerance="10"
     guidetolerance="10"
     inkscape:pageopacity="0"
     inkscape:pageshadow="2"
     inkscape:window-width="1920"
     inkscape:window-height="1001"
     id="namedview42"
     showgrid="false"
     inkscape:zoom="1.6210938"
     inkscape:cx="256"
     inkscape:cy="256"
     inkscape:window-x="-9"
     inkscape:window-y="-9"
     inkscape:window-maximized="1"
     inkscape:current-layer="svg40" /><path
     style="fill:#412233;fill-opacity:0.910931;stroke-width:0.616869"
     d="m 2.5519652,129.00684 c 4.4626974,-8.93066 14.2724258,-12.92982 24.0290338,-9.796 3.290253,1.05683 6.809206,4.51253 116.436291,114.34289 L 256.0608,346.80688 369.1001,233.55343 C 478.73011,123.71576 482.24173,120.26714 485.53219,119.21054 c 9.75739,-3.13321 19.56641,0.86578 24.02903,9.7963 1.60971,3.22131 1.8795,4.44769 1.8795,8.54374 0,8.89462 9.50988,-1.28318 -123.68241,132.36917 C 275.42444,382.64164 267.8401,390.121 264.08298,391.8834 c -5.58448,2.61958 -10.46921,2.6194 -16.05277,-6.1e-4 -3.7567,-1.76278 -11.35414,-9.2552 -123.67533,-121.96586 C -8.8266892,136.27354 0.67246784,146.43965 0.67246784,137.55058 c 0,-4.09605 0.26978105,-5.32243 1.87949736,-8.54374 z"
     id="path871" /></svg>
