<?xml version="1.0" encoding="UTF-8" standalone="no"?>
<svg
   xmlns:dc="http://purl.org/dc/elements/1.1/"
   xmlns:cc="http://creativecommons.org/ns#"
   xmlns:rdf="http://www.w3.org/1999/02/22-rdf-syntax-ns#"
   xmlns:svg="http://www.w3.org/2000/svg"
   xmlns="http://www.w3.org/2000/svg"
   xmlns:sodipodi="http://sodipodi.sourceforge.net/DTD/sodipodi-0.dtd"
   xmlns:inkscape="http://www.inkscape.org/namespaces/inkscape"
   version="1.1"
   id="Capa_1"
   x="0px"
   y="0px"
   viewBox="0 0 512 512"
   style="enable-background:new 0 0 512 512;"
   xml:space="preserve"
   sodipodi:docname="wallet.svg"
   inkscape:version="1.0.2-2 (e86c870879, 2021-01-15)"><metadata
   id="metadata49"><rdf:RDF><cc:Work
       rdf:about=""><dc:format>image/svg+xml</dc:format><dc:type
         rdf:resource="http://purl.org/dc/dcmitype/StillImage" /></cc:Work></rdf:RDF></metadata><defs
   id="defs47" /><sodipodi:namedview
   pagecolor="#ffffff"
   bordercolor="#666666"
   borderopacity="1"
   objecttolerance="10"
   gridtolerance="10"
   guidetolerance="10"
   inkscape:pageopacity="0"
   inkscape:pageshadow="2"
   inkscape:window-width="1920"
   inkscape:window-height="1001"
   id="namedview45"
   showgrid="false"
   inkscape:zoom="1.1462864"
   inkscape:cx="357.62874"
   inkscape:cy="311.79504"
   inkscape:window-x="-9"
   inkscape:window-y="-9"
   inkscape:window-maximized="1"
   inkscape:current-layer="Capa_1" />
<g
   id="g6">
	<g
   id="g4">
		<path
   d="M487.59,299.894h-7.662v-69.015c0-10.926-5.438-20.6-13.743-26.478v-9.397c0-13.631-11.089-24.72-24.72-24.72h-5.721    l21.889-32.12c7.337-10.766,4.547-25.495-6.219-32.833L302.883,4.111c-5.215-3.555-11.501-4.867-17.705-3.69    c-6.201,1.175-11.574,4.694-15.128,9.91L141.849,198.454h-35.675l8.607-87.13c0.097-0.982,0.735-1.833,1.625-2.168    c11.089-4.181,20.699-11.989,27.059-21.985c0.501-0.787,1.446-1.237,2.424-1.138l55.955,5.528    c4.012,0.389,7.581-2.533,7.977-6.543s-2.533-7.581-6.543-7.977l-55.955-5.528c-6.495-0.636-12.689,2.357-16.169,7.825    c-4.676,7.35-11.742,13.09-19.895,16.164c-6.137,2.314-10.351,7.826-10.999,14.387l-8.748,88.564h-9.303L95.821,60.649    c0.49-4.96,4.917-8.604,9.883-8.107l113.074,11.17c4.01,0.387,7.581-2.533,7.977-6.543s-2.533-7.581-6.543-7.977l-113.074-11.17    C94.174,36.743,82.581,46.248,81.3,59.214l-10.972,111.07H51.643c-13.63,0-24.72,11.089-24.72,24.72v6.41    c-11.151,5.134-18.915,16.406-18.915,29.465v248.695c0,17.88,14.546,32.426,32.427,32.426h407.067    c17.88,0,32.426-14.546,32.426-32.426V410.56h7.662c9.044,0,16.401-7.357,16.401-16.4v-77.865    C503.992,307.251,496.634,299.894,487.59,299.894z M441.465,184.876L441.465,184.876c5.586-0.001,10.129,4.543,10.129,10.129    v3.717c-1.342-0.17-2.705-0.267-4.092-0.267h-30.955l9.253-13.579H441.465z M282.107,18.547c1.36-1.995,3.415-3.341,5.787-3.791    c0.567-0.107,1.136-0.161,1.701-0.161c1.797,0,3.553,0.538,5.071,1.572l148.531,101.22c4.118,2.807,5.186,8.441,2.38,12.559    l-46.686,68.506h-11.204l22.889-33.587c3.712-5.447,4.018-12.379,0.796-18.092c-4.282-7.59-6.018-16.527-4.888-25.166    c0.84-6.427-1.988-12.701-7.38-16.375L322.106,52.76c-5.393-3.675-12.267-4.012-17.941-0.879    c-7.625,4.21-16.578,5.863-25.208,4.655c-6.4-0.898-12.891,1.992-16.548,7.357l-91.699,134.56h-11.204L282.107,18.547z     M285.32,142.438c-31.771,0-57.851,24.773-59.976,56.015h-36.979L274.464,72.11c0.001,0,0.001,0,0.001,0    c0.489-0.719,1.3-1.147,2.133-1.147c0.111,0,0.222,0.008,0.333,0.023c11.738,1.642,23.913-0.604,34.285-6.331    c0.816-0.452,1.864-0.387,2.672,0.163l76.999,52.473c0.806,0.55,1.249,1.502,1.129,2.426c-1.537,11.749,0.825,23.903,6.648,34.225    c0.467,0.829,0.41,1.891-0.144,2.706l-28.488,41.804h-24.733C343.172,167.211,317.093,142.438,285.32,142.438z M330.668,198.454    h-90.695c2.09-23.189,21.624-41.424,45.347-41.424C309.044,157.029,328.579,175.265,330.668,198.454z M41.514,195.004    c0-5.586,4.543-10.13,10.129-10.13h17.244l-1.341,13.579H41.514V195.004z M22.599,230.879c0-9.834,8.001-17.835,17.836-17.835    h407.067c9.835,0,17.835,8.001,17.835,17.835v20.244H22.599V230.879z M465.337,479.574c0,9.834-8,17.835-17.835,17.835H40.435    c-9.835,0-17.836-8.001-17.836-17.835V459.33h39.342c4.03,0,7.295-3.266,7.295-7.295c0-4.029-3.266-7.295-7.295-7.295H22.599    V265.714h442.738v34.18h-69.366h-0.001c-21.856,0-40.788,12.74-49.773,31.181c-0.03,0.062-0.064,0.122-0.095,0.184    c-0.076,0.157-0.142,0.32-0.216,0.478c-1.07,2.273-2,4.626-2.757,7.054c-0.002,0.007-0.004,0.013-0.006,0.02    c-1.615,5.189-2.486,10.702-2.486,16.416c0,30.511,24.822,55.333,55.332,55.333h0.001h69.366v34.18H108.655    c-4.03,0-7.295,3.266-7.295,7.295c0,4.029,3.266,7.295,7.295,7.295h356.682V479.574z M489.401,394.159    c0,0.998-0.812,1.81-1.811,1.81h-91.618c-15.445,0-28.911-8.639-35.818-21.338c-0.314-0.577-0.614-1.163-0.901-1.756    c-0.573-1.187-1.09-2.406-1.547-3.654c-1.602-4.366-2.476-9.08-2.476-13.994s0.875-9.628,2.476-13.994    c0.458-1.247,0.975-2.466,1.547-3.654c0.287-0.593,0.587-1.179,0.901-1.756c6.907-12.699,20.373-21.338,35.818-21.338h91.618    c0.998,0,1.811,0.812,1.811,1.81V394.159z"
   id="path2" />
	</g>
</g>
<g
   id="g12">
	<g
   id="g10">
		<path
   d="M397.681,325.627c-16.322,0-29.6,13.279-29.6,29.6c0,16.321,13.278,29.599,29.6,29.599c16.322,0,29.6-13.278,29.6-29.599    C427.281,338.906,414.003,325.627,397.681,325.627z M397.681,370.235c-8.276,0-15.009-6.733-15.009-15.008    c0-8.275,6.733-15.009,15.009-15.009s15.009,6.733,15.009,15.009S405.957,370.235,397.681,370.235z"
   id="path8" />
	</g>
</g>
<g
   id="g14">
</g>
<g
   id="g16">
</g>
<g
   id="g18">
</g>
<g
   id="g20">
</g>
<g
   id="g22">
</g>
<g
   id="g24">
</g>
<g
   id="g26">
</g>
<g
   id="g28">
</g>
<g
   id="g30">
</g>
<g
   id="g32">
</g>
<g
   id="g34">
</g>
<g
   id="g36">
</g>
<g
   id="g38">
</g>
<g
   id="g40">
</g>
<g
   id="g42">
</g>
<path
   style="fill:#412233;stroke-width:0.616867;fill-opacity:0.01"
   d="M 36.703614,511.36076 C 25.882787,509.92564 16.656019,503.3304 11.752684,493.526 8.1250467,486.2724 8.3277108,494.5054 8.3277108,354.39036 v -128.9253 l 1.4343378,-4.00964 c 2.7818494,-7.77656 7.4567324,-13.79005 13.7310004,-17.66275 l 3.64912,-2.25236 v -4.40923 c 0,-5.24619 1.280095,-10.56922 3.419706,-14.22019 2.186674,-3.73127 7.098837,-8.131 11.250596,-10.07693 3.375655,-1.58217 4.070844,-1.66649 16.171448,-1.96167 l 12.644162,-0.30843 5.328439,-54.28434 c 2.930639,-29.856387 5.612896,-56.018832 5.960568,-58.138767 0.854892,-5.212695 2.847306,-9.104509 6.572871,-12.838887 3.661238,-3.669904 8.760993,-6.260144 13.381401,-6.796612 4.69101,-0.544666 117.90865,10.641039 120.69075,11.924034 5.08377,2.344435 5.01645,9.674881 -0.11121,12.108113 -2.31988,1.100856 2.58029,1.521701 -93.21717,-8.005881 -12.21397,-1.214747 -23.67072,-2.090945 -25.45943,-1.947108 -3.53981,0.284651 -6.219911,2.185618 -7.499597,5.319383 -0.514924,1.260973 -14.23133,136.033735 -14.23133,139.832225 0,0.70789 1.033062,0.89531 4.93494,0.89531 2.714217,0 4.93494,-0.26333 4.93494,-0.58517 0,-4.56647 8.925397,-89.38036 9.657547,-91.77117 1.50851,-4.92594 4.31696,-7.730572 10.88725,-10.872414 7.10044,-3.395356 12.64211,-7.541168 16.01577,-11.981657 7.44878,-9.80427 10.2702,-11.553317 18.34064,-11.369657 2.88385,0.06562 17.0888,1.323082 31.56655,2.794341 28.7339,2.92001 28.81794,2.939263 30.51054,6.990219 1.51568,3.627533 -0.83577,8.185733 -4.70842,9.127116 -0.84819,0.206188 -14.31132,-0.893693 -29.91807,-2.444177 -15.60675,-1.550484 -28.93388,-2.681591 -29.61586,-2.513581 -0.68197,0.168016 -1.76313,1.191159 -2.40257,2.27365 -1.82808,3.094695 -9.55007,10.924513 -13.68182,13.87286 -2.06726,1.47517 -5.8891,3.69387 -8.493,4.93045 -2.6039,1.23659 -4.91446,2.53975 -5.13458,2.89592 -0.38475,0.62253 -8.7904,83.48445 -8.82105,86.95688 l -0.015,1.69639 h 18.04931 18.0493 l 62.91455,-92.34835 c 34.603,-50.791596 64.09034,-93.952276 65.52741,-95.912626 1.43707,-1.96035 3.75638,-4.3926442 5.15403,-5.4050983 6.30008,-4.56375184 15.12201,-5.75301909 21.97283,-2.9621155 2.01053,0.8190534 17.58897,11.0190698 35.64824,23.3407558 17.64241,12.037269 51.61303,35.199859 75.49027,51.47242 23.87724,16.272563 44.53147,30.698374 45.8983,32.057364 1.36683,1.35899 3.34278,4.27524 4.39099,6.48054 1.69775,3.57179 1.90419,4.61588 1.89054,9.56144 -0.012,4.36262 -0.30254,6.18238 -1.35627,8.49569 -0.73753,1.61913 -6.37513,10.33541 -12.52801,19.36952 -6.15287,9.03411 -11.31853,16.76832 -11.47925,17.18714 -0.21644,0.56403 1.35739,0.82877 6.06928,1.02097 5.36125,0.21868 6.9207,0.52863 9.91797,1.97128 4.92731,2.37162 9.33108,6.8503 11.73062,11.93018 1.82908,3.87221 1.99085,4.74374 2.20065,11.85605 l 0.22645,7.67661 2.92371,2.62867 c 4.00584,3.60159 7.15334,8.36002 9.1424,13.82158 l 1.67228,4.59171 0.20052,37.4747 0.20053,37.4747 h 5.69664 c 4.88574,0 6.15088,0.22635 8.88763,1.59013 3.61611,1.80199 5.91389,4.24429 7.78978,8.27975 1.2697,2.73139 1.29039,3.45345 1.29039,45.03132 0,41.55031 -0.0215,42.30186 -1.28811,45.03825 -1.68155,3.6328 -4.72364,6.61801 -8.56885,8.4086 -2.49346,1.16114 -4.14189,1.44348 -8.45585,1.44833 l -5.35859,0.006 -0.22383,37.16626 c -0.20301,33.7111 -0.3268,37.48168 -1.33157,40.55904 -3.70111,11.33567 -11.12178,18.7664 -22.58043,22.61104 -3.26913,1.09687 -10.90121,1.14128 -209.42651,1.2184 C 133.12,511.81579 38.739277,511.63089 36.703614,511.36091 Z M 454.70683,496.18517 c 4.08292,-1.88788 7.57094,-5.28668 9.25599,-9.01924 1.35266,-2.99628 1.4745,-4.14948 1.66139,-15.72497 l 0.20167,-12.49156 h -179.2761 c -197.139892,0 -181.76821,0.3078 -183.8309,-3.68102 -2.1034,-4.06752 -0.0316,-8.60955 4.5015,-9.86858 1.52651,-0.42397 60.80261,-0.63261 180.39408,-0.63491 l 178.12048,-0.003 V 427.4896 410.21731 l -37.4747,-0.008 c -41.15212,-0.009 -43.33562,-0.17265 -52.578,-3.94292 -12.26709,-5.00414 -23.01942,-14.90932 -28.85751,-26.58392 -6.74358,-13.48531 -7.57056,-30.42473 -2.1497,-44.03364 6.4839,-16.27766 19.62829,-28.28952 36.66319,-33.50428 4.4425,-1.35995 5.13098,-1.38443 44.45455,-1.5808 l 39.94217,-0.19947 V 282.80839 265.25301 H 243.97108 22.207229 v 89.72373 89.72373 l 20.929397,0.18471 c 20.113728,0.1775 20.997227,0.23496 22.669879,1.47432 0.957265,0.70928 2.128196,2.38585 2.602069,3.72569 0.76191,2.15426 0.742917,2.68615 -0.164185,4.59773 -2.012671,4.24139 -2.161841,4.26648 -25.366967,4.26648 H 22.099417 l 0.216205,12.8 c 0.202709,12.00104 0.306484,12.97326 1.662572,15.5759 1.742055,3.34339 4.655724,6.53875 7.173613,7.86715 5.004493,2.64029 -3.268769,2.54639 213.744583,2.42599 l 206.95903,-0.11483 z m 34.93625,-140.49241 c 0.11813,-29.78475 -0.0254,-40.24954 -0.56064,-40.89453 -0.60971,-0.73466 -8.29864,-0.83414 -50.43344,-0.65255 -55.80841,0.24054 -52.37113,-0.0345 -62.05141,4.966 -9.40305,4.85734 -16.61106,13.77678 -20.03493,24.79193 -1.72788,5.55888 -1.90958,15.41756 -0.39223,21.28193 3.07674,11.89121 10.76946,21.40966 21.66843,26.81104 8.17022,4.04904 6.48107,3.94419 61.67921,3.82857 l 49.96627,-0.10467 z M 465.61877,238.88193 c -0.20866,-11.92423 -0.32273,-13.00095 -1.66719,-15.7369 -0.79377,-1.61529 -2.80077,-4.15746 -4.46001,-5.64926 -5.73112,-5.15276 16.21828,-4.67649 -215.52049,-4.67649 -231.803741,0 -209.785438,-0.4798 -215.543162,4.69689 -1.671712,1.50301 -3.685852,4.04517 -4.475866,5.64925 -1.338359,2.71746 -1.450593,3.79008 -1.644512,15.71651 l -0.208123,12.8 H 243.97108 465.84275 Z m -13.66763,-43.35041 c -0.94007,-8.99407 -4.26749,-11.08815 -17.61869,-11.08815 h -8.61801 l -4.66445,6.7308 c -2.56545,3.70194 -4.66445,6.88983 -4.66445,7.08422 0,0.19438 7.70313,0.43178 17.11807,0.52756 9.41494,0.0958 17.50461,0.23896 17.97704,0.31819 0.68994,0.11571 0.78251,-0.58731 0.47049,-3.57262 z m -383.876476,0.47812 c 0.197629,-1.44193 0.542608,-4.63422 0.766617,-7.09398 l 0.407287,-4.47229 h -9.852562 c -9.120872,0 -10.054464,0.10652 -12.571272,1.43423 -3.572803,1.8848 -5.470875,5.17783 -5.484466,9.51517 l -0.01015,3.23856 H 54.522729 67.715338 Z M 216.52048,131.93112 c 24.93687,-36.660436 46.38385,-67.85601 47.65996,-69.323495 1.27611,-1.467484 3.63563,-3.315978 5.24337,-4.107767 2.65469,-1.307391 3.80138,-1.446628 12.48462,-1.515951 10.73531,-0.08571 13.85351,-0.715025 21.48993,-4.337115 3.97333,-1.88462 5.4159,-2.249707 9.04833,-2.289949 3.60226,-0.0399 4.8172,0.229247 7.30091,1.617419 5.30995,2.967789 79.51295,53.752098 81.71047,55.922408 3.85273,3.80501 4.55284,6.37831 4.69389,17.25283 0.11271,8.68937 0.28895,10.10918 1.79399,14.45203 0.91795,2.64879 2.42021,6.25747 3.33835,8.01928 1.34989,2.59029 1.66959,4.02962 1.67059,7.52136 0.002,5.52911 -0.0677,5.65778 -14.2569,26.47011 l -11.39277,16.71061 5.98353,0.17752 c 3.29094,0.0976 6.03998,0.0976 6.10898,0 4.34472,-6.14816 46.2737,-68.14552 46.90291,-69.35198 1.26998,-2.43507 1.16917,-6.91502 -0.2063,-9.16771 -1.43698,-2.35341 -151.10101,-104.520242 -154.41765,-105.411845 -2.94428,-0.791503 -6.50551,0.252371 -8.64975,2.535429 C 281.84383,18.364019 167.20708,186.0927 160.11893,196.93494 l -1.10901,1.69639 6.0854,-0.0225 6.0854,-0.0224 45.33976,-66.65535 z m 9.50642,63.05187 c 1.37164,-12.12375 7.39091,-24.38919 16.62566,-33.87811 11.73739,-12.06042 26.10412,-18.18691 42.64864,-18.18691 16.12802,0 30.1388,5.79431 41.84882,17.30703 2.33291,2.2936 5.46654,5.87916 6.96362,7.96791 5.1733,7.21789 9.50146,18.30115 10.46187,26.79008 l 0.41276,3.64834 12.72033,-0.01 12.72032,-0.01 14.10853,-20.7205 c 7.7597,-11.39627 14.24322,-21.23552 14.40783,-21.86499 0.16461,-0.62948 -0.70492,-3.48257 -1.93229,-6.34019 -3.76947,-8.77622 -4.81171,-13.76377 -4.90836,-23.48836 l -0.0854,-8.5878 -39.17109,-26.748181 c -31.37169,-21.421864 -39.47809,-26.693577 -40.7132,-26.475921 -0.84819,0.149473 -3.96265,1.280728 -6.92101,2.513901 -7.11838,2.96725 -13.1211,4.04047 -22.59915,4.04047 h -7.82126 l -43.17026,63.326131 c -23.74364,34.82938 -43.26278,63.55998 -43.37587,63.84579 -0.11309,0.2858 8.24816,0.51965 18.58056,0.51965 h 18.78619 z m 104.49896,0.17163 c -2.28581,-14.57643 -11.99808,-27.50184 -25.4849,-33.91612 -6.84446,-3.25521 -11.33816,-4.21466 -19.73976,-4.21466 -8.40159,0 -12.8953,0.95945 -19.73975,4.21466 -9.25143,4.39995 -16.90294,11.96507 -21.28615,21.04584 -2.51302,5.20628 -4.31385,11.23062 -4.31385,14.4312 v 1.91579 h 45.5548 45.55481 z"
   id="path874" /><path
   style="fill:#412233;fill-opacity:0.01;stroke-width:0.616867"
   d="m 389.23647,383.15386 c -10.11581,-3.23805 -17.60898,-11.45964 -20.08866,-22.04151 -2.25387,-9.61823 1.55673,-21.11022 9.21118,-27.77908 3.50627,-3.0548 10.39102,-6.22145 15.15406,-6.97013 20.0816,-3.15653 37.5595,16.26863 32.41364,36.02493 -2.64636,10.16004 -10.21038,17.84293 -20.60251,20.92627 -4.37553,1.29822 -11.76082,1.22455 -16.08771,-0.16048 z m 12.88592,-13.37663 c 3.85962,-1.14618 7.83135,-4.51584 9.41108,-7.98446 1.72362,-3.78457 1.53951,-9.77304 -0.42146,-13.70818 -5.63416,-11.3063 -22.06028,-10.66871 -27.37053,1.0624 -3.71049,8.19701 1.03931,18.3993 9.64322,20.71306 3.92994,1.05684 4.93202,1.04735 8.73769,-0.0828 z"
   id="path876" /><path
   style="fill:#412233;fill-opacity:0.01;stroke-width:0.616867"
   d="M 36.703614,511.36076 C 25.882787,509.92564 16.656019,503.3304 11.752684,493.526 8.1250467,486.2724 8.3277108,494.5054 8.3277108,354.39036 v -128.9253 l 1.4343378,-4.00964 c 2.7818494,-7.77656 7.4567324,-13.79005 13.7310004,-17.66275 l 3.64912,-2.25236 v -4.40923 c 0,-5.24619 1.280095,-10.56922 3.419706,-14.22019 2.186674,-3.73127 7.098837,-8.131 11.250596,-10.07693 3.375655,-1.58217 4.070844,-1.66649 16.171448,-1.96167 l 12.644162,-0.30843 5.328439,-54.28434 c 2.930639,-29.856387 5.612896,-56.018832 5.960568,-58.138767 0.854892,-5.212695 2.847306,-9.104509 6.572871,-12.838887 3.661238,-3.669904 8.760993,-6.260144 13.381401,-6.796612 4.69101,-0.544666 117.90865,10.641039 120.69075,11.924034 5.08377,2.344435 5.01645,9.674881 -0.11121,12.108113 -2.31988,1.100856 2.58029,1.521701 -93.21717,-8.005881 -12.21397,-1.214747 -23.67072,-2.090945 -25.45943,-1.947108 -3.53981,0.284651 -6.219911,2.185618 -7.499597,5.319383 -0.514924,1.260973 -14.23133,136.033735 -14.23133,139.832225 0,0.70789 1.033062,0.89531 4.93494,0.89531 2.714217,0 4.93494,-0.26333 4.93494,-0.58517 0,-4.56647 8.925397,-89.38036 9.657547,-91.77117 1.50851,-4.92594 4.31696,-7.730572 10.88725,-10.872414 7.10044,-3.395356 12.64211,-7.541168 16.01577,-11.981657 7.44878,-9.80427 10.2702,-11.553317 18.34064,-11.369657 2.88385,0.06562 17.0888,1.323082 31.56655,2.794341 28.7339,2.92001 28.81794,2.939263 30.51054,6.990219 1.51568,3.627533 -0.83577,8.185733 -4.70842,9.127116 -0.84819,0.206188 -14.31132,-0.893693 -29.91807,-2.444177 -15.60675,-1.550484 -28.93388,-2.681591 -29.61586,-2.513581 -0.68197,0.168016 -1.76313,1.191159 -2.40257,2.27365 -1.82808,3.094695 -9.55007,10.924513 -13.68182,13.87286 -2.06726,1.47517 -5.8891,3.69387 -8.493,4.93045 -2.6039,1.23659 -4.91446,2.53975 -5.13458,2.89592 -0.38475,0.62253 -8.7904,83.48445 -8.82105,86.95688 l -0.015,1.69639 h 18.04931 18.0493 l 62.91455,-92.34835 c 34.603,-50.791596 64.09034,-93.952276 65.52741,-95.912626 1.43707,-1.96035 3.75638,-4.3926442 5.15403,-5.4050983 6.30008,-4.56375184 15.12201,-5.75301909 21.97283,-2.9621155 2.01053,0.8190534 17.58897,11.0190698 35.64824,23.3407558 17.64241,12.037269 51.61303,35.199859 75.49027,51.47242 23.87724,16.272563 44.53147,30.698374 45.8983,32.057364 1.36683,1.35899 3.34278,4.27524 4.39099,6.48054 1.69775,3.57179 1.90419,4.61588 1.89054,9.56144 -0.012,4.36262 -0.30254,6.18238 -1.35627,8.49569 -0.73753,1.61913 -6.37513,10.33541 -12.52801,19.36952 -6.15287,9.03411 -11.31853,16.76832 -11.47925,17.18714 -0.21644,0.56403 1.35739,0.82877 6.06928,1.02097 5.36125,0.21868 6.9207,0.52863 9.91797,1.97128 4.92731,2.37162 9.33108,6.8503 11.73062,11.93018 1.82908,3.87221 1.99085,4.74374 2.20065,11.85605 l 0.22645,7.67661 2.92371,2.62867 c 4.00584,3.60159 7.15334,8.36002 9.1424,13.82158 l 1.67228,4.59171 0.20052,37.4747 0.20053,37.4747 h 5.69664 c 4.88574,0 6.15088,0.22635 8.88763,1.59013 3.61611,1.80199 5.91389,4.24429 7.78978,8.27975 1.2697,2.73139 1.29039,3.45345 1.29039,45.03132 0,41.55031 -0.0215,42.30186 -1.28811,45.03825 -1.68155,3.6328 -4.72364,6.61801 -8.56885,8.4086 -2.49346,1.16114 -4.14189,1.44348 -8.45585,1.44833 l -5.35859,0.006 -0.22383,37.16626 c -0.20301,33.7111 -0.3268,37.48168 -1.33157,40.55904 -3.70111,11.33567 -11.12178,18.7664 -22.58043,22.61104 -3.26913,1.09687 -10.90121,1.14128 -209.42651,1.2184 C 133.12,511.81579 38.739277,511.63089 36.703614,511.36091 Z M 454.70683,496.18517 c 4.08292,-1.88788 7.57094,-5.28668 9.25599,-9.01924 1.35266,-2.99628 1.4745,-4.14948 1.66139,-15.72497 l 0.20167,-12.49156 h -179.2761 c -197.139892,0 -181.76821,0.3078 -183.8309,-3.68102 -2.1034,-4.06752 -0.0316,-8.60955 4.5015,-9.86858 1.52651,-0.42397 60.80261,-0.63261 180.39408,-0.63491 l 178.12048,-0.003 V 427.4896 410.21731 l -37.4747,-0.008 c -41.15212,-0.009 -43.33562,-0.17265 -52.578,-3.94292 -12.26709,-5.00414 -23.01942,-14.90932 -28.85751,-26.58392 -6.74358,-13.48531 -7.57056,-30.42473 -2.1497,-44.03364 6.4839,-16.27766 19.62829,-28.28952 36.66319,-33.50428 4.4425,-1.35995 5.13098,-1.38443 44.45455,-1.5808 l 39.94217,-0.19947 V 282.80839 265.25301 H 243.97108 22.207229 v 89.72373 89.72373 l 20.929397,0.18471 c 20.113728,0.1775 20.997227,0.23496 22.669879,1.47432 0.957265,0.70928 2.128196,2.38585 2.602069,3.72569 0.76191,2.15426 0.742917,2.68615 -0.164185,4.59773 -2.012671,4.24139 -2.161841,4.26648 -25.366967,4.26648 H 22.099417 l 0.216205,12.8 c 0.202709,12.00104 0.306484,12.97326 1.662572,15.5759 1.742055,3.34339 4.655724,6.53875 7.173613,7.86715 5.004493,2.64029 -3.268769,2.54639 213.744583,2.42599 l 206.95903,-0.11483 z m 34.93625,-140.49241 c 0.11813,-29.78475 -0.0254,-40.24954 -0.56064,-40.89453 -0.60971,-0.73466 -8.29864,-0.83414 -50.43344,-0.65255 -55.80841,0.24054 -52.37113,-0.0345 -62.05141,4.966 -9.40305,4.85734 -16.61106,13.77678 -20.03493,24.79193 -1.72788,5.55888 -1.90958,15.41756 -0.39223,21.28193 3.07674,11.89121 10.76946,21.40966 21.66843,26.81104 8.17022,4.04904 6.48107,3.94419 61.67921,3.82857 l 49.96627,-0.10467 z M 465.61877,238.88193 c -0.20866,-11.92423 -0.32273,-13.00095 -1.66719,-15.7369 -0.79377,-1.61529 -2.80077,-4.15746 -4.46001,-5.64926 -5.73112,-5.15276 16.21828,-4.67649 -215.52049,-4.67649 -231.803741,0 -209.785438,-0.4798 -215.543162,4.69689 -1.671712,1.50301 -3.685852,4.04517 -4.475866,5.64925 -1.338359,2.71746 -1.450593,3.79008 -1.644512,15.71651 l -0.208123,12.8 H 243.97108 465.84275 Z m -13.66763,-43.35041 c -0.94007,-8.99407 -4.26749,-11.08815 -17.61869,-11.08815 h -8.61801 l -4.66445,6.7308 c -2.56545,3.70194 -4.66445,6.88983 -4.66445,7.08422 0,0.19438 7.70313,0.43178 17.11807,0.52756 9.41494,0.0958 17.50461,0.23896 17.97704,0.31819 0.68994,0.11571 0.78251,-0.58731 0.47049,-3.57262 z m -383.876476,0.47812 c 0.197629,-1.44193 0.542608,-4.63422 0.766617,-7.09398 l 0.407287,-4.47229 h -9.852562 c -9.120872,0 -10.054464,0.10652 -12.571272,1.43423 -3.572803,1.8848 -5.470875,5.17783 -5.484466,9.51517 l -0.01015,3.23856 H 54.522729 67.715338 Z M 216.52048,131.93112 c 24.93687,-36.660436 46.38385,-67.85601 47.65996,-69.323495 1.27611,-1.467484 3.63563,-3.315978 5.24337,-4.107767 2.65469,-1.307391 3.80138,-1.446628 12.48462,-1.515951 10.73531,-0.08571 13.85351,-0.715025 21.48993,-4.337115 3.97333,-1.88462 5.4159,-2.249707 9.04833,-2.289949 3.60226,-0.0399 4.8172,0.229247 7.30091,1.617419 5.30995,2.967789 79.51295,53.752098 81.71047,55.922408 3.85273,3.80501 4.55284,6.37831 4.69389,17.25283 0.11271,8.68937 0.28895,10.10918 1.79399,14.45203 0.91795,2.64879 2.42021,6.25747 3.33835,8.01928 1.34989,2.59029 1.66959,4.02962 1.67059,7.52136 0.002,5.52911 -0.0677,5.65778 -14.2569,26.47011 l -11.39277,16.71061 5.98353,0.17752 c 3.29094,0.0976 6.03998,0.0976 6.10898,0 4.34472,-6.14816 46.2737,-68.14552 46.90291,-69.35198 1.26998,-2.43507 1.16917,-6.91502 -0.2063,-9.16771 -1.43698,-2.35341 -151.10101,-104.520242 -154.41765,-105.411845 -2.94428,-0.791503 -6.50551,0.252371 -8.64975,2.535429 C 281.84383,18.364019 167.20708,186.0927 160.11893,196.93494 l -1.10901,1.69639 6.0854,-0.0225 6.0854,-0.0224 45.33976,-66.65535 z m 9.50642,63.05187 c 1.37164,-12.12375 7.39091,-24.38919 16.62566,-33.87811 11.73739,-12.06042 26.10412,-18.18691 42.64864,-18.18691 16.12802,0 30.1388,5.79431 41.84882,17.30703 2.33291,2.2936 5.46654,5.87916 6.96362,7.96791 5.1733,7.21789 9.50146,18.30115 10.46187,26.79008 l 0.41276,3.64834 12.72033,-0.01 12.72032,-0.01 14.10853,-20.7205 c 7.7597,-11.39627 14.24322,-21.23552 14.40783,-21.86499 0.16461,-0.62948 -0.70492,-3.48257 -1.93229,-6.34019 -3.76947,-8.77622 -4.81171,-13.76377 -4.90836,-23.48836 l -0.0854,-8.5878 -39.17109,-26.748181 c -31.37169,-21.421864 -39.47809,-26.693577 -40.7132,-26.475921 -0.84819,0.149473 -3.96265,1.280728 -6.92101,2.513901 -7.11838,2.96725 -13.1211,4.04047 -22.59915,4.04047 h -7.82126 l -43.17026,63.326131 c -23.74364,34.82938 -43.26278,63.55998 -43.37587,63.84579 -0.11309,0.2858 8.24816,0.51965 18.58056,0.51965 h 18.78619 z m 104.49896,0.17163 c -2.28581,-14.57643 -11.99808,-27.50184 -25.4849,-33.91612 -6.84446,-3.25521 -11.33816,-4.21466 -19.73976,-4.21466 -8.40159,0 -12.8953,0.95945 -19.73975,4.21466 -9.25143,4.39995 -16.90294,11.96507 -21.28615,21.04584 -2.51302,5.20628 -4.31385,11.23062 -4.31385,14.4312 v 1.91579 h 45.5548 45.55481 z"
   id="path878" /><path
   style="fill:#412233;fill-opacity:0.97975707;stroke-width:0.616867"
   d="M 36.703614,511.36076 C 25.882787,509.92564 16.656019,503.3304 11.752684,493.526 8.1250467,486.2724 8.3277108,494.5054 8.3277108,354.39036 v -128.9253 l 1.4343378,-4.00964 c 2.7818494,-7.77656 7.4567324,-13.79005 13.7310004,-17.66275 l 3.64912,-2.25236 v -4.40923 c 0,-5.24619 1.280095,-10.56922 3.419706,-14.22019 2.186674,-3.73127 7.098837,-8.131 11.250596,-10.07693 3.375655,-1.58217 4.070844,-1.66649 16.171448,-1.96167 l 12.644162,-0.30843 5.328439,-54.28434 c 2.930639,-29.856387 5.612896,-56.018832 5.960568,-58.138767 0.854892,-5.212695 2.847306,-9.104509 6.572871,-12.838887 3.661238,-3.669904 8.760993,-6.260144 13.381401,-6.796612 4.69101,-0.544666 117.90865,10.641039 120.69075,11.924034 5.08377,2.344435 5.01645,9.674881 -0.11121,12.108113 -2.31988,1.100856 2.58029,1.521701 -93.21717,-8.005881 -12.21397,-1.214747 -23.67072,-2.090945 -25.45943,-1.947108 -3.53981,0.284651 -6.219911,2.185618 -7.499597,5.319383 -0.514924,1.260973 -14.23133,136.033735 -14.23133,139.832225 0,0.70789 1.033062,0.89531 4.93494,0.89531 2.714217,0 4.93494,-0.26333 4.93494,-0.58517 0,-4.56647 8.925397,-89.38036 9.657547,-91.77117 1.50851,-4.92594 4.31696,-7.730572 10.88725,-10.872414 7.10044,-3.395356 12.64211,-7.541168 16.01577,-11.981657 7.44878,-9.80427 10.2702,-11.553317 18.34064,-11.369657 2.88385,0.06562 17.0888,1.323082 31.56655,2.794341 28.7339,2.92001 28.81794,2.939263 30.51054,6.990219 1.51568,3.627533 -0.83577,8.185733 -4.70842,9.127116 -0.84819,0.206188 -14.31132,-0.893693 -29.91807,-2.444177 -15.60675,-1.550484 -28.93388,-2.681591 -29.61586,-2.513581 -0.68197,0.168016 -1.76313,1.191159 -2.40257,2.27365 -1.82808,3.094695 -9.55007,10.924513 -13.68182,13.87286 -2.06726,1.47517 -5.8891,3.69387 -8.493,4.93045 -2.6039,1.23659 -4.91446,2.53975 -5.13458,2.89592 -0.38475,0.62253 -8.7904,83.48445 -8.82105,86.95688 l -0.015,1.69639 h 18.04931 18.0493 l 62.91455,-92.34835 c 34.603,-50.791596 64.09034,-93.952276 65.52741,-95.912626 1.43707,-1.96035 3.75638,-4.3926442 5.15403,-5.4050983 6.30008,-4.56375184 15.12201,-5.75301909 21.97283,-2.9621155 2.01053,0.8190534 17.58897,11.0190698 35.64824,23.3407558 17.64241,12.037269 51.61303,35.199859 75.49027,51.47242 23.87724,16.272563 44.53147,30.698374 45.8983,32.057364 1.36683,1.35899 3.34278,4.27524 4.39099,6.48054 1.69775,3.57179 1.90419,4.61588 1.89054,9.56144 -0.012,4.36262 -0.30254,6.18238 -1.35627,8.49569 -0.73753,1.61913 -6.37513,10.33541 -12.52801,19.36952 -6.15287,9.03411 -11.31853,16.76832 -11.47925,17.18714 -0.21644,0.56403 1.35739,0.82877 6.06928,1.02097 5.36125,0.21868 6.9207,0.52863 9.91797,1.97128 4.92731,2.37162 9.33108,6.8503 11.73062,11.93018 1.82908,3.87221 1.99085,4.74374 2.20065,11.85605 l 0.22645,7.67661 2.92371,2.62867 c 4.00584,3.60159 7.15334,8.36002 9.1424,13.82158 l 1.67228,4.59171 0.20052,37.4747 0.20053,37.4747 h 5.69664 c 4.88574,0 6.15088,0.22635 8.88763,1.59013 3.61611,1.80199 5.91389,4.24429 7.78978,8.27975 1.2697,2.73139 1.29039,3.45345 1.29039,45.03132 0,41.55031 -0.0215,42.30186 -1.28811,45.03825 -1.68155,3.6328 -4.72364,6.61801 -8.56885,8.4086 -2.49346,1.16114 -4.14189,1.44348 -8.45585,1.44833 l -5.35859,0.006 -0.22383,37.16626 c -0.20301,33.7111 -0.3268,37.48168 -1.33157,40.55904 -3.70111,11.33567 -11.12178,18.7664 -22.58043,22.61104 -3.26913,1.09687 -10.90121,1.14128 -209.42651,1.2184 C 133.12,511.81579 38.739277,511.63089 36.703614,511.36091 Z M 454.70683,496.18517 c 4.08292,-1.88788 7.57094,-5.28668 9.25599,-9.01924 1.35266,-2.99628 1.4745,-4.14948 1.66139,-15.72497 l 0.20167,-12.49156 h -179.2761 c -197.139892,0 -181.76821,0.3078 -183.8309,-3.68102 -2.1034,-4.06752 -0.0316,-8.60955 4.5015,-9.86858 1.52651,-0.42397 60.80261,-0.63261 180.39408,-0.63491 l 178.12048,-0.003 V 427.4896 410.21731 l -37.4747,-0.008 c -41.15212,-0.009 -43.33562,-0.17265 -52.578,-3.94292 -12.26709,-5.00414 -23.01942,-14.90932 -28.85751,-26.58392 -6.74358,-13.48531 -7.57056,-30.42473 -2.1497,-44.03364 6.4839,-16.27766 19.62829,-28.28952 36.66319,-33.50428 4.4425,-1.35995 5.13098,-1.38443 44.45455,-1.5808 l 39.94217,-0.19947 V 282.80839 265.25301 H 243.97108 22.207229 v 89.72373 89.72373 l 20.929397,0.18471 c 20.113728,0.1775 20.997227,0.23496 22.669879,1.47432 0.957265,0.70928 2.128196,2.38585 2.602069,3.72569 0.76191,2.15426 0.742917,2.68615 -0.164185,4.59773 -2.012671,4.24139 -2.161841,4.26648 -25.366967,4.26648 H 22.099417 l 0.216205,12.8 c 0.202709,12.00104 0.306484,12.97326 1.662572,15.5759 1.742055,3.34339 4.655724,6.53875 7.173613,7.86715 5.004493,2.64029 -3.268769,2.54639 213.744583,2.42599 l 206.95903,-0.11483 z m 34.93625,-140.49241 c 0.11813,-29.78475 -0.0254,-40.24954 -0.56064,-40.89453 -0.60971,-0.73466 -8.29864,-0.83414 -50.43344,-0.65255 -55.80841,0.24054 -52.37113,-0.0345 -62.05141,4.966 -9.40305,4.85734 -16.61106,13.77678 -20.03493,24.79193 -1.72788,5.55888 -1.90958,15.41756 -0.39223,21.28193 3.07674,11.89121 10.76946,21.40966 21.66843,26.81104 8.17022,4.04904 6.48107,3.94419 61.67921,3.82857 l 49.96627,-0.10467 z M 465.61877,238.88193 c -0.20866,-11.92423 -0.32273,-13.00095 -1.66719,-15.7369 -0.79377,-1.61529 -2.80077,-4.15746 -4.46001,-5.64926 -5.73112,-5.15276 16.21828,-4.67649 -215.52049,-4.67649 -231.803741,0 -209.785438,-0.4798 -215.543162,4.69689 -1.671712,1.50301 -3.685852,4.04517 -4.475866,5.64925 -1.338359,2.71746 -1.450593,3.79008 -1.644512,15.71651 l -0.208123,12.8 H 243.97108 465.84275 Z m -13.66763,-43.35041 c -0.94007,-8.99407 -4.26749,-11.08815 -17.61869,-11.08815 h -8.61801 l -4.66445,6.7308 c -2.56545,3.70194 -4.66445,6.88983 -4.66445,7.08422 0,0.19438 7.70313,0.43178 17.11807,0.52756 9.41494,0.0958 17.50461,0.23896 17.97704,0.31819 0.68994,0.11571 0.78251,-0.58731 0.47049,-3.57262 z m -383.876476,0.47812 c 0.197629,-1.44193 0.542608,-4.63422 0.766617,-7.09398 l 0.407287,-4.47229 h -9.852562 c -9.120872,0 -10.054464,0.10652 -12.571272,1.43423 -3.572803,1.8848 -5.470875,5.17783 -5.484466,9.51517 l -0.01015,3.23856 H 54.522729 67.715338 Z M 216.52048,131.93112 c 24.93687,-36.660436 46.38385,-67.85601 47.65996,-69.323495 1.27611,-1.467484 3.63563,-3.315978 5.24337,-4.107767 2.65469,-1.307391 3.80138,-1.446628 12.48462,-1.515951 10.73531,-0.08571 13.85351,-0.715025 21.48993,-4.337115 3.97333,-1.88462 5.4159,-2.249707 9.04833,-2.289949 3.60226,-0.0399 4.8172,0.229247 7.30091,1.617419 5.30995,2.967789 79.51295,53.752098 81.71047,55.922408 3.85273,3.80501 4.55284,6.37831 4.69389,17.25283 0.11271,8.68937 0.28895,10.10918 1.79399,14.45203 0.91795,2.64879 2.42021,6.25747 3.33835,8.01928 1.34989,2.59029 1.66959,4.02962 1.67059,7.52136 0.002,5.52911 -0.0677,5.65778 -14.2569,26.47011 l -11.39277,16.71061 5.98353,0.17752 c 3.29094,0.0976 6.03998,0.0976 6.10898,0 4.34472,-6.14816 46.2737,-68.14552 46.90291,-69.35198 1.26998,-2.43507 1.16917,-6.91502 -0.2063,-9.16771 -1.43698,-2.35341 -151.10101,-104.520242 -154.41765,-105.411845 -2.94428,-0.791503 -6.50551,0.252371 -8.64975,2.535429 C 281.84383,18.364019 167.20708,186.0927 160.11893,196.93494 l -1.10901,1.69639 6.0854,-0.0225 6.0854,-0.0224 45.33976,-66.65535 z m 9.50642,63.05187 c 1.37164,-12.12375 7.39091,-24.38919 16.62566,-33.87811 11.73739,-12.06042 26.10412,-18.18691 42.64864,-18.18691 16.12802,0 30.1388,5.79431 41.84882,17.30703 2.33291,2.2936 5.46654,5.87916 6.96362,7.96791 5.1733,7.21789 9.50146,18.30115 10.46187,26.79008 l 0.41276,3.64834 12.72033,-0.01 12.72032,-0.01 14.10853,-20.7205 c 7.7597,-11.39627 14.24322,-21.23552 14.40783,-21.86499 0.16461,-0.62948 -0.70492,-3.48257 -1.93229,-6.34019 -3.76947,-8.77622 -4.81171,-13.76377 -4.90836,-23.48836 l -0.0854,-8.5878 -39.17109,-26.748181 c -31.37169,-21.421864 -39.47809,-26.693577 -40.7132,-26.475921 -0.84819,0.149473 -3.96265,1.280728 -6.92101,2.513901 -7.11838,2.96725 -13.1211,4.04047 -22.59915,4.04047 h -7.82126 l -43.17026,63.326131 c -23.74364,34.82938 -43.26278,63.55998 -43.37587,63.84579 -0.11309,0.2858 8.24816,0.51965 18.58056,0.51965 h 18.78619 z m 104.49896,0.17163 c -2.28581,-14.57643 -11.99808,-27.50184 -25.4849,-33.91612 -6.84446,-3.25521 -11.33816,-4.21466 -19.73976,-4.21466 -8.40159,0 -12.8953,0.95945 -19.73975,4.21466 -9.25143,4.39995 -16.90294,11.96507 -21.28615,21.04584 -2.51302,5.20628 -4.31385,11.23062 -4.31385,14.4312 v 1.91579 h 45.5548 45.55481 z"
   id="path880" /><path
   style="fill:#412233;fill-opacity:0.01;stroke-width:0.616867"
   d="m 389.23647,383.15386 c -10.11581,-3.23805 -17.60898,-11.45964 -20.08866,-22.04151 -2.25387,-9.61823 1.55673,-21.11022 9.21118,-27.77908 3.50627,-3.0548 10.39102,-6.22145 15.15406,-6.97013 20.0816,-3.15653 37.5595,16.26863 32.41364,36.02493 -2.64636,10.16004 -10.21038,17.84293 -20.60251,20.92627 -4.37553,1.29822 -11.76082,1.22455 -16.08771,-0.16048 z m 12.88592,-13.37663 c 3.85962,-1.14618 7.83135,-4.51584 9.41108,-7.98446 1.72362,-3.78457 1.53951,-9.77304 -0.42146,-13.70818 -5.63416,-11.3063 -22.06028,-10.66871 -27.37053,1.0624 -3.71049,8.19701 1.03931,18.3993 9.64322,20.71306 3.92994,1.05684 4.93202,1.04735 8.73769,-0.0828 z"
   id="path882" /><path
   style="fill:#412233;fill-opacity:0.01;stroke-width:0.872382"
   d="M 31.209532,509.7481 C 26.416114,508.24794 18.811615,503.07573 16.032663,499.42555 10.383783,492.00568 9.8931098,490.04781 9.2188256,472.23718 8.8736925,463.12078 8.5581921,403.97547 8.5177138,340.80316 8.4445303,226.5901 8.4542879,225.91784 10.253477,221.21627 c 2.428216,-6.34532 7.33436,-12.6523 12.729647,-16.36428 l 4.437954,-3.05334 0.402423,-6.10668 c 0.490688,-7.44605 2.820454,-12.98187 7.327805,-17.41177 5.448234,-5.35461 8.6881,-6.33617 23.2367,-7.03976 11.082676,-0.53598 12.867639,-0.82044 12.867639,-2.05069 0,-1.91575 10.291442,-105.006247 10.99417,-110.129787 1.178149,-8.589808 8.109883,-16.812485 16.221778,-19.242867 4.117727,-1.233704 19.012867,-0.175412 70.490877,5.008342 38.25602,3.852321 52.36628,5.56598 54.28487,6.592777 3.44074,1.841429 2.96956,8.880202 -0.70657,10.55516 -2.24266,1.021822 -2.9772,0.960857 -93.55951,-7.765178 -16.62179,-1.601222 -24.78642,-2.057196 -26.96025,-1.505662 -5.279535,1.339497 -6.013644,3.328403 -8.019958,21.728292 C 91.356098,98.687645 81.724233,194.78866 81.724233,196.9216 c 0,1.64739 0.506067,1.82371 5.234294,1.82371 2.878862,0 5.234789,-0.29443 5.235395,-0.65429 0.0027,-1.61724 4.642024,-46.55304 7.047766,-68.26391 1.920642,-17.33297 3.077792,-24.71679 4.169822,-26.60767 1.52813,-2.646 5.26453,-5.343948 15.10209,-10.904775 3.75587,-2.123064 7.14747,-5.118005 11.13188,-9.829955 7.70639,-9.113575 10.79722,-10.605864 20.36534,-9.832615 33.46576,2.704541 55.20913,5.446505 56.94353,7.180905 3.45513,3.455132 1.48397,9.990743 -3.18287,10.553133 -1.15207,0.13884 -14.83255,-0.916908 -30.40107,-2.346106 -15.56851,-1.429198 -28.77364,-2.327933 -29.34474,-1.997193 -0.5711,0.330742 -2.83481,2.814624 -5.03049,5.519733 -4.53092,5.582191 -11.8118,11.341363 -19.1672,15.161233 -2.99956,1.55777 -5.16884,3.30266 -5.40436,4.34709 -0.42046,1.86452 -5.90051,55.25354 -7.38742,71.97154 -0.49077,5.51782 -1.06232,11.30825 -1.27012,12.86764 l -0.37783,2.83524 h 18.6318 18.6318 L 166.8659,163.19573 C 232.14396,67.358479 266.45797,17.182254 270.40502,11.793909 275.997,4.1599856 281.093,1.3152863 289.35123,1.2177106 c 8.19579,-0.096838 4.1607,-2.588375 83.74871,51.7120684 85.11107,58.068651 82.3772,56.065681 85.59405,62.710801 1.48868,3.0752 1.76924,5.02543 1.5172,10.54618 l -0.30921,6.77328 -12.51365,18.71642 -12.51366,18.71642 3.35364,0.60402 c 1.84451,0.3322 4.72764,0.63526 6.40698,0.67344 6.75013,0.1535 15.16606,6.3858 18.42655,13.64552 0.93081,2.07252 1.85113,6.85168 2.18391,11.34097 0.56872,7.67221 0.61853,7.80581 4.4547,11.94884 2.13376,2.30445 5.21843,7.08772 6.85485,10.62951 l 2.97528,6.43963 v 37.56962 37.56961 h 5.70524 c 8.31114,0 13.0799,2.70853 16.43531,9.33479 1.24605,2.46071 1.41377,7.84802 1.41377,45.41118 v 42.61927 l -2.5182,3.97079 c -3.30654,5.21388 -8.33854,7.71177 -15.53538,7.71177 h -5.28937 l -0.37054,38.16673 -0.37056,38.16672 -2.79489,5.80866 c -3.36222,6.98775 -8.86547,12.64135 -15.64999,16.07758 l -5.0159,2.54047 -210.24415,0.16429 C 68.757574,510.92424 34.435799,510.7578 31.209532,509.7481 Z M 457.85285,494.71846 c 6.25433,-4.34337 7.4636,-7.75822 8.19277,-23.13557 l 0.61016,-12.86764 -166.94859,-0.0807 c -175.77866,-0.0849 -194.78188,-0.33059 -196.21487,-2.53645 -1.53429,-2.36178 -0.57013,-7.11598 1.78624,-8.80783 2.07429,-1.48933 10.95857,-1.5958 181.67362,-2.17701 l 179.49267,-0.61109 v -17.23951 -17.23952 l -40.34769,-0.36333 c -38.41111,-0.34589 -40.61985,-0.45333 -46.01817,-2.23851 -18.12405,-5.99347 -32.9037,-21.89798 -37.15096,-39.97848 -2.03447,-8.66068 -1.33357,-21.42482 1.64102,-29.88476 5.37981,-15.30064 17.10684,-27.17669 33.32899,-33.75253 l 6.10667,-2.47542 41.22007,-0.34852 41.22007,-0.34851 V 282.83972 265.04637 H 243.98735 21.529852 v 89.72475 89.72474 l 7.985461,0.56683 c 4.392002,0.31176 13.781624,0.56682 20.865825,0.56682 7.084202,0 13.515851,0.24386 14.292555,0.54191 0.776704,0.29805 2.017456,1.71236 2.757227,3.14292 1.087244,2.10251 1.149353,3.07345 0.324053,5.0659 -0.561542,1.35568 -1.672043,2.77049 -2.467781,3.14402 -0.795739,0.37353 -11.023433,0.82556 -22.728211,1.0045 l -21.281416,0.32535 0.612418,13.2344 c 0.547723,11.83631 0.837881,13.62005 2.746656,16.88502 2.738817,4.68475 6.357092,7.22771 11.528313,8.10221 2.266616,0.38331 97.160698,0.64373 210.875738,0.57872 l 206.75461,-0.1182 z m 31.93685,-139.59861 -0.22672,-40.78388 h -51.90675 -51.90675 l -6.81198,3.25266 c -30.96598,14.78599 -32.54613,56.13561 -2.82736,73.98641 6.83912,4.10797 8.29761,4.20738 62.64519,4.2698 l 51.2611,0.0589 z M 466.02562,238.6568 c -0.53991,-11.64569 -0.86806,-13.73875 -2.63291,-16.79336 -2.88799,-4.99856 -5.55474,-7.18146 -10.0336,-8.21311 -5.45885,-1.25739 -413.269785,-1.25983 -418.743523,-0.003 -4.415697,1.01429 -8.104548,4.08427 -10.498522,8.73722 -1.254005,2.43729 -1.752469,6.09284 -2.230438,16.35717 l -0.615528,13.21853 H 243.95675 466.6424 Z m -13.83683,-43.60674 c -1.02367,-8.6433 -4.97884,-10.93493 -19.09734,-11.06504 l -7.61811,-0.0702 -4.82236,7.19716 -4.82235,7.19715 8.95094,0.48352 c 4.92302,0.26593 13.22577,0.56036 18.45056,0.65428 l 9.49963,0.17077 z m -384.127958,3.04096 c 0.218728,-0.35985 0.684503,-3.73846 1.035055,-7.50801 l 0.637367,-6.85373 -10.79787,0.32555 c -8.873832,0.26753 -11.246558,0.62673 -13.315943,2.01584 -2.848201,1.91191 -4.897178,6.10824 -4.897178,10.02947 v 2.64517 h 13.470441 c 7.408743,0 13.649401,-0.29443 13.868128,-0.65429 z M 178.82133,188.05863 c 4.02864,-5.87768 22.1694,-32.47444 40.3128,-59.10391 43.37065,-63.6561 45.95912,-67.287379 49.41931,-69.328678 2.3203,-1.368827 5.22445,-1.831058 14.25492,-2.268836 9.95544,-0.48262 12.17514,-0.885482 18.16881,-3.297533 3.75531,-1.51126 8.29031,-2.981604 10.07776,-3.267431 5.58797,-0.893552 5.30759,-1.060722 53.32118,31.790447 30.69322,21.000471 37.0462,25.657041 38.93334,28.537181 1.05613,1.61187 1.77585,5.82313 2.50016,14.62915 0.85186,10.3566 1.42527,13.28703 3.52921,18.0362 1.92692,4.34957 2.52026,7.02548 2.54711,11.48726 l 0.035,5.81679 -12.21335,18.11872 c -6.71734,9.96531 -12.34421,18.43791 -12.50414,18.82802 -0.15994,0.39011 2.61026,0.7093 6.15601,0.7093 h 6.44682 l 23.72307,-35.03021 c 22.91101,-33.83102 23.72311,-35.17394 23.72311,-39.22894 0,-4.05734 -0.15422,-4.31176 -4.58,-7.55515 C 422.74061,102.32419 314.86655,28.613779 298.30269,18.283088 288.18166,11.970717 285.9153,12.327913 279.66494,21.220544 273.89829,29.424969 187.40014,155.88848 172.11508,178.46242 l -13.73376,20.28289 h 6.5576 6.55759 z m 48.21684,4.14381 c 3.7135,-21.58882 22.24542,-41.64255 43.55684,-47.13365 6.93315,-1.7864 21.09621,-1.81492 28.61488,-0.0576 21.64931,5.05996 39.79932,24.1383 44.10984,46.36596 l 1.42778,7.36245 13.10788,0.003 13.10788,0.003 12.19121,-18.04505 c 6.70516,-9.92477 13.14954,-19.69022 14.32086,-21.701 l 2.12964,-3.65596 -2.82175,-7.3057 c -3.10409,-8.03672 -4.44298,-15.43422 -4.48017,-24.75337 l -0.0243,-6.10667 -12.81886,-8.72383 C 334.04578,77.547378 314.04514,64.39843 312.44804,64.39843 c -1.00413,0 -5.13953,1.226575 -9.18981,2.725721 -6.30629,2.334178 -8.90257,2.789829 -18.07392,3.172007 l -10.70978,0.446286 -7.26797,10.568015 C 246.08776,112.01828 188.82367,196.516 188.42147,197.56414 c -0.39174,1.02085 2.58207,1.17802 18.54988,0.98037 l 19.01641,-0.23539 z m 103.76626,2.39905 c -1.38669,-9.2791 -6.52397,-18.45927 -14.59607,-26.0828 -9.2863,-8.77024 -18.83194,-12.0409 -33.50322,-11.47932 -9.48256,0.36297 -10.11914,0.51287 -17.31079,4.07648 -8.34872,4.13695 -15.27148,10.26932 -19.2184,17.02417 -3.1876,5.45532 -6.55051,14.71049 -6.55051,18.02783 v 2.57746 h 45.89912 45.89913 z"
   id="path884" /><path
   style="fill:#412233;fill-opacity:0.01;stroke-width:0.872382"
   d="m 391.17352,383.66153 c -8.09726,-2.03195 -14.9043,-7.38582 -19.00354,-14.94663 -2.78314,-5.13334 -2.99545,-6.08278 -2.99136,-13.37696 0.005,-9.56126 1.79911,-14.10651 8.01012,-20.29728 6.40889,-6.388 11.35467,-8.44563 20.3379,-8.46133 8.93018,-0.0156 13.50391,1.76892 19.92321,7.77342 14.82052,13.86286 11.1666,37.73653 -7.14945,46.71239 -5.94847,2.91507 -13.67652,3.96412 -19.12688,2.59639 z m 12.74665,-14.24685 c 9.19865,-3.84345 12.02262,-16.64569 5.31057,-24.07513 -3.92459,-4.34406 -7.09193,-5.57745 -13.05326,-5.08309 -9.60604,0.79661 -15.36001,8.80851 -13.27466,18.48382 1.98506,9.21001 12.15733,14.37635 21.01735,10.6744 z"
   id="path886" /><path
   style="fill:#412233;fill-opacity:0.01;stroke-width:0.872382"
   d="m 391.17352,383.66153 c -8.09726,-2.03195 -14.9043,-7.38582 -19.00354,-14.94663 -2.78314,-5.13334 -2.99545,-6.08278 -2.99136,-13.37696 0.005,-9.56126 1.79911,-14.10651 8.01012,-20.29728 6.40889,-6.388 11.35467,-8.44563 20.3379,-8.46133 8.93018,-0.0156 13.50391,1.76892 19.92321,7.77342 14.82052,13.86286 11.1666,37.73653 -7.14945,46.71239 -5.94847,2.91507 -13.67652,3.96412 -19.12688,2.59639 z m 12.74665,-14.24685 c 9.19865,-3.84345 12.02262,-16.64569 5.31057,-24.07513 -3.92459,-4.34406 -7.09193,-5.57745 -13.05326,-5.08309 -9.60604,0.79661 -15.36001,8.80851 -13.27466,18.48382 1.98506,9.21001 12.15733,14.37635 21.01735,10.6744 z"
   id="path888" /><path
   style="fill:#412233;fill-opacity:0.01;stroke-width:0.872382"
   d="m 391.17352,383.66153 c -8.09726,-2.03195 -14.9043,-7.38582 -19.00354,-14.94663 -2.78314,-5.13334 -2.99545,-6.08278 -2.99136,-13.37696 0.005,-9.56126 1.79911,-14.10651 8.01012,-20.29728 6.40889,-6.388 11.35467,-8.44563 20.3379,-8.46133 8.93018,-0.0156 13.50391,1.76892 19.92321,7.77342 14.82052,13.86286 11.1666,37.73653 -7.14945,46.71239 -5.94847,2.91507 -13.67652,3.96412 -19.12688,2.59639 z m 12.74665,-14.24685 c 9.19865,-3.84345 12.02262,-16.64569 5.31057,-24.07513 -3.92459,-4.34406 -7.09193,-5.57745 -13.05326,-5.08309 -9.60604,0.79661 -15.36001,8.80851 -13.27466,18.48382 1.98506,9.21001 12.15733,14.37635 21.01735,10.6744 z"
   id="path890" /><path
   style="fill:#412233;fill-opacity:0.01;stroke-width:0.872382"
   d="m 391.8581,368.3579 c -5.72821,-2.98677 -8.43497,-7.17087 -8.43497,-13.03873 0,-4.04824 1.04911,-6.66395 3.96203,-9.87842 5.99971,-6.62077 17.12146,-5.84642 21.94339,1.52781 4.10012,6.27034 3.86327,12.03492 -0.70843,17.2418 -4.67018,5.31904 -11.34684,6.97109 -16.76202,4.14754 z"
   id="path892" /><path
   style="fill:#412233;fill-opacity:0.01;stroke-width:0.308434"
   d="m 393.58802,384.40676 c -2.54073,-0.39207 -6.7133,-1.71813 -8.9421,-2.84183 -11.01413,-5.55308 -17.70365,-17.78248 -16.20786,-29.63033 1.95169,-15.45895 15.22735,-26.76843 30.54755,-26.02331 4.42798,0.21536 7.55029,1.01962 11.56626,2.97928 7.44184,3.63136 12.97554,10.21082 15.45734,18.37845 0.75417,2.482 0.84029,3.24896 0.86368,7.69183 0.0224,4.24653 -0.0732,5.29778 -0.68477,7.53601 -2.90171,10.61934 -11.20045,18.76272 -21.71428,21.30778 -2.97813,0.72091 -8.2326,1.01155 -10.88582,0.60212 z m 9.13166,-14.91078 c 7.30843,-2.57994 11.45267,-10.18445 9.67053,-17.74498 -1.38813,-5.88895 -6.23617,-10.43974 -12.19183,-11.44429 -7.55632,-1.27454 -14.75033,3.20206 -16.98874,10.57154 -0.84909,2.79544 -0.69858,7.21651 0.33665,9.88863 1.53761,3.96888 5.32845,7.54249 9.35397,8.81797 2.83044,0.89682 7.13761,0.85784 9.81942,-0.0889 z"
   id="path894" /><path
   style="fill:#412233;fill-opacity:0.01;stroke-width:0.308434"
   d="m 393.58802,384.40676 c -2.54073,-0.39207 -6.7133,-1.71813 -8.9421,-2.84183 -11.01413,-5.55308 -17.70365,-17.78248 -16.20786,-29.63033 1.95169,-15.45895 15.22735,-26.76843 30.54755,-26.02331 4.42798,0.21536 7.55029,1.01962 11.56626,2.97928 7.44184,3.63136 12.97554,10.21082 15.45734,18.37845 0.75417,2.482 0.84029,3.24896 0.86368,7.69183 0.0224,4.24653 -0.0732,5.29778 -0.68477,7.53601 -2.90171,10.61934 -11.20045,18.76272 -21.71428,21.30778 -2.97813,0.72091 -8.2326,1.01155 -10.88582,0.60212 z m 9.13166,-14.91078 c 7.30843,-2.57994 11.45267,-10.18445 9.67053,-17.74498 -1.38813,-5.88895 -6.23617,-10.43974 -12.19183,-11.44429 -7.55632,-1.27454 -14.75033,3.20206 -16.98874,10.57154 -0.84909,2.79544 -0.69858,7.21651 0.33665,9.88863 1.53761,3.96888 5.32845,7.54249 9.35397,8.81797 2.83044,0.89682 7.13761,0.85784 9.81942,-0.0889 z"
   id="path896" /><path
   style="fill:#412233;fill-opacity:0.01;stroke-width:0.308434"
   d="m 465.91573,421.14626 v -11.07721 l -37.24337,-0.14722 c -37.39976,-0.1478 -39.74096,-0.21566 -45.26265,-1.31226 -4.64553,-0.92259 -11.86222,-4.09209 -16.96386,-7.45031 -16.08627,-10.58899 -25.12122,-27.25379 -25.13482,-46.36071 -0.008,-10.88851 3.01922,-20.59488 9.35961,-30.0128 6.87528,-10.21243 17.12237,-17.89336 29.30021,-21.96261 l 4.22039,-1.41024 6.70321,-0.28528 c 3.68676,-0.1569 22.07477,-0.37424 40.86224,-0.48298 l 34.15904,-0.19771 V 282.74967 265.05242 H 290.41693 114.91814 v -6.63133 -6.63132 h 175.49879 175.4988 l -0.0111,-5.16627 c -0.02,-9.32987 -0.53094,-19.83943 -1.04686,-21.5361 -0.66597,-2.19011 -2.42651,-4.78631 -5.28581,-7.79471 l -2.44659,-2.57418 -3.23856,-0.78766 -3.23855,-0.78767 -24.52048,-0.22463 C 412.64151,212.795 337.10224,212.67699 258.26272,212.6563 l -143.34458,-0.0376 v -6.93976 -6.93976 h 13.69841 13.69841 l 30.30925,-44.49156 c 16.67009,-24.47036 41.62381,-61.077593 55.45272,-81.3494 13.82891,-20.271808 26.19124,-38.413283 27.47186,-40.31439 l 2.32838,-3.456558 8.26881,-0.01332 c 6.53164,-0.01052 8.22181,0.06767 8.04508,0.37222 -0.12304,0.212049 -1.84429,2.745061 -3.82499,5.628916 -8.95664,13.040687 -48.93943,71.499632 -66.9773,97.927712 -33.24811,48.71324 -43.9884,64.54402 -44.2474,65.21897 -0.16159,0.4211 0.54259,0.47741 5.96982,0.47741 h 6.15302 l 27.11371,-39.86028 c 25.95757,-38.16061 48.51272,-71.199406 55.1183,-80.737306 11.48023,-16.576478 12.13191,-17.372903 15.82731,-19.342529 2.39113,-1.274457 4.71943,-1.625786 10.79319,-1.628635 6.40496,-0.003 12.09384,-0.472094 15.12403,-1.247088 1.32338,-0.338463 4.0064,-1.318988 5.96225,-2.178945 6.57355,-2.890281 7.47811,-3.144772 11.26695,-3.169872 2.56273,-0.01698 3.80778,0.119657 5.08915,0.558488 2.30191,0.788337 28.75803,18.522576 63.69157,42.694136 20.69652,14.320541 21.65832,15.082781 23.14447,18.342351 1.06005,2.32501 1.35844,4.81944 1.67751,14.02344 0.35757,10.31452 0.66103,11.64993 4.70227,20.69273 1.74073,3.89512 1.85357,4.29406 2.00647,7.09398 0.28874,5.28731 -0.46212,7.05586 -7.41421,17.46315 -2.03974,3.05349 -6.95986,10.31595 -10.9336,16.1388 -3.97374,5.82285 -7.16236,10.64962 -7.08581,10.72616 0.0765,0.0765 2.83046,0.2176 6.11983,0.31345 l 5.98066,0.17428 3.20931,-4.73177 c 1.76512,-2.60247 7.11864,-10.49177 11.89671,-17.53177 19.54571,-28.79865 31.65805,-46.89146 32.14057,-48.00999 0.67769,-1.571 0.69669,-5.99964 0.0323,-7.53635 -0.62359,-1.4424 -2.23065,-2.76287 -9.41694,-7.73753 -3.26459,-2.25989 -13.46603,-9.33075 -22.66989,-15.713015 -25.8493,-17.924814 -58.69631,-40.37213 -86.13184,-58.861631 -7.12482,-4.801598 -13.15745,-8.919768 -13.40585,-9.15149 -0.38232,-0.356647 1.39395,-0.421314 11.57274,-0.421314 h 12.02438 l 8.9381,6.1079 c 4.91595,3.359345 22.95641,15.667508 40.08991,27.351473 43.64433,29.762693 62.69313,42.962297 66.29259,45.936557 1.87185,1.54674 4.59831,5.66244 5.82326,8.79047 1.6982,4.33659 1.49719,12.36533 -0.40606,16.21842 -1.09639,2.21966 -5.65667,9.23607 -15.44087,23.7572 -8.57637,12.72855 -8.54509,12.67796 -8.10573,13.11732 0.18213,0.18214 2.89326,0.52382 6.0247,0.75928 3.39033,0.25492 6.30824,0.63578 7.21306,0.94149 6.50357,2.19729 12.5151,8.19669 15.09253,15.06206 0.88705,2.36282 1.36093,7.02053 1.37703,13.53525 l 0.009,3.63526 2.92272,2.79412 c 4.75987,4.55049 7.34174,8.5357 9.66678,14.92116 l 1.23632,3.39542 0.2271,37.54915 0.2271,37.54916 h 4.52383 c 2.48811,0 5.34738,0.15099 6.35395,0.33555 4.4181,0.81004 8.87975,4.32416 11.0394,8.69491 1.15715,2.34194 1.18358,2.47406 1.44767,7.24135 0.35112,6.338 0.34954,70.64025 -0.003,76.98587 -0.256,4.62262 -0.32598,5.00397 -1.27352,6.93976 -1.2585,2.57098 -4.62478,5.99348 -7.24761,7.36857 -2.98619,1.56561 -4.90653,1.92796 -10.21798,1.92796 h -4.71592 v 11.10362 11.10361 h -6.93976 -6.93976 v -11.07724 z m 22.31533,-25.20524 1.42793,-0.1957 0.0802,-29.33683 c 0.0995,-36.42042 -0.0767,-51.20791 -0.61674,-51.74765 -0.6632,-0.66282 -15.88875,-0.8084 -56.9802,-0.54481 -39.34208,0.25236 -43.10236,0.37184 -47.73335,1.51662 -4.23728,1.04746 -11.21157,4.90063 -15.34135,8.47582 -6.8883,5.96325 -12.41021,15.80559 -13.58891,24.22106 -0.48446,3.45883 -0.48302,10.9406 0.003,14.03373 1.99475,12.70272 11.256,24.65999 23.5169,30.36286 4.23856,1.97145 6.06103,2.3846 14.12714,3.20244 1.97045,0.1998 93.6513,0.2118 95.10569,0.0123 z M 452.03313,198.8971 c 0.29742,-0.35839 0.30516,-1.10091 0.0353,-3.38932 -0.60684,-5.14551 -1.90368,-7.73094 -4.6191,-9.20886 -2.65633,-1.44575 -4.98124,-1.77659 -13.76491,-1.95878 l -8.01927,-0.16633 -4.1768,6.12605 c -4.98749,7.31509 -5.32074,7.83495 -5.13897,8.01671 0.24572,0.24572 7.06152,0.47818 20.88203,0.71221 7.37928,0.12496 13.64277,0.2497 13.91888,0.27722 0.27608,0.0275 0.67337,-0.15649 0.88286,-0.4089 z m -226.25055,-0.85191 c 0.0817,-0.38169 0.30638,-2.01253 0.49938,-3.6241 2.1837,-18.2343 15.32018,-36.44539 32.56864,-45.14986 8.5736,-4.32669 16.14952,-6.0577 26.53715,-6.06344 12.39497,-0.007 22.73063,3.08009 32.65788,9.75391 5.27646,3.54722 11.5616,9.55117 15.63351,14.93409 5.10685,6.75107 9.78617,18.70638 10.77436,27.52771 l 0.37143,3.31566 h 12.85788 12.85787 l 10.95138,-16.11566 c 6.02326,-8.86361 12.43622,-18.40578 14.25102,-21.20482 3.82858,-5.90495 3.77605,-5.61078 1.87244,-10.48675 -4.64197,-11.89005 -5.39488,-15.76542 -5.42305,-27.91325 l -0.0129,-5.55181 -5.7729,-3.90929 c -3.1751,-2.15012 -16.18255,-11.01438 -28.90544,-19.698366 -24.08625,-16.44002 -37.26412,-25.258616 -41.88709,-28.030732 -3.2687,-1.960041 -3.02054,-1.975586 -9.64294,0.604055 -8.95818,3.489499 -11.84979,4.023392 -22.87868,4.22421 l -8.40389,0.15302 -17.7934,26.104456 c -19.65463,28.835057 -58.81949,86.368857 -64.9636,95.432567 -2.51854,3.71532 -3.78534,5.84098 -3.53455,5.93089 0.72207,0.25885 4.93169,0.33859 21.12719,0.4002 l 16.10979,0.0613 z m 105.19867,-0.9253 c -2.39243,-18.7314 -16.17953,-34.47452 -34.23531,-39.09242 -5.1009,-1.30458 -14.54424,-1.5107 -20.67414,-0.45124 -7.68649,1.32849 -16.13545,5.77983 -22.42019,11.81208 -5.03833,4.8359 -8.11793,9.34799 -10.76667,15.77479 -1.85252,4.49487 -2.74045,7.80085 -2.96289,11.03149 l -0.1752,2.54457 h 45.72061 45.72061 z"
   id="path898" /><path
   style="fill:#412233;fill-opacity:0.01;stroke-width:0.308434"
   d="m 393.58802,384.40676 c -2.54073,-0.39207 -6.7133,-1.71813 -8.9421,-2.84183 -11.01413,-5.55308 -17.70365,-17.78248 -16.20786,-29.63033 1.95169,-15.45895 15.22735,-26.76843 30.54755,-26.02331 4.42798,0.21536 7.55029,1.01962 11.56626,2.97928 7.44184,3.63136 12.97554,10.21082 15.45734,18.37845 0.75417,2.482 0.84029,3.24896 0.86368,7.69183 0.0224,4.24653 -0.0732,5.29778 -0.68477,7.53601 -2.90171,10.61934 -11.20045,18.76272 -21.71428,21.30778 -2.97813,0.72091 -8.2326,1.01155 -10.88582,0.60212 z m 9.13166,-14.91078 c 7.30843,-2.57994 11.45267,-10.18445 9.67053,-17.74498 -1.38813,-5.88895 -6.23617,-10.43974 -12.19183,-11.44429 -7.55632,-1.27454 -14.75033,3.20206 -16.98874,10.57154 -0.84909,2.79544 -0.69858,7.21651 0.33665,9.88863 1.53761,3.96888 5.32845,7.54249 9.35397,8.81797 2.83044,0.89682 7.13761,0.85784 9.81942,-0.0889 z"
   id="path900" /><path
   style="fill:#412233;fill-opacity:0.01;stroke-width:0.308434"
   d="m 393.58802,384.40676 c -2.54073,-0.39207 -6.7133,-1.71813 -8.9421,-2.84183 -11.01413,-5.55308 -17.70365,-17.78248 -16.20786,-29.63033 1.95169,-15.45895 15.22735,-26.76843 30.54755,-26.02331 4.42798,0.21536 7.55029,1.01962 11.56626,2.97928 7.44184,3.63136 12.97554,10.21082 15.45734,18.37845 0.75417,2.482 0.84029,3.24896 0.86368,7.69183 0.0224,4.24653 -0.0732,5.29778 -0.68477,7.53601 -2.90171,10.61934 -11.20045,18.76272 -21.71428,21.30778 -2.97813,0.72091 -8.2326,1.01155 -10.88582,0.60212 z m 9.13166,-14.91078 c 7.30843,-2.57994 11.45267,-10.18445 9.67053,-17.74498 -1.38813,-5.88895 -6.23617,-10.43974 -12.19183,-11.44429 -7.55632,-1.27454 -14.75033,3.20206 -16.98874,10.57154 -0.84909,2.79544 -0.69858,7.21651 0.33665,9.88863 1.53761,3.96888 5.32845,7.54249 9.35397,8.81797 2.83044,0.89682 7.13761,0.85784 9.81942,-0.0889 z"
   id="path902" /><path
   style="fill:#412233;fill-opacity:0.01;stroke-width:0.308434"
   d="m 395.06947,369.62525 c 0,-0.12867 -0.25894,-0.23394 -0.57543,-0.23394 -1.11586,0 -5.02204,-2.23387 -6.82497,-3.90306 -3.17099,-2.93577 -4.55268,-6.69568 -4.21753,-11.4769 0.23596,-3.36625 1.31039,-5.69869 3.90055,-8.46758 3.32425,-3.55364 7.44822,-5.05214 12.30683,-4.47186 1.18728,0.1418 2.80422,0.53453 3.5932,0.87272 0.78899,0.3382 1.58222,0.52362 1.76275,0.41205 0.18115,-0.11196 0.23895,-0.0584 0.129,0.1195 -0.21196,0.34296 1.20414,1.41794 1.8679,1.41794 0.21728,0 0.33515,0.0599 0.26195,0.1331 -0.0732,0.0732 0.47108,0.87486 1.20952,1.78146 1.53799,1.88825 3.0901,4.96987 3.41132,6.77299 0.12088,0.67855 0.29813,1.36856 0.3939,1.53335 0.55136,0.94878 -0.44171,5.32311 -1.70457,7.50841 -1.41323,2.44547 -4.5832,5.36341 -7.25855,6.68144 -2.08611,1.02775 -2.75304,1.19881 -5.32048,1.36468 -1.61447,0.1043 -2.93539,0.0844 -2.93539,-0.0443 z"
   id="path904" /><path
   style="fill:#412233;fill-opacity:0.01;stroke-width:0.308434"
   d="m 394.66178,384.4763 c -10.30108,-1.08841 -19.19535,-7.49346 -23.65729,-17.03636 -1.99549,-4.26782 -2.58699,-7.06562 -2.58699,-12.23658 0,-5.26778 0.59789,-8.01401 2.71956,-12.49157 3.79108,-8.00069 10.66399,-13.6326 19.66427,-16.11363 2.7663,-0.76256 11.01156,-0.76308 13.77625,-8.7e-4 12.15778,3.35184 20.49553,12.66394 22.2766,24.87983 1.65862,11.37607 -4.56417,23.6698 -14.90957,29.45527 -5.09318,2.84827 -11.47717,4.15733 -17.28283,3.54391 z m 6.84426,-14.60773 c 9.74283,-2.59315 14.28905,-13.77078 9.16034,-22.52224 -1.79276,-3.05912 -5.56464,-5.81445 -9.28684,-6.78396 -8.5187,-2.21884 -17.29281,3.6162 -18.6568,12.40732 -1.1459,7.38551 3.50719,14.71221 10.65034,16.76988 2.28259,0.65753 5.92985,0.71538 8.13296,0.129 z"
   id="path906" /><path
   style="fill:#412233;fill-opacity:1;stroke-width:0.308434"
   d="m 394.66178,384.4763 c -10.30108,-1.08841 -19.19535,-7.49346 -23.65729,-17.03636 -1.99549,-4.26782 -2.58699,-7.06562 -2.58699,-12.23658 0,-5.26778 0.59789,-8.01401 2.71956,-12.49157 3.79108,-8.00069 10.66399,-13.6326 19.66427,-16.11363 2.7663,-0.76256 11.01156,-0.76308 13.77625,-8.7e-4 12.15778,3.35184 20.49553,12.66394 22.2766,24.87983 1.65862,11.37607 -4.56417,23.6698 -14.90957,29.45527 -5.09318,2.84827 -11.47717,4.15733 -17.28283,3.54391 z m 6.84426,-14.60773 c 9.74283,-2.59315 14.28905,-13.77078 9.16034,-22.52224 -1.79276,-3.05912 -5.56464,-5.81445 -9.28684,-6.78396 -8.5187,-2.21884 -17.29281,3.6162 -18.6568,12.40732 -1.1459,7.38551 3.50719,14.71221 10.65034,16.76988 2.28259,0.65753 5.92985,0.71538 8.13296,0.129 z"
   id="path908" /></svg>
