<?xml version="1.0" encoding="UTF-8" standalone="no"?>
<svg
   xmlns:dc="http://purl.org/dc/elements/1.1/"
   xmlns:cc="http://creativecommons.org/ns#"
   xmlns:rdf="http://www.w3.org/1999/02/22-rdf-syntax-ns#"
   xmlns:svg="http://www.w3.org/2000/svg"
   xmlns="http://www.w3.org/2000/svg"
   xmlns:sodipodi="http://sodipodi.sourceforge.net/DTD/sodipodi-0.dtd"
   xmlns:inkscape="http://www.inkscape.org/namespaces/inkscape"
   version="1.1"
   id="Layer_1"
   x="0px"
   y="0px"
   viewBox="0 0 512 512"
   style="enable-background:new 0 0 512 512;"
   xml:space="preserve"
   sodipodi:docname="telegram.svg"
   inkscape:version="1.0.2-2 (e86c870879, 2021-01-15)"><metadata
   id="metadata59"><rdf:RDF><cc:Work
       rdf:about=""><dc:format>image/svg+xml</dc:format><dc:type
         rdf:resource="http://purl.org/dc/dcmitype/StillImage" /></cc:Work></rdf:RDF></metadata><defs
   id="defs57" /><sodipodi:namedview
   pagecolor="#ffffff"
   bordercolor="#666666"
   borderopacity="1"
   objecttolerance="10"
   gridtolerance="10"
   guidetolerance="10"
   inkscape:pageopacity="0"
   inkscape:pageshadow="2"
   inkscape:window-width="1920"
   inkscape:window-height="1001"
   id="namedview55"
   showgrid="false"
   inkscape:zoom="1.6210938"
   inkscape:cx="256"
   inkscape:cy="254.76627"
   inkscape:window-x="-9"
   inkscape:window-y="-9"
   inkscape:window-maximized="1"
   inkscape:current-layer="Layer_1" />
<g
   id="g10">
	<g
   id="g8">
		<g
   id="g6">
			<path
   d="M385.268,121.919l-210.569,129.69c-11.916,7.356-17.555,21.885-13.716,35.323l22.768,80     c1.945,6.821,8.015,11.355,14.999,11.355c0.389,0,0.782-0.014,1.176-0.043c7.466-0.542,13.374-6.103,14.367-13.515l5.92-43.866     c0.798-5.902,3.642-11.392,8.001-15.45l173.765-161.524c5.251-4.869,5.945-12.842,1.618-18.545     C399.263,119.636,391.388,118.16,385.268,121.919z M214.32,290.478c-7.808,7.268-12.895,17.089-14.323,27.655l-2.871,21.278     l-16.527-58.072c-1.343-4.704,0.635-9.791,4.805-12.365l154.258-95.007L214.32,290.478z"
   id="path2" />
			<path
   d="M503.67,37.382c-6.579-5.576-15.657-7.111-23.698-4.005L15.08,212.719C5.873,216.27-0.047,224.939,0,234.804     c0.048,9.874,6.055,18.495,15.316,21.965l108.59,40.529l42.359,136.225c2.326,7.489,8.197,13.308,15.703,15.566     c7.502,2.256,15.604,0.643,21.66-4.31l63.14-51.473c3.032-2.472,7.362-2.594,10.528-0.295l113.883,82.681     c4.097,2.978,8.932,4.511,13.823,4.511c2.865,0,5.749-0.526,8.517-1.596c7.486-2.895,12.93-9.312,14.56-17.163l83.429-401.309     C513.26,51.685,510.257,42.967,503.67,37.382z M491.536,55.99l-83.428,401.308c-0.302,1.45-1.346,2.053-1.942,2.284     c-0.6,0.232-1.785,0.489-2.997-0.393l-113.887-82.685c-5.091-3.696-11.077-5.531-17.052-5.531     c-6.518,0-13.027,2.185-18.347,6.519l-63.154,51.485c-1.124,0.92-2.291,0.756-2.885,0.577c-0.598-0.18-1.665-0.69-2.099-2.086     l-43.845-141.006c-0.937-3.013-3.217-5.423-6.173-6.527L22.462,237.662c-1.696-0.635-2.057-1.958-2.062-2.957     c-0.005-0.99,0.343-2.307,2.023-2.955L487.316,52.409c0.002-0.001,0.005-0.002,0.008-0.003c1.51-0.583,2.627,0.087,3.159,0.537     C491.017,53.398,491.867,54.398,491.536,55.99z"
   id="path4" />
		</g>
	</g>
</g>
<g
   id="g16">
	<g
   id="g14">
		<path
   d="M427.481,252.142c-5.506-1.196-10.936,2.299-12.131,7.804l-1.55,7.14c-1.195,5.505,2.299,10.936,7.804,12.131    c0.729,0.158,1.456,0.234,2.174,0.234c4.695,0,8.92-3.262,9.958-8.037l1.55-7.14C436.48,258.769,432.985,253.338,427.481,252.142z    "
   id="path12" />
	</g>
</g>
<g
   id="g22">
	<g
   id="g20">
		<path
   d="M417.281,299.122c-5.512-1.195-10.938,2.299-12.132,7.804l-23.459,108.051c-1.195,5.505,2.299,10.936,7.803,12.131    c0.73,0.158,1.457,0.234,2.174,0.234c4.696,0,8.92-3.262,9.958-8.037l23.459-108.052    C426.279,305.748,422.785,300.317,417.281,299.122z"
   id="path18" />
	</g>
</g>
<g
   id="g24">
</g>
<g
   id="g26">
</g>
<g
   id="g28">
</g>
<g
   id="g30">
</g>
<g
   id="g32">
</g>
<g
   id="g34">
</g>
<g
   id="g36">
</g>
<g
   id="g38">
</g>
<g
   id="g40">
</g>
<g
   id="g42">
</g>
<g
   id="g44">
</g>
<g
   id="g46">
</g>
<g
   id="g48">
</g>
<g
   id="g50">
</g>
<g
   id="g52">
</g>
<path
   style="fill:#2e4052;stroke-width:0.616867"
   d="m 398.09633,478.69156 c -4.14636,-1.35827 0.23546,1.73577 -77.1368,-54.46692 -24.15467,-17.54579 -44.64503,-32.17802 -45.53414,-32.51605 -2.59793,-0.98773 -5.38226,-0.70978 -7.77838,0.7765 -1.22788,0.76164 -16.17149,12.76599 -33.20802,26.67636 -17.03653,13.91036 -32.03489,26.00818 -33.3297,26.88404 -10.80405,7.30834 -26.68991,3.05105 -32.75964,-8.77935 -0.75711,-1.47565 -11.00322,-33.63305 -22.76915,-71.46087 L 124.18791,297.02741 68.554838,276.25135 C 9.998254,254.38352 9.1848087,254.03049 5.1409352,248.72995 -0.01312426,241.97422 -0.89166432,232.20674 2.9527889,224.40246 4.9381717,220.3721 8.8819428,216.15359 12.337349,214.36412 15.258924,212.85111 480.98976,33.370625 483.88795,32.640852 c 6.62401,-1.667945 15.78214,1.175791 20.96692,6.510538 4.22369,4.345855 6.17978,8.867503 6.41318,14.824514 0.17752,4.530964 -3.24606,21.471753 -41.82226,206.947616 -31.02869,149.1871 -42.43121,202.93873 -43.60489,205.55404 -4.56043,10.16201 -17.12431,15.69301 -27.74457,12.214 z m 9.22016,-19.60461 C 408.53391,457.74171 491.76532,58.16706 491.50604,54.912441 491.13346,50.235503 507.6948,44.16454 255.98437,141.24869 128.25514,190.51358 23.055422,231.14656 22.207229,231.54422 c -1.255527,0.58862 -1.542169,1.16759 -1.542169,3.11494 0,1.47472 0.354816,2.59915 0.925301,2.93235 0.508916,0.29724 25.908434,9.83737 56.443374,21.20028 30.534935,11.36292 56.586515,21.12839 57.892395,21.70104 1.30588,0.57265 3.01984,1.8888 3.8088,2.92478 0.96908,1.27248 8.64443,25.06671 23.65732,73.33965 12.22255,39.30082 22.56013,71.86247 22.97239,72.35921 1.84266,2.22027 3.85739,0.80186 35.1694,-24.75984 17.03961,-13.91036 32.40239,-26.3142 34.13951,-27.56408 8.37576,-6.02646 18.4815,-7.04357 28.24623,-2.8429 1.62429,0.69875 29.24826,20.37525 61.38661,43.72555 32.13836,23.35031 59.01493,42.46698 59.72571,42.48152 0.71079,0.0146 1.73877,-0.46687 2.28439,-1.06977 z"
   id="path884" /><path
   style="fill:#2e4052;stroke-width:0.616867"
   d="m 194.45007,377.26324 c -3.35392,-1.08557 -6.5633,-3.52857 -8.43607,-6.42158 -0.94725,-1.46331 -5.73574,-17.28225 -13.5468,-44.75239 -11.25544,-39.58341 -12.08166,-42.83454 -12.08166,-47.54106 0,-8.71707 3.07663,-16.15733 9.12851,-22.07564 2.77935,-2.71801 25.64788,-17.0694 109.00161,-68.40514 58.01639,-35.73102 106.7335,-65.61891 108.26024,-66.41754 2.248,-1.1759 3.49543,-1.40934 6.55942,-1.22751 7.05372,0.41859 11.99738,5.37464 12.44988,12.48109 0.31238,4.90579 -0.93439,7.46555 -6.04542,12.41196 -2.07889,2.01194 -41.85157,39.05084 -88.38373,82.30867 -46.53216,43.25783 -85.4948,79.82139 -86.58363,81.25235 -3.55495,4.67197 -4.33414,8.00512 -7.64325,32.69581 -1.71786,12.81766 -3.51009,24.47816 -3.98274,25.9122 -2.50281,7.59363 -11.27395,12.18121 -18.69636,9.77878 z m 4.76057,-50.66717 c 1.01494,-7.10543 2.39556,-14.51612 3.06804,-16.46821 1.78273,-5.17495 5.23242,-11.43272 8.22738,-14.92458 1.43979,-1.67868 30.10012,-28.57402 63.68961,-59.76743 65.67979,-60.99459 66.57816,-61.84276 64.87882,-61.25443 -0.62036,0.21478 -10.19723,5.98071 -21.28193,12.81319 -11.0847,6.83248 -45.41473,27.96357 -76.28895,46.95799 -30.87421,18.99441 -56.92309,35.26479 -57.88639,36.15641 -2.51288,2.32587 -3.49192,4.53732 -3.49192,7.88756 0,2.44306 5.54545,22.9682 16.44424,60.86437 0.1781,0.61931 0.43001,1.01983 0.55979,0.89005 0.12978,-0.12978 1.06637,-6.04949 2.08131,-13.15492 z"
   id="path886" /><path
   style="fill:#2e4052;stroke-width:0.616867"
   d="m 386.83262,425.53928 c -2.91434,-2.00022 -4.41187,-4.21276 -4.77042,-7.04811 -0.21721,-1.71759 3.17379,-18.40992 11.75374,-57.85828 13.08728,-60.17192 12.52751,-58.20838 17.23042,-60.44006 2.9197,-1.38549 5.80202,-1.25374 8.71938,0.39857 2.65912,1.50604 5.23007,5.35034 5.24471,7.84233 0.0199,3.38195 -24.08126,112.59306 -25.17614,114.08237 -1.97381,2.68487 -4.23751,3.93128 -7.63523,4.20404 -2.68152,0.21527 -3.63938,0.004 -5.36646,-1.18086 z"
   id="path888" /><path
   style="fill:#2e4052;stroke-width:0.616867"
   d="m 421.18714,278.65238 c -2.90371,-0.7066 -6.43371,-4.51346 -7.00399,-7.5533 -0.51711,-2.75642 1.25199,-11.54891 2.85657,-14.19728 1.47431,-2.43336 5.38202,-4.603 8.2904,-4.603 2.68339,0 6.28533,1.87464 7.96463,4.1452 1.66097,2.2458 1.9177,6.68964 0.70212,12.15343 -1.76013,7.91145 -6.45954,11.60024 -12.80973,10.05495 z"
   id="path890" /></svg>
