<?xml version="1.0" encoding="UTF-8" standalone="no"?>
<svg
   xmlns:dc="http://purl.org/dc/elements/1.1/"
   xmlns:cc="http://creativecommons.org/ns#"
   xmlns:rdf="http://www.w3.org/1999/02/22-rdf-syntax-ns#"
   xmlns:svg="http://www.w3.org/2000/svg"
   xmlns="http://www.w3.org/2000/svg"
   xmlns:sodipodi="http://sodipodi.sourceforge.net/DTD/sodipodi-0.dtd"
   xmlns:inkscape="http://www.inkscape.org/namespaces/inkscape"
   viewBox="0 -62 512.00199 512"
   version="1.1"
   id="svg6"
   sodipodi:docname="youtube.svg"
   inkscape:version="1.0.2-2 (e86c870879, 2021-01-15)">
  <metadata
     id="metadata12">
    <rdf:RDF>
      <cc:Work
         rdf:about="">
        <dc:format>image/svg+xml</dc:format>
        <dc:type
           rdf:resource="http://purl.org/dc/dcmitype/StillImage" />
      </cc:Work>
    </rdf:RDF>
  </metadata>
  <defs
     id="defs10" />
  <sodipodi:namedview
     pagecolor="#ffffff"
     bordercolor="#666666"
     borderopacity="1"
     objecttolerance="10"
     gridtolerance="10"
     guidetolerance="10"
     inkscape:pageopacity="0"
     inkscape:pageshadow="2"
     inkscape:window-width="1920"
     inkscape:window-height="1001"
     id="namedview8"
     showgrid="false"
     inkscape:zoom="1.6210938"
     inkscape:cx="256.00101"
     inkscape:cy="254.76627"
     inkscape:window-x="-9"
     inkscape:window-y="-9"
     inkscape:window-maximized="1"
     inkscape:current-layer="svg6" />
  <path
     d="m334.808594 170.992188-113.113282-61.890626c-6.503906-3.558593-14.191406-3.425781-20.566406.351563-6.378906 3.78125-10.183594 10.460937-10.183594 17.875v122.71875c0 7.378906 3.78125 14.046875 10.117188 17.832031 3.308594 1.976563 6.976562 2.96875 10.652344 2.96875 3.367187 0 6.742187-.832031 9.847656-2.503906l113.117188-60.824219c6.714843-3.613281 10.90625-10.59375 10.9375-18.222656.027343-7.628906-4.113282-14.640625-10.808594-18.304687zm-113.859375 63.617187v-91.71875l84.539062 46.257813zm0 0"
     id="path2" />
  <path
     d="m508.234375 91.527344-.023437-.234375c-.433594-4.121094-4.75-40.777344-22.570313-59.421875-20.597656-21.929688-43.949219-24.59375-55.179687-25.871094-.929688-.105469-1.78125-.203125-2.542969-.304688l-.894531-.09375c-67.6875-4.921874-169.910157-5.5937495-170.933594-5.59765575l-.089844-.00390625-.089844.00390625c-1.023437.00390625-103.246094.67578175-171.542968 5.59765575l-.902344.09375c-.726563.097657-1.527344.1875-2.398438.289063-11.101562 1.28125-34.203125 3.949219-54.859375 26.671875-16.972656 18.445312-21.878906 54.316406-22.382812 58.347656l-.058594.523438c-.152344 1.714844-3.765625 42.539062-3.765625 83.523437v38.3125c0 40.984375 3.613281 81.808594 3.765625 83.527344l.027344.257813c.433593 4.054687 4.746093 40.039062 22.484375 58.691406 19.367187 21.195312 43.855468 24 57.027344 25.507812 2.082031.238282 3.875.441406 5.097656.65625l1.183594.164063c39.082031 3.71875 161.617187 5.550781 166.8125 5.625l.15625.003906.15625-.003906c1.023437-.003907 103.242187-.675781 170.929687-5.597657l.894531-.09375c.855469-.113281 1.816406-.214843 2.871094-.324218 11.039062-1.171875 34.015625-3.605469 54.386719-26.019532 16.972656-18.449218 21.882812-54.320312 22.382812-58.347656l.058594-.523437c.152344-1.71875 3.769531-42.539063 3.769531-83.523438v-38.3125c-.003906-40.984375-3.617187-81.804687-3.769531-83.523437zm-26.238281 121.835937c0 37.933594-3.3125 77-3.625 80.585938-1.273438 9.878906-6.449219 32.574219-14.71875 41.5625-12.75 14.027343-25.847656 15.417969-35.410156 16.429687-1.15625.121094-2.226563.238282-3.195313.359375-65.46875 4.734375-163.832031 5.460938-168.363281 5.488281-5.082032-.074218-125.824219-1.921874-163.714844-5.441406-1.941406-.316406-4.039062-.558594-6.25-.808594-11.214844-1.285156-26.566406-3.042968-38.371094-16.027343l-.277344-.296875c-8.125-8.464844-13.152343-29.6875-14.429687-41.148438-.238281-2.710937-3.636719-42.238281-3.636719-80.703125v-38.3125c0-37.890625 3.304688-76.914062 3.625-80.574219 1.519532-11.636718 6.792969-32.957031 14.71875-41.574218 13.140625-14.453125 26.996094-16.054688 36.160156-17.113282.875-.101562 1.691407-.195312 2.445313-.292968 66.421875-4.757813 165.492187-5.464844 169.046875-5.492188 3.554688.023438 102.589844.734375 168.421875 5.492188.808594.101562 1.691406.203125 2.640625.3125 9.425781 1.074218 23.671875 2.699218 36.746094 16.644531l.121094.128906c8.125 8.464844 13.152343 30.058594 14.429687 41.75.226563 2.558594 3.636719 42.171875 3.636719 80.71875zm0 0"
     id="path4" />
  <path
     style="fill:#2e4052;stroke-width:0.616867"
     d="M 242.73836,449.28131 C 106.22881,446.51915 75.629748,444.52649 55.944561,437.117 49.997679,434.8786 41.617571,430.40751 37.321489,427.18093 32.181526,423.32054 25.022462,416.16815 21.885201,411.75904 14.599813,401.52013 8.3478686,384.59924 5.2611699,366.7661 0.90139147,341.57785 -1.1869999,253.3753 1.2655996,198.01446 2.8204329,162.91828 4.3039752,148.46254 7.7515372,134.81505 12.793867,114.85452 19.396578,101.94657 29.869861,91.574883 c 12.020428,-11.90382 26.334,-19.192704 43.538375,-22.170998 16.558197,-2.866432 86.546454,-5.83626 161.310844,-6.84494 56.18429,-0.758007 172.9103,2.776861 197.39759,5.977883 21.09557,2.757651 34.30652,8.485688 48.56961,21.058922 12.70561,11.20028 21.01356,28.7506 25.77413,54.44718 1.35447,7.31112 3.17768,30.16922 4.37868,54.89683 0.96109,19.7878 0.96569,95.21186 0.007,114.42891 -1.15034,23.05841 -2.48276,41.72948 -3.4795,48.75778 -1.76978,12.47936 -6.15999,27.74113 -11.09534,38.57105 -9.58135,21.0249 -30.52129,36.82041 -54.67084,41.23956 -10.31987,1.88844 -27.27679,3.12628 -63.76806,4.655 -32.06142,1.34313 -117.3887,3.36318 -125.2241,2.96456 -1.3571,-0.069 -5.79855,-0.19293 -9.86988,-0.27531 z m 85.43614,-30.44152 c 61.51596,-1.74444 98.42382,-3.7501 109.18554,-5.9334 9.20969,-1.86843 17.61479,-6.2604 23.88461,-12.48057 6.02814,-5.98042 9.16594,-11.8246 12.82082,-23.87893 4.0282,-13.28561 5.02532,-21.42864 7.1319,-58.24328 1.05634,-18.46072 1.44231,-82.87566 0.63575,-106.1012 -0.87095,-25.07925 -2.80666,-54.44803 -4.08614,-61.99518 -2.24885,-13.26501 -6.76023,-26.43417 -11.30571,-33.00241 -5.47075,-7.90525 -17.57168,-15.56998 -28.15593,-17.833965 -8.08267,-1.728893 -14.59155,-2.386768 -33.92771,-3.429192 -90.46618,-4.877087 -184.32122,-5.185845 -278.82409,-0.917256 -36.868432,1.665306 -48.709585,2.874259 -57.197355,5.839713 -8.22872,2.87494 -17.784925,9.93959 -22.286697,16.47596 -5.28894,7.67931 -11.281123,26.4154 -12.681735,39.65269 -1.05533,9.974 -2.439927,33.69904 -3.204044,54.90121 -0.807579,22.40811 -0.40631,89.00388 0.643024,106.71807 2.096715,35.39544 2.932763,43.37591 5.618236,53.62875 5.029695,19.20282 11.257752,28.19481 24.19941,34.93878 13.911997,7.24962 39.455471,9.43107 136.774221,11.68071 15.77638,0.36469 31.73783,0.75288 35.46988,0.86265 11.23299,0.33039 72.54751,-0.23778 95.30602,-0.88315 z"
     id="path837"
     transform="translate(0,-62)" />
  <path
     style="fill:#2e4052;stroke-width:0.616867"
     d="m 205.93862,331.63185 c -6.24101,-2.22934 -10.05912,-5.65234 -12.80248,-11.47763 l -1.59778,-3.39277 v -66.31326 -66.31325 l 1.72745,-3.51776 c 5.23508,-10.66062 17.6043,-14.55084 28.49905,-8.96318 2.37494,1.21806 29.16241,15.81011 59.52771,32.4268 40.18329,21.98934 55.91063,30.89882 57.78519,32.73512 4.00083,3.91916 5.98959,8.63654 6.0196,14.2786 0.0215,4.04524 -0.24115,5.19612 -2.00249,8.77389 -1.21067,2.45923 -3.07096,5.01976 -4.61839,6.35682 -2.83607,2.45052 -115.41803,63.33926 -120.41282,65.12398 -3.6225,1.29437 -8.94535,1.41845 -12.12504,0.28264 z m 57.81296,-57.58848 C 299.80044,254.671 305.78799,251.26201 304.91512,250.6071 303.59647,249.61769 221.69869,204.8 221.20935,204.8 c -0.20338,0 -0.36979,20.68048 -0.36979,45.95663 0,25.27614 0.16358,45.95662 0.36352,45.95662 0.19993,0 19.34676,-10.20144 42.5485,-22.66988 z"
     id="path839"
     transform="translate(0,-62)" />
</svg>
