<?xml version="1.0" encoding="UTF-8" standalone="no"?>
<svg
   xmlns:dc="http://purl.org/dc/elements/1.1/"
   xmlns:cc="http://creativecommons.org/ns#"
   xmlns:rdf="http://www.w3.org/1999/02/22-rdf-syntax-ns#"
   xmlns:svg="http://www.w3.org/2000/svg"
   xmlns="http://www.w3.org/2000/svg"
   xmlns:sodipodi="http://sodipodi.sourceforge.net/DTD/sodipodi-0.dtd"
   xmlns:inkscape="http://www.inkscape.org/namespaces/inkscape"
   version="1.1"
   id="Capa_1"
   x="0px"
   y="0px"
   viewBox="0 0 480.004 480.004"
   style="enable-background:new 0 0 480.004 480.004;"
   xml:space="preserve"
   sodipodi:docname="порівняння.svg"
   inkscape:version="1.0.2-2 (e86c870879, 2021-01-15)"><metadata
   id="metadata43"><rdf:RDF><cc:Work
       rdf:about=""><dc:format>image/svg+xml</dc:format><dc:type
         rdf:resource="http://purl.org/dc/dcmitype/StillImage" /></cc:Work></rdf:RDF></metadata><defs
   id="defs41" /><sodipodi:namedview
   pagecolor="#ffffff"
   bordercolor="#666666"
   borderopacity="1"
   objecttolerance="10"
   gridtolerance="10"
   guidetolerance="10"
   inkscape:pageopacity="0"
   inkscape:pageshadow="2"
   inkscape:window-width="1920"
   inkscape:window-height="1001"
   id="namedview39"
   showgrid="false"
   inkscape:zoom="1.7291523"
   inkscape:cx="240.002"
   inkscape:cy="354.50898"
   inkscape:window-x="-9"
   inkscape:window-y="-9"
   inkscape:window-maximized="1"
   inkscape:current-layer="Capa_1" />
<g
   id="g6">
	<g
   id="g4">
		<path
   d="M479.202,292.692l0.072-0.024l-78.808-171.952l19.112-9.512l-7.152-14.32l-18.632,9.28l-2.52-5.496    c-1.842-4.016-6.59-5.779-10.606-3.938c-1.742,0.799-3.139,2.196-3.938,3.938l-2.248,4.912c-13.56-6.298-28.329-9.566-43.28-9.576    h-67.2v-16h16v-16H266.25l5.752-23.016c4.416-17.673-6.33-35.58-24.003-39.997c-17.673-4.416-35.58,6.33-39.997,24.003    c-1.312,5.25-1.312,10.743,0,15.993l5.752,23.016h-13.752v16h16v16h-67.16c-14.966,0.012-29.75,3.288-43.32,9.6l-2.248-4.912    c-1.841-4.016-6.59-5.779-10.606-3.938c-1.742,0.799-3.139,2.196-3.938,3.938l-2.52,5.496l-18.632-9.32l-7.152,14.336    l19.112,9.552L0.73,292.668c-0.486,1.045-0.734,2.184-0.728,3.336c0.035,30.913,25.087,55.965,56,56h80    c30.913-0.035,55.965-25.087,56-56c-0.02-1.149-0.293-2.28-0.8-3.312l-79.024-172.6c11.487-5.332,24-8.092,36.664-8.088h67.16    v292.688l-27.312,27.312h-28.688c-22.08,0.026-39.974,17.92-40,40c0,4.418,3.582,8,8,8h224c4.418,0,8-3.582,8-8    c-0.026-22.08-17.92-39.974-40-40h-28.688l-27.312-27.312V112.004h67.2c12.664-0.004,25.177,2.756,36.664,8.088L288.73,292.668    c-0.486,1.045-0.734,2.184-0.728,3.336c0.035,30.913,25.087,55.965,56,56h80c30.913-0.035,55.965-25.087,56-56    C479.983,294.855,479.71,293.724,479.202,292.692z M136.002,336.004h-80c-19.002-0.021-35.375-13.387-39.2-32h158.4    C171.378,322.617,155.004,335.983,136.002,336.004z M171.538,288.004H20.466l73.488-160.328c1.342,0.36,2.754,0.36,4.096,0    L171.538,288.004z M226.618,22.532c6.23-7.392,17.273-8.333,24.665-2.103c0.759,0.64,1.463,1.344,2.103,2.103    c3.236,4.116,4.379,9.5,3.096,14.576l-6.728,26.896H230.25l-6.728-26.896C222.239,32.032,223.383,26.648,226.618,22.532z     M232.002,96.004v-16h16v16H232.002z M248.002,112.004v288h-16v-288H248.002z M320.002,448.004    c10.168,0.012,19.229,6.418,22.632,16H137.37c3.403-9.582,12.464-15.988,22.632-16H320.002z M268.69,432.004h-57.376l16-16h25.376    L268.69,432.004z M381.938,127.7c1.321,0.465,2.77,0.405,4.048-0.168l73.552,160.472H308.466L381.938,127.7z M424.002,336.004h-80    c-19.002-0.021-35.375-13.387-39.2-32h158.4C459.378,322.617,443.004,335.983,424.002,336.004z"
   id="path2" />
	</g>
</g>
<g
   id="g8">
</g>
<g
   id="g10">
</g>
<g
   id="g12">
</g>
<g
   id="g14">
</g>
<g
   id="g16">
</g>
<g
   id="g18">
</g>
<g
   id="g20">
</g>
<g
   id="g22">
</g>
<g
   id="g24">
</g>
<g
   id="g26">
</g>
<g
   id="g28">
</g>
<g
   id="g30">
</g>
<g
   id="g32">
</g>
<g
   id="g34">
</g>
<g
   id="g36">
</g>
<path
   style="fill:#2e4052;stroke-width:0.578318"
   d="m 125.89048,479.16914 c -4.54914,-1.62864 -5.97114,-4.48046 -5.38402,-10.79762 1.25444,-13.4973 9.74278,-25.72854 22.04894,-31.77135 7.89617,-3.87732 9.47888,-4.11703 29.20507,-4.42337 l 17.6387,-0.27392 13.44589,-13.39092 13.4459,-13.39092 V 258.33468 111.54832 l -38.60273,0.20828 c -34.18316,0.18444 -39.23174,0.32746 -44.09676,1.24925 -8.85499,1.67779 -21.39776,5.95259 -21.39776,7.29274 0,0.34533 17.84932,39.58623 39.66517,87.202 l 39.66517,86.57415 -0.28873,6.07234 c -0.3358,7.06212 -2.16881,14.00728 -5.38618,20.40787 -2.95954,5.88768 -4.99569,8.72234 -10.00107,13.92314 -7.13583,7.41443 -14.64422,11.95373 -25.19621,15.23274 l -5.20487,1.6174 H 96.0008 46.554605 l -5.204863,-1.6174 C 31.163804,346.54557 25.065485,343.0095 17.71056,336.00382 7.2733473,326.06221 1.4321483,313.7136 0.74943146,300.14708 L 0.44384923,294.07474 40.178807,207.42816 c 21.854226,-47.65563 39.646078,-86.72776 39.537441,-86.82698 -0.108632,-0.0992 -4.231282,-2.19099 -9.161444,-4.64841 -4.930161,-2.45741 -9.081085,-4.57747 -9.224271,-4.71124 -0.143186,-0.13376 1.273329,-3.34495 3.14782,-7.13596 l 3.408156,-6.892743 9.162281,4.674393 c 5.039256,2.57091 9.274314,4.56236 9.411236,4.42544 0.136923,-0.13692 0.886753,-1.69113 1.666285,-3.4538 1.958601,-4.428737 4.279669,-6.279742 7.874489,-6.279742 3.569489,0 5.91434,1.847518 7.8233,6.163992 0.75138,1.69901 1.50754,3.0891 1.68035,3.0891 0.17282,0 2.46427,-0.88872 5.09211,-1.97492 5.60108,-2.31517 13.31562,-4.586865 19.81416,-5.834656 7.9855,-1.5333 20.37724,-1.997638 53.63901,-2.009921 l 32.24123,-0.01191 V 87.90435 79.807897 h -8.09645 -8.09646 V 72.0006 64.193306 h 6.93982 c 3.8169,0 6.93982,-0.138814 6.93982,-0.308481 0,-0.169667 -1.44988,-6.090198 -3.22196,-13.156736 -2.67365,-10.661766 -3.21907,-13.684799 -3.20499,-17.763959 0.0319,-9.241623 2.96675,-16.237776 9.59011,-22.861143 6.64927,-6.6492608 13.5633,-9.53069518 22.83807,-9.51780493 9.22061,0.0128149 16.45816,3.01339143 22.88422,9.48744193 6.69251,6.742482 9.52467,13.591158 9.52467,23.032332 0,4.262024 -0.52402,7.192402 -3.18075,17.787034 -1.74941,6.976396 -3.18075,12.823168 -3.18075,12.992835 0,0.169667 3.12292,0.308481 6.93982,0.308481 h 6.93982 v 7.807294 7.807294 h -8.09646 -8.09645 v 8.038748 8.038743 l 38.31357,0.269189 c 31.91295,0.22422 39.27869,0.428199 44.09071,1.221003 9.3362,1.538182 17.15684,3.859223 27.9137,8.284353 0.45423,0.18686 1.24946,-0.88308 2.12087,-2.85348 1.94112,-4.3892 4.26575,-6.227332 7.87556,-6.227332 3.63325,0 6.24707,2.15383 8.07279,6.652112 0.70971,1.74861 1.35884,3.17929 1.44252,3.17929 0.0837,0 4.22314,-1.95182 9.19882,-4.33738 4.97568,-2.385563 9.16884,-4.337386 9.31812,-4.337386 0.32812,0 6.64258,12.511406 6.64258,13.161546 0,0.2518 -4.16389,2.52676 -9.25309,5.05547 -5.0892,2.52872 -9.25309,4.68026 -9.25309,4.78121 0,0.10095 17.85837,39.14392 39.68527,86.76215 l 39.68526,86.57861 -0.30882,6.07234 c -0.35919,7.06272 -2.21,14.04927 -5.40627,20.40787 -2.95954,5.88768 -4.99569,8.72234 -10.00108,13.92314 -7.13582,7.41443 -14.64421,11.95373 -25.1962,15.23274 l -5.20487,1.6174 H 384.0032 334.557 l -5.20486,-1.6174 c -10.18594,-3.16526 -16.28426,-6.70133 -23.63918,-13.70701 -10.43829,-9.94263 -16.27999,-22.29315 -16.95997,-35.85674 l -0.30442,-6.07234 39.92363,-87.03687 39.92364,-87.03687 -1.4068,-0.74524 c -2.8341,-1.50134 -15.13313,-5.26309 -20.47652,-6.26289 -4.83374,-0.90444 -10.13335,-1.05302 -44.09675,-1.23627 l -38.60273,-0.20828 v 146.78636 146.78636 l 13.44589,13.39092 13.4459,13.39092 17.6387,0.27392 c 19.73501,0.30648 21.32081,0.54704 29.20506,4.43029 12.57166,6.19195 21.09064,18.67103 22.03562,32.27897 0.36864,5.30848 -0.61285,7.78946 -3.8186,9.65247 -2.01457,1.17076 -2.55554,1.17689 -114.79613,1.29852 -94.10219,0.10197 -113.1374,-0.009 -114.979,-0.66791 z m 216.74003,-16.08095 c -0.69752,-2.32695 -3.74032,-6.65179 -6.41372,-9.11605 -3.04091,-2.80301 -7.40712,-4.94627 -11.75702,-5.77121 -1.97277,-0.37413 -32.20763,-0.58274 -84.45777,-0.58274 -52.25014,0 -82.485,0.20861 -84.45777,0.58274 -4.3499,0.82494 -8.71611,2.9682 -11.75702,5.77121 -2.6734,2.46426 -5.71621,6.7891 -6.41373,9.11605 l -0.39004,1.30122 H 240.002 343.02056 Z m -81.5199,-39.18104 -8.08096,-8.09646 H 240.002 226.97435 l -8.08096,8.09646 -8.08096,8.09645 H 240.002 269.19157 Z M 248.09845,255.90575 V 111.61539 H 240.002 231.90555 V 255.90575 400.1961 h 8.09645 8.09645 z m -98.98786,78.25834 c 9.82194,-3.5879 18.1846,-10.8064 22.6425,-19.54459 1.60448,-3.14504 3.47729,-8.49663 3.47729,-9.93641 0,-1.03074 -2.62834,-1.0661 -79.22958,-1.0661 -76.601238,0 -79.229576,0.0353 -79.229576,1.0661 0,1.66895 2.080026,7.29831 4.090347,11.07006 3.468336,6.50726 11.373272,13.81868 18.252215,16.8818 7.676727,3.41836 5.988916,3.32541 58.04365,3.19668 l 47.711244,-0.11799 z m 288.0024,0 c 9.82194,-3.5879 18.1846,-10.8064 22.6425,-19.54459 1.60448,-3.14504 3.47728,-8.49663 3.47728,-9.93641 0,-1.03074 -2.62834,-1.0661 -79.22957,-1.0661 -76.60124,0 -79.22958,0.0353 -79.22958,1.0661 0,1.66895 2.08003,7.29831 4.09035,11.07006 3.46833,6.50726 11.37327,13.81868 18.25221,16.8818 7.67673,3.41836 5.98892,3.32541 58.04365,3.19668 l 47.71125,-0.11799 z M 171.76047,287.81675 c 0,-0.10212 -16.51001,-36.20584 -36.68891,-80.23051 L 98.382643,127.54138 h -2.370011 -2.370011 l -36.464478,79.50761 c -20.055463,43.72919 -36.598641,79.83292 -36.762618,80.23051 -0.237621,0.57616 15.092706,0.7229 75.5234,0.7229 41.701855,0 75.821545,-0.0836 75.821545,-0.18565 z m 288.0024,0 c 0,-0.10212 -16.51127,-36.20858 -36.6917,-80.2366 l -36.6917,-80.05094 -2.39008,0.0559 -2.39006,0.0559 -36.44164,79.45777 c -20.04289,43.70178 -36.57579,79.78308 -36.73977,80.18067 -0.23762,0.57616 15.09271,0.7229 75.5234,0.7229 41.70185,0 75.82155,-0.0836 75.82155,-0.18565 z M 248.09845,87.904347 v -8.096453 h -8.09645 -8.09645 v 8.096453 8.096453 h 8.09645 8.09645 z m 5.62102,-38.458152 c 3.01533,-11.885186 3.62263,-15.055503 3.41278,-17.81596 -0.46845,-6.162252 -3.67971,-10.858433 -9.61212,-14.056875 -2.8937,-1.560133 -12.14256,-1.560133 -15.03627,0 -3.82034,2.059724 -6.30221,4.455425 -7.81148,7.540256 -2.68517,5.488292 -2.55999,7.565043 1.41438,23.465102 1.94789,7.792836 3.65781,14.500267 3.79984,14.905402 0.19859,0.566515 2.5566,0.70006 10.21152,0.578318 l 9.95329,-0.158291 z"
   id="path868" /></svg>
