<?xml version="1.0" encoding="UTF-8" standalone="no"?>
<svg
   xmlns:dc="http://purl.org/dc/elements/1.1/"
   xmlns:cc="http://creativecommons.org/ns#"
   xmlns:rdf="http://www.w3.org/1999/02/22-rdf-syntax-ns#"
   xmlns:svg="http://www.w3.org/2000/svg"
   xmlns="http://www.w3.org/2000/svg"
   xmlns:sodipodi="http://sodipodi.sourceforge.net/DTD/sodipodi-0.dtd"
   xmlns:inkscape="http://www.inkscape.org/namespaces/inkscape"
   version="1.1"
   id="Capa_1"
   x="0px"
   y="0px"
   viewBox="0 0 513.323 513.323"
   style="enable-background:new 0 0 513.323 513.323;"
   xml:space="preserve"
   sodipodi:docname="користувач.svg"
   inkscape:version="1.0.2-2 (e86c870879, 2021-01-15)"><metadata
   id="metadata49"><rdf:RDF><cc:Work
       rdf:about=""><dc:format>image/svg+xml</dc:format><dc:type
         rdf:resource="http://purl.org/dc/dcmitype/StillImage" /></cc:Work></rdf:RDF></metadata><defs
   id="defs47" /><sodipodi:namedview
   pagecolor="#ffffff"
   bordercolor="#666666"
   borderopacity="1"
   objecttolerance="10"
   gridtolerance="10"
   guidetolerance="10"
   inkscape:pageopacity="0"
   inkscape:pageshadow="2"
   inkscape:window-width="1920"
   inkscape:window-height="1001"
   id="namedview45"
   showgrid="false"
   inkscape:zoom="1.6169157"
   inkscape:cx="256.6615"
   inkscape:cy="255.42458"
   inkscape:window-x="-9"
   inkscape:window-y="-9"
   inkscape:window-maximized="1"
   inkscape:current-layer="Capa_1" />
<g
   id="g6">
	<g
   id="g4">
		<path
   d="M256.661,257.323c-135.275,0-245.333,110.059-245.333,245.333c0,5.888,4.779,10.667,10.667,10.667    s10.667-4.779,10.667-10.667c0-123.52,100.48-224,224-224s224,100.48,224,224c0,5.888,4.779,10.667,10.667,10.667    c5.888,0,10.667-4.779,10.667-10.667C501.995,367.36,391.936,257.323,256.661,257.323z"
   id="path2" />
	</g>
</g>
<g
   id="g12">
	<g
   id="g10">
		<path
   d="M256.661,0c-64.683,0-117.333,52.629-117.333,117.333s52.651,117.333,117.333,117.333s117.333-52.629,117.333-117.333    S321.344,0,256.661,0z M256.661,213.333c-52.928,0-96-43.072-96-96s43.072-96,96-96c52.928,0,96,43.072,96,96    S309.589,213.333,256.661,213.333z"
   id="path8" />
	</g>
</g>
<g
   id="g14">
</g>
<g
   id="g16">
</g>
<g
   id="g18">
</g>
<g
   id="g20">
</g>
<g
   id="g22">
</g>
<g
   id="g24">
</g>
<g
   id="g26">
</g>
<g
   id="g28">
</g>
<g
   id="g30">
</g>
<g
   id="g32">
</g>
<g
   id="g34">
</g>
<g
   id="g36">
</g>
<g
   id="g38">
</g>
<g
   id="g40">
</g>
<g
   id="g42">
</g>
<path
   style="fill:#2e4052;stroke-width:0.618461"
   d="m 19.866715,512.65186 c -2.436248,-0.51525 -4.737523,-2.10865 -6.53158,-4.52245 -1.187409,-1.59759 -1.270553,-2.50977 -1.208515,-13.2587 0.270874,-46.93274 18.17509,-98.44639 48.077527,-138.32769 23.989774,-31.99549 55.657273,-58.00167 91.454333,-75.10469 24.29825,-11.60914 49.63141,-18.8544 78.40918,-22.42496 8.7246,-1.0825 44.41727,-1.08623 53.18768,-0.006 22.01935,2.71316 41.20073,7.39463 60.60922,14.7925 63.60359,24.24356 115.26048,75.16042 140.38716,138.37602 10.84971,27.29649 16.79231,56.29795 16.94466,82.69439 0.062,10.74893 -0.0211,11.66111 -1.20852,13.2587 -4.78064,6.43208 -12.88288,6.31687 -17.35278,-0.24676 -1.13771,-1.67062 -1.36539,-3.17542 -1.72255,-11.38467 -1.94588,-44.72557 -14.35745,-83.45923 -38.1083,-118.92727 -32.98185,-49.25303 -85.48451,-84.00841 -143.77812,-95.17732 -14.95927,-2.86616 -24.68251,-3.71994 -42.36461,-3.71994 -17.69258,0 -27.43219,0.856 -42.36461,3.72334 -82.44876,15.83195 -149.710551,77.18639 -173.155333,157.94776 -4.863058,16.752 -7.822417,35.7348 -8.70487,55.83734 -0.373761,8.51436 -0.596666,10.00886 -1.744148,11.6939 -2.626589,3.85704 -6.691632,5.65044 -10.825824,4.77607 z"
   id="path874" /><path
   style="fill:#2e4052;stroke-width:0.618461"
   d="m 244.6015,233.71843 c -34.50566,-3.5842 -66.8415,-23.44317 -86.00292,-52.81846 -12.17213,-18.6604 -18.82629,-41.10416 -18.82629,-63.49901 0,-58.852019 43.30521,-107.9904859 102.35537,-116.1427466 7.3881,-1.01997581 23.82468,-0.85647359 31.31938,0.3115483 37.51579,5.846703 69.37695,28.4562523 86.68394,61.5133053 12.68395,24.226873 16.52672,51.624373 10.97427,78.242533 -2.97393,14.25686 -10.64499,31.79459 -19.05029,43.55316 -4.71748,6.59953 -15.42984,18.0302 -21.6533,23.10525 -23.86481,19.46109 -55.33211,28.89922 -85.80016,25.73442 z m 33.08769,-22.40076 c 12.13623,-2.89404 22.70651,-7.44249 32.77845,-14.10477 8.14797,-5.38962 20.68809,-17.96833 26.15457,-26.23504 17.98197,-27.19332 21.24198,-60.18846 8.93914,-90.474657 C 340.61742,68.332599 334.33068,59.053974 324.10328,48.833187 310.83569,35.574172 294.65133,26.958295 275.21534,22.807281 c -9.4101,-2.00975 -27.69758,-2.00975 -37.10768,0 -13.4645,2.875659 -24.00245,7.27396 -34.93388,14.580597 C 157.40564,67.9796 146.53863,130.89123 179.434,174.82288 c 13.08889,17.48017 32.50491,30.47403 53.48999,35.79733 9.32093,2.36445 12.70518,2.68569 25.90212,2.45873 10.57411,-0.18186 13.31168,-0.43747 18.86308,-1.76127 z"
   id="path876" /></svg>
